<?xml version="1.0" encoding="UTF-8"?>
<svg id="Layer_8" xmlns="http://www.w3.org/2000/svg" version="1.1" viewBox="0 0 1859.72 413.18">
  <!-- Generator: Adobe Illustrator 30.0.0, SVG Export Plug-In . SVG Version: 2.1.1 Build 123)  -->
  <defs>
    <style>
      .st0, .st1 {
        isolation: isolate;
      }

      .st1 {
        font-family: FONTSPRINGDEMO-TheSeasonsRegular, 'FONTSPRING DEMO - The Seasons';
        font-size: 152.08px;
      }
    </style>
  </defs>
  <g>
    <path d="M31,221.52c.36-33.24,27.5-59.01,61.64-58.6,30.79.39,57.52,27.91,57.27,58.99-.25,33.28-27.09,60.08-59.72,59.62-33.33-.48-59.58-27.09-59.22-60.03l.02.02ZM43.38,221.66c-.2,26.03,20.38,47.38,46.07,47.81,25.98.43,47.9-20.74,48.09-46.43.18-26.37-20.43-47.68-46.39-48.02-26.16-.32-47.56,20.56-47.77,46.61v.02Z"/>
    <path d="M331.51,222.82c-.93,34.66-27.75,59.6-63.05,58.58-30.47-.86-56.88-29.15-55.86-59.81,1.16-34.51,27.91-59.56,62.59-58.65,30.72.79,57.13,28.88,56.29,59.9l.02-.02ZM319.15,222.27c0-25.94-21.11-47.31-46.61-47.22-26.41.11-47.59,20.97-47.54,46.84.05,26.32,21.13,47.72,46.88,47.59,26.28-.14,47.27-21.11,47.27-47.22v.02Z"/>
    <path d="M298.32,162.26c-7.75-1.41-15.39-3.72-23.08-4.01-26.93-1-46.84,10.97-59.92,34.35-1.5,2.68-2.99,3.83-6.12,3.81-18.59-.14-37.18-.14-55.75,0-3.11,0-4.74-1.07-6.21-3.81-16.28-30.22-49.56-42.19-81.84-29.63-.27.11-.63,0-.95,0,2.65-6.62,7.35-10.75,14.17-10.86,16.57-.32,33.15-.34,49.72,0,3.26.07,6.64,1.95,9.73,3.47,6.85,3.36,13.56,7.03,19.45,10.13-2.02,4.62-4.6,9.82-6.51,15.23-1.38,3.92.57,5.85,4.87,5.8,16.91-.11,33.83-.11,50.74,0,4.17.02,6.35-1.59,4.92-5.67-1.84-5.31-4.31-10.38-6.46-15.42,7.53-3.92,16.16-8.71,25.1-12.95,2.4-1.13,5.58-.82,8.41-.84,13.74-.07,27.45.14,41.19-.09,8.57-.16,14.83,3.11,18.57,10.47h-.02Z"/>
    <path d="M209.81,211.19c-.63,8.03-1.27,15.8-1.93,23.94h-45.66c-.63-8-1.25-15.89-1.88-23.94h49.47Z"/>
    <path d="M216.34,255.24h-70.21c1.95-4.69,3.63-9.14,5.74-13.38.45-.91,2.47-1.43,3.79-1.43,17.07-.09,34.14-.16,51.19.07,1.56,0,3.7,1.7,4.53,3.2,1.9,3.45,3.17,7.25,4.99,11.56l-.02-.02Z"/>
    <path d="M124.09,146.55h-34.66c.88-4.1,3.54-5.6,6.85-5.67,7.16-.18,14.35-.39,21.49.14,2.47.18,4.81,2.43,7.19,3.74-.29.59-.59,1.2-.88,1.79h.02Z"/>
    <path d="M238.13,144.74c7.48-7.59,17.37-2.72,26.05-3.9,3.72-.5,7.41.29,8.91,5.42h-34.62c-.11-.5-.25-1.02-.36-1.52h.02Z"/>
    <path d="M192.35,181.4h-8.18v-13.74c5.58-1,8.39,3.67,8.18,13.74Z"/>
    <path d="M169.91,181.33c.59-10.52,2.74-14.15,8.41-13.99v13.99h-8.41Z"/>
    <path d="M155.69,182.51c1.16-8.5,5.19-12.36,11.77-14.92-.97,4.51-1.09,8.86-3.02,12.22-1,1.75-5.15,1.7-8.75,2.7h0Z"/>
    <path d="M206.18,181.33c-7.57.75-7.55.75-9.2-6.33-.48-2.06-1.2-4.08-1.86-6.26,6.57.61,10.79,5.44,11.09,12.58h-.02Z"/>
    <path d="M60.68,217.62c-2.31-3.13-2.86-7.19-1.95-10.97,1.2-4.96,3.49-8.5,7.55-10.56,2.88-1.47,7.14-1.61,10.34-.75,3.85,1.04,5.12,5.01,5.08,8.93-.09,6.51-2.74,12.02-8.55,14.85-2.9,1.43-7.46,1.86-10.2.54-.91-.43-1.65-1.18-2.29-2.04h.02ZM63.54,207.92c-.79,2.61-.09,5.55,2.06,7.23.52.41,1.07.7,1.65.84,4.24.86,9.27-5.46,9.52-11,.16-3.36-1.09-5.67-4.58-5.94-3.24-.25-7.1,3.72-8.68,8.89l.02-.02Z"/>
    <path d="M262.52,204.45c.02,8.59-7.07,16.69-14.74,16.73-5.26.05-9.2-4.4-9.23-10.38,0-8.71,7.12-16.8,14.74-16.69,5.44.07,9.2,4.28,9.23,10.34h0ZM256.9,207.54c.82-2.7,0-5.71-2.27-7.37-.54-.39-1.13-.7-1.75-.79-4.28-.66-9.14,5.35-9.23,10.68-.05,3.02.45,5.89,4.35,6.05,3.51.16,7.35-3.47,8.91-8.59l-.02.02Z"/>
  </g>
  <g class="st0">
    <text class="st1" transform="translate(370.7 268.45)"><tspan x="0" y="0">XPLORERS CREATIVE</tspan></text>
  </g>
</svg>