<?xml version="1.0" encoding="UTF-8"?>
<svg id="Layer_1" xmlns="http://www.w3.org/2000/svg" version="1.1" viewBox="0 0 4000 1685.79">
  <!-- Generator: Adobe Illustrator 29.8.2, SVG Export Plug-In . SVG Version: 2.1.1 Build 3)  -->
  <defs>
    <style>
      .st0 {
        fill: #dceeff;
      }

      .st1 {
        fill: #fff;
      }

      .st2 {
        stroke-width: 6.55px;
      }

      .st2, .st3, .st4 {
        fill: none;
        stroke: #0019ff;
        stroke-linecap: round;
        stroke-linejoin: round;
      }

      .st3 {
        stroke-width: 2.11px;
      }

      .st4 {
        stroke-width: 2.18px;
      }

      .st5 {
        fill: #0019ff;
      }
    </style>
  </defs>
  <rect class="st1" width="4000" height="1685.79"/>
  <path class="st0" d="M3116.46,373.61c-137.77-10.1-169.6,208.48-55.04,225.68,93.67,14.07,231.27-212.77,55.04-225.68Z"/>
  <path class="st0" d="M1215.96,475.73c-66.68,109.01,65.78,366.28,219.88,138.29,109.08-161.39-119.4-302.52-219.88-138.29Z"/>
  <path class="st0" d="M262.79,1449.91c-39.68-174.21-76.01-568.52,196.81-710.29,400.65-208.2,687.28,202.74,932.34,141.08,245.06-61.66,551.95-576.92,960.61-541.14,468.83,41.06,420.1,565.28,787.08,467.78,594.74-158,738.96,337.49,587.31,642.57H262.79Z"/>
  <line class="st2" x1="262.79" y1="1449.91" x2="3724.76" y2="1449.91"/>
  <g>
    <path class="st5" d="M1911.98,827.78c1.67.13,3.47.13,5.02.13,6.56-.39,10.55-3.48,10.55-12.61v-68.47h9.91v67.83c0,16.86-8.37,22.14-19.18,22.4-2.32,0-4.12.13-6.31-.13v-9.14Z"/>
    <path class="st5" d="M1982.64,786.72v9.01h-22.01v32.05h27.03v9.14h-37.07v-90.1h37.07v9.14h-27.03v30.76h22.01Z"/>
    <path class="st5" d="M2021.25,746.82c14.03,0,20.46,8.5,20.46,22.4v45.43c0,13.77-6.44,22.27-20.46,22.27h-21.11v-90.1h21.11ZM2021.12,827.78c7.21,0,10.68-4.5,10.68-12.74v-46.33c0-8.24-3.48-12.74-10.81-12.74h-10.81v71.82h10.94Z"/>
    <path class="st5" d="M2075.44,746.82c14.03,0,20.46,8.5,20.46,22.4v45.43c0,13.77-6.44,22.27-20.46,22.27h-21.11v-90.1h21.11ZM2075.31,827.78c7.21,0,10.68-4.5,10.68-12.74v-46.33c0-8.24-3.48-12.74-10.81-12.74h-10.81v71.82h10.94Z"/>
    <path class="st5" d="M2118.56,818.77l-3.48,18.15h-9.27l17.25-90.1h14.54l17.25,90.1h-10.04l-3.47-18.15h-22.78ZM2119.85,810.15h20.08l-10.17-52-9.91,52Z"/>
    <path class="st5" d="M2175.97,796.37v40.54h-10.04v-90.1h10.04v40.54h22.14v-40.54h10.04v90.1h-10.04v-40.54h-22.14Z"/>
  </g>
  <g>
    <path class="st1" d="M347.53,1281.99c-15.21,0-27.53,12.33-27.53,27.53h55.07c0-15.21-12.33-27.53-27.53-27.53Z"/>
    <path class="st1" d="M402.6,1281.99c-15.21,0-27.53,12.33-27.53,27.53h55.07c0-15.21-12.32-27.53-27.53-27.53Z"/>
    <path class="st1" d="M343.35,1321.75c-6.17,11.35-1.96,25.55,9.39,31.71l22.32-41.11c-11.35-6.17-25.55-1.96-31.71,9.39Z"/>
    <path class="st1" d="M406.77,1321.75c6.16,11.35,1.96,25.55-9.39,31.71l-22.32-41.11c11.35-6.17,25.55-1.96,31.71,9.39Z"/>
    <path class="st2" d="M347.53,1281.99c-15.21,0-27.53,12.33-27.53,27.53h55.07c0-15.21-12.33-27.53-27.53-27.53Z"/>
    <path class="st2" d="M402.6,1281.99c-15.21,0-27.53,12.33-27.53,27.53h55.07c0-15.21-12.32-27.53-27.53-27.53Z"/>
    <path class="st2" d="M343.35,1321.75c-6.17,11.35-1.96,25.55,9.39,31.71l22.32-41.11c-11.35-6.17-25.55-1.96-31.71,9.39Z"/>
    <path class="st2" d="M406.77,1321.75c6.16,11.35,1.96,25.55-9.39,31.71l-22.32-41.11c11.35-6.17,25.55-1.96,31.71,9.39Z"/>
    <line class="st4" x1="375.06" y1="1449.91" x2="375.06" y2="1310.89"/>
  </g>
  <g>
    <g>
      <line class="st2" x1="2139.19" y1="569.6" x2="2139.19" y2="592.74"/>
      <line class="st2" x1="2150.76" y1="581.17" x2="2127.62" y2="581.17"/>
    </g>
    <g>
      <line class="st2" x1="2036.59" y1="1038.65" x2="2036.59" y2="1057.84"/>
      <line class="st2" x1="2046.18" y1="1048.24" x2="2026.99" y2="1048.24"/>
    </g>
    <g>
      <line class="st2" x1="3515.8" y1="1057.97" x2="3515.8" y2="1081.12"/>
      <line class="st2" x1="3527.37" y1="1069.55" x2="3504.23" y2="1069.55"/>
    </g>
    <g>
      <line class="st2" x1="441.76" y1="989.57" x2="441.76" y2="1012.71"/>
      <line class="st2" x1="453.33" y1="1001.14" x2="430.19" y2="1001.14"/>
    </g>
    <g>
      <line class="st2" x1="811.24" y1="855.35" x2="811.24" y2="889.86"/>
      <line class="st2" x1="828.5" y1="872.6" x2="793.98" y2="872.6"/>
    </g>
    <g>
      <line class="st2" x1="2352.17" y1="672.4" x2="2352.17" y2="706.91"/>
      <line class="st2" x1="2369.42" y1="689.65" x2="2334.91" y2="689.65"/>
    </g>
    <g>
      <line class="st2" x1="3186.55" y1="884.97" x2="3186.55" y2="919.49"/>
      <line class="st2" x1="3203.81" y1="902.23" x2="3169.29" y2="902.23"/>
    </g>
  </g>
  <g>
    <path class="st1" d="M829.65,1139.43c-15.21,0-27.53,12.33-27.53,27.53h55.07c0-15.21-12.33-27.53-27.53-27.53Z"/>
    <path class="st1" d="M884.71,1139.43c-15.21,0-27.53,12.33-27.53,27.53h55.07c0-15.21-12.32-27.53-27.53-27.53Z"/>
    <path class="st1" d="M825.47,1179.2c-6.17,11.35-1.96,25.55,9.39,31.71l22.32-41.11c-11.35-6.17-25.55-1.96-31.71,9.39Z"/>
    <path class="st1" d="M888.89,1179.2c6.16,11.35,1.96,25.55-9.39,31.71l-22.32-41.11c11.35-6.17,25.55-1.96,31.71,9.39Z"/>
    <path class="st2" d="M829.65,1139.43c-15.21,0-27.53,12.33-27.53,27.53h55.07c0-15.21-12.33-27.53-27.53-27.53Z"/>
    <path class="st2" d="M884.71,1139.43c-15.21,0-27.53,12.33-27.53,27.53h55.07c0-15.21-12.32-27.53-27.53-27.53Z"/>
    <path class="st2" d="M825.47,1179.2c-6.17,11.35-1.96,25.55,9.39,31.71l22.32-41.11c-11.35-6.17-25.55-1.96-31.71,9.39Z"/>
    <path class="st2" d="M888.89,1179.2c6.16,11.35,1.96,25.55-9.39,31.71l-22.32-41.11c11.35-6.17,25.55-1.96,31.71,9.39Z"/>
    <line class="st4" x1="857.18" y1="1449.91" x2="857.18" y2="1168.33"/>
  </g>
  <g>
    <path class="st1" d="M3124.47,1052.77c-15.21,0-27.53,12.33-27.53,27.53h55.07c0-15.21-12.33-27.53-27.53-27.53Z"/>
    <path class="st1" d="M3179.54,1052.77c-15.21,0-27.53,12.33-27.53,27.53h55.07c0-15.21-12.32-27.53-27.53-27.53Z"/>
    <path class="st1" d="M3120.29,1092.53c-6.17,11.35-1.96,25.55,9.39,31.71l22.32-41.11c-11.35-6.17-25.55-1.96-31.71,9.39Z"/>
    <path class="st1" d="M3183.71,1092.53c6.16,11.35,1.96,25.55-9.39,31.71l-22.32-41.11c11.35-6.17,25.55-1.96,31.71,9.39Z"/>
    <path class="st2" d="M3124.47,1052.77c-15.21,0-27.53,12.33-27.53,27.53h55.07c0-15.21-12.33-27.53-27.53-27.53Z"/>
    <path class="st2" d="M3179.54,1052.77c-15.21,0-27.53,12.33-27.53,27.53h55.07c0-15.21-12.32-27.53-27.53-27.53Z"/>
    <path class="st2" d="M3120.29,1092.53c-6.17,11.35-1.96,25.55,9.39,31.71l22.32-41.11c-11.35-6.17-25.55-1.96-31.71,9.39Z"/>
    <path class="st2" d="M3183.71,1092.53c6.16,11.35,1.96,25.55-9.39,31.71l-22.32-41.11c11.35-6.17,25.55-1.96,31.71,9.39Z"/>
    <line class="st4" x1="3152" y1="1449.91" x2="3152" y2="1081.67"/>
  </g>
  <g>
    <rect class="st1" x="959.05" y="975.91" width="174" height="474"/>
    <rect class="st2" x="959.05" y="975.91" width="174" height="474"/>
    <rect class="st4" x="1021.21" y="1077.6" width="49.67" height="89.04"/>
    <rect class="st4" x="1021.21" y="1268.93" width="49.67" height="89.04"/>
    <rect class="st4" x="1021.21" y="1436.58" width="49.67" height="13.33"/>
    <line class="st4" x1="1026.71" y1="1089.24" x2="1036.05" y2="1089.24"/>
    <line class="st4" x1="1031.38" y1="1084.58" x2="1031.38" y2="1093.91"/>
    <line class="st4" x1="1041.38" y1="1089.24" x2="1050.71" y2="1089.24"/>
    <line class="st4" x1="1046.05" y1="1084.58" x2="1046.05" y2="1093.91"/>
    <line class="st4" x1="1056.05" y1="1089.24" x2="1065.38" y2="1089.24"/>
    <line class="st4" x1="1060.72" y1="1084.58" x2="1060.72" y2="1093.91"/>
    <line class="st4" x1="1026.71" y1="1105.58" x2="1036.05" y2="1105.58"/>
    <line class="st4" x1="1031.38" y1="1100.91" x2="1031.38" y2="1110.24"/>
    <line class="st4" x1="1041.38" y1="1105.58" x2="1050.71" y2="1105.58"/>
    <line class="st4" x1="1046.05" y1="1100.91" x2="1046.05" y2="1110.24"/>
    <line class="st4" x1="1056.05" y1="1105.58" x2="1065.38" y2="1105.58"/>
    <line class="st4" x1="1060.72" y1="1100.91" x2="1060.72" y2="1110.24"/>
    <line class="st4" x1="1026.71" y1="1121.91" x2="1036.05" y2="1121.91"/>
    <line class="st4" x1="1031.38" y1="1117.24" x2="1031.38" y2="1126.58"/>
    <line class="st4" x1="1041.38" y1="1121.91" x2="1050.71" y2="1121.91"/>
    <line class="st4" x1="1046.05" y1="1117.24" x2="1046.05" y2="1126.58"/>
    <line class="st4" x1="1056.05" y1="1121.91" x2="1065.38" y2="1121.91"/>
    <line class="st4" x1="1060.72" y1="1117.24" x2="1060.72" y2="1126.58"/>
    <line class="st4" x1="1026.71" y1="1138.24" x2="1036.05" y2="1138.24"/>
    <line class="st4" x1="1031.38" y1="1133.58" x2="1031.38" y2="1142.91"/>
    <line class="st4" x1="1041.38" y1="1138.24" x2="1050.71" y2="1138.24"/>
    <line class="st4" x1="1046.05" y1="1133.58" x2="1046.05" y2="1142.91"/>
    <line class="st4" x1="1056.05" y1="1138.24" x2="1065.38" y2="1138.24"/>
    <line class="st4" x1="1060.72" y1="1133.58" x2="1060.72" y2="1142.91"/>
    <line class="st4" x1="1026.71" y1="1154.58" x2="1036.05" y2="1154.58"/>
    <line class="st4" x1="1031.38" y1="1149.91" x2="1031.38" y2="1159.24"/>
    <line class="st4" x1="1041.38" y1="1154.58" x2="1050.71" y2="1154.58"/>
    <line class="st4" x1="1046.05" y1="1149.91" x2="1046.05" y2="1159.24"/>
    <line class="st4" x1="1056.05" y1="1154.58" x2="1065.38" y2="1154.58"/>
    <line class="st4" x1="1060.72" y1="1149.91" x2="1060.72" y2="1159.24"/>
    <line class="st4" x1="1026.71" y1="1280.79" x2="1036.05" y2="1280.79"/>
    <line class="st4" x1="1031.38" y1="1276.12" x2="1031.38" y2="1285.45"/>
    <line class="st4" x1="1041.38" y1="1280.79" x2="1050.71" y2="1280.79"/>
    <line class="st4" x1="1046.05" y1="1276.12" x2="1046.05" y2="1285.45"/>
    <line class="st4" x1="1056.05" y1="1280.79" x2="1065.38" y2="1280.79"/>
    <line class="st4" x1="1060.72" y1="1276.12" x2="1060.72" y2="1285.45"/>
    <line class="st4" x1="1026.71" y1="1297.12" x2="1036.05" y2="1297.12"/>
    <line class="st4" x1="1031.38" y1="1292.45" x2="1031.38" y2="1301.79"/>
    <line class="st4" x1="1041.38" y1="1297.12" x2="1050.71" y2="1297.12"/>
    <line class="st4" x1="1046.05" y1="1292.45" x2="1046.05" y2="1301.79"/>
    <line class="st4" x1="1056.05" y1="1297.12" x2="1065.38" y2="1297.12"/>
    <line class="st4" x1="1060.72" y1="1292.45" x2="1060.72" y2="1301.79"/>
    <line class="st4" x1="1026.71" y1="1313.45" x2="1036.05" y2="1313.45"/>
    <line class="st4" x1="1031.38" y1="1308.79" x2="1031.38" y2="1318.12"/>
    <line class="st4" x1="1041.38" y1="1313.45" x2="1050.71" y2="1313.45"/>
    <line class="st4" x1="1046.05" y1="1308.79" x2="1046.05" y2="1318.12"/>
    <line class="st4" x1="1056.05" y1="1313.45" x2="1065.38" y2="1313.45"/>
    <line class="st4" x1="1060.72" y1="1308.79" x2="1060.72" y2="1318.12"/>
    <line class="st4" x1="1026.71" y1="1329.79" x2="1036.05" y2="1329.79"/>
    <line class="st4" x1="1031.38" y1="1325.12" x2="1031.38" y2="1334.45"/>
    <line class="st4" x1="1041.38" y1="1329.79" x2="1050.71" y2="1329.79"/>
    <line class="st4" x1="1046.05" y1="1325.12" x2="1046.05" y2="1334.45"/>
    <line class="st4" x1="1056.05" y1="1329.79" x2="1065.38" y2="1329.79"/>
    <line class="st4" x1="1060.72" y1="1325.12" x2="1060.72" y2="1334.45"/>
    <line class="st4" x1="1026.71" y1="1346.12" x2="1036.05" y2="1346.12"/>
    <line class="st4" x1="1031.38" y1="1341.45" x2="1031.38" y2="1350.79"/>
    <line class="st4" x1="1041.38" y1="1346.12" x2="1050.71" y2="1346.12"/>
    <line class="st4" x1="1046.05" y1="1341.45" x2="1046.05" y2="1350.79"/>
    <line class="st4" x1="1056.05" y1="1346.12" x2="1065.38" y2="1346.12"/>
    <line class="st4" x1="1060.72" y1="1341.45" x2="1060.72" y2="1350.79"/>
    <line class="st4" x1="968.05" y1="1037.24" x2="968.05" y2="1048.24"/>
    <line class="st4" x1="976.71" y1="1037.24" x2="976.71" y2="1048.24"/>
    <line class="st4" x1="985.38" y1="1037.24" x2="985.38" y2="1048.24"/>
    <line class="st4" x1="994.05" y1="1037.24" x2="994.05" y2="1048.24"/>
    <line class="st4" x1="1002.71" y1="1037.24" x2="1002.71" y2="1048.24"/>
    <line class="st4" x1="1011.38" y1="1037.24" x2="1011.38" y2="1048.24"/>
    <line class="st4" x1="1020.05" y1="1037.24" x2="1020.05" y2="1048.24"/>
    <line class="st4" x1="1028.71" y1="1037.24" x2="1028.71" y2="1048.24"/>
    <line class="st4" x1="1037.38" y1="1037.24" x2="1037.38" y2="1048.24"/>
    <line class="st4" x1="1046.05" y1="1037.24" x2="1046.05" y2="1048.24"/>
    <line class="st4" x1="1054.71" y1="1037.24" x2="1054.71" y2="1048.24"/>
    <line class="st4" x1="1063.38" y1="1037.24" x2="1063.38" y2="1048.24"/>
    <line class="st4" x1="1072.05" y1="1037.24" x2="1072.05" y2="1048.24"/>
    <line class="st4" x1="1080.71" y1="1037.24" x2="1080.71" y2="1048.24"/>
    <line class="st4" x1="1089.38" y1="1037.24" x2="1089.38" y2="1048.24"/>
    <line class="st4" x1="1098.05" y1="1037.24" x2="1098.05" y2="1048.24"/>
    <line class="st4" x1="1106.71" y1="1037.24" x2="1106.71" y2="1048.24"/>
    <line class="st4" x1="1115.38" y1="1037.24" x2="1115.38" y2="1048.24"/>
    <line class="st4" x1="1124.05" y1="1037.24" x2="1124.05" y2="1048.24"/>
  </g>
  <g>
    <path class="st1" d="M686.37,1384.01c62.41-37.1,90.39-115.06,62.71-184.67-30.68-77.14-118.08-114.8-195.21-84.12-77.14,30.68-114.8,118.08-84.12,195.21,22.13,55.65,73.8,90.75,129.83,94.47l-1.39.33v44.68h117.03l-28.83-65.9h-.01Z"/>
    <circle class="st2" cx="609.41" cy="1254.88" r="150.31" transform="translate(-708.85 798.46) rotate(-45)"/>
    <path class="st3" d="M664.95,1394.55"/>
    <line class="st3" x1="664.95" y1="1394.55" x2="553.86" y2="1115.22"/>
    <path class="st3" d="M553.86,1115.22"/>
    <path class="st3" d="M553.86,1115.22s66.44,25.06,104.3,120.27"/>
    <path class="st3" d="M553.86,1115.22s130.51-26.25,177.25,91.26"/>
    <path class="st3" d="M703.23,1217.57c-41.53-104.43-149.37-102.35-149.37-102.35"/>
    <path class="st3" d="M664.95,1394.55s31.08-63.84-6.79-159.06"/>
    <path class="st3" d="M664.95,1394.55s112.89-70.55,66.16-188.07"/>
    <path class="st3" d="M703.23,1217.57c41.53,104.43-38.28,176.98-38.28,176.98"/>
    <path class="st3" d="M553.86,1115.22s-31.08,63.84,6.79,159.06"/>
    <path class="st3" d="M553.86,1115.22s-112.89,70.55-66.16,188.07"/>
    <path class="st3" d="M515.58,1292.2c-41.53-104.43,38.28-176.98,38.28-176.98"/>
    <path class="st3" d="M664.95,1394.55s-66.44-25.06-104.3-120.27"/>
    <path class="st3" d="M664.95,1394.55s-130.51,26.25-177.25-91.27"/>
    <path class="st3" d="M515.58,1292.2c41.53,104.43,149.37,102.35,149.37,102.35"/>
    <line class="st3" x1="469.74" y1="1310.43" x2="749.07" y2="1199.34"/>
    <line class="st3" x1="460.66" y1="1233.16" x2="702.61" y2="1136.94"/>
    <line class="st3" x1="482.37" y1="1174.54" x2="646.58" y2="1109.24"/>
    <line class="st3" x1="758.16" y1="1276.6" x2="516.2" y2="1372.83"/>
    <line class="st3" x1="736.44" y1="1335.23" x2="572.24" y2="1400.53"/>
    <polyline class="st2" points="598.18 1405.23 598.18 1449.91 715.21 1449.91 686.38 1384.01"/>
  </g>
  <g>
    <path class="st1" d="M1150.85,1420.41c-11.03-5.02-282.49-68.5-387.53-92.97h0c14.34-5.9,23.15-9.53,23.15-9.53l46.16-14.83-16.83-7.5s-10.83,6.17-22.17,6.67c-11.33.5-30.01-.93-39.23,10.67-9.21-11.6-27.89-10.17-39.23-10.67-11.33-.5-22.17-6.67-22.17-6.67l-16.83,7.5,46.16,14.83s8.82,3.63,23.15,9.53c-105.04,24.47-376.5,87.95-387.53,92.97-16.5,7.5-12.5,29.5-12.5,29.5h177.5s-2.5-20.5,11.5-27.5c7-3.5,153.63-60.98,219.94-88.3,66.31,27.32,212.94,84.8,219.94,88.3,14,7,11.5,27.5,11.5,27.5h177.5s4-22-12.5-29.5Z"/>
    <path class="st4" d="M999.06,1435.91c-1.97-9.84-7.16-20.37-18.45-26.02-3.9-1.95-45.16-19.13-93.41-39.11,126.69,29.77,246.66,58.41,258.06,62.47,1.2.6,2.09,1.54,2.75,2.65h-148.96Z"/>
    <path class="st4" d="M509.76,1435.91c1.97-9.84,7.16-20.37,18.45-26.02,3.9-1.95,45.16-19.13,93.41-39.11-126.69,29.77-246.66,58.41-258.06,62.47-1.2.6-2.09,1.54-2.75,2.65h148.96Z"/>
    <path class="st2" d="M1150.85,1420.41c-11.03-5.02-282.49-68.5-387.53-92.97h0c14.34-5.9,23.15-9.53,23.15-9.53l46.16-14.83-16.83-7.5s-10.83,6.17-22.17,6.67c-11.33.5-30.01-.93-39.23,10.67-9.21-11.6-27.89-10.17-39.23-10.67-11.33-.5-22.17-6.67-22.17-6.67l-16.83,7.5,46.16,14.83s8.82,3.63,23.15,9.53c-105.04,24.47-376.5,87.95-387.53,92.97-16.5,7.5-12.5,29.5-12.5,29.5h177.5s-2.5-20.5,11.5-27.5c7-3.5,153.63-60.98,219.94-88.3,66.31,27.32,212.94,84.8,219.94,88.3,14,7,11.5,27.5,11.5,27.5h177.5s4-22-12.5-29.5Z"/>
  </g>
  <g>
    <path class="st1" d="M2934.27,1334.91v-22h9l-86.33-433.14h0s0-200.52,0-200.52l22.67-16.67h-76l22.67,16.67v24.67l-90-53v662h22.5v22h-22.5l-17,25,17,90h368l23-115h-193Z"/>
    <rect class="st4" x="2788.59" y="725.91" width="22.67" height="587"/>
    <polyline class="st4" points="2856.93 879.77 2826.27 725.91 2770.27 725.91 2770.27 748.91 2736.27 748.91"/>
    <line class="st4" x1="2758.77" y1="1312.91" x2="2934.27" y2="1312.91"/>
    <line class="st4" x1="2826.27" y1="725.91" x2="2826.27" y2="703.91"/>
    <line class="st4" x1="2826.27" y1="679.24" x2="2856.93" y2="679.24"/>
    <line class="st4" x1="2770.27" y1="725.91" x2="2770.27" y2="670.93"/>
    <line class="st4" x1="2761.6" y1="748.24" x2="2761.6" y2="665.83"/>
    <line class="st4" x1="2752.93" y1="748.24" x2="2752.93" y2="660.73"/>
    <line class="st4" x1="2744.27" y1="748.24" x2="2744.27" y2="656.66"/>
    <path class="st4" d="M2758.77,1334.91s81,20,175.5,0"/>
    <line class="st4" x1="2736.27" y1="1334.91" x2="2736.27" y2="1449.91"/>
    <rect class="st4" x="2751.77" y="1353.91" width="9.25" height="9.25"/>
    <rect class="st4" x="2751.77" y="1372.66" width="9.25" height="9.25"/>
    <rect class="st4" x="2751.77" y="1391.41" width="9.25" height="9.25"/>
    <rect class="st4" x="2751.77" y="1410.16" width="9.25" height="9.25"/>
    <rect class="st4" x="2751.77" y="1428.91" width="9.25" height="9.25"/>
    <rect class="st4" x="2779.34" y="1353.91" width="9.25" height="9.25"/>
    <rect class="st4" x="2779.34" y="1372.66" width="9.25" height="9.25"/>
    <rect class="st4" x="2779.34" y="1391.41" width="9.25" height="9.25"/>
    <rect class="st4" x="2779.34" y="1410.16" width="9.25" height="9.25"/>
    <rect class="st4" x="2779.34" y="1428.91" width="9.25" height="9.25"/>
    <rect class="st4" x="2806.91" y="1353.91" width="9.25" height="9.25"/>
    <rect class="st4" x="2806.91" y="1372.66" width="9.25" height="9.25"/>
    <rect class="st4" x="2806.91" y="1391.41" width="9.25" height="9.25"/>
    <rect class="st4" x="2806.91" y="1410.16" width="9.25" height="9.25"/>
    <rect class="st4" x="2806.91" y="1428.91" width="9.25" height="9.25"/>
    <rect class="st4" x="2834.48" y="1353.91" width="9.25" height="9.25"/>
    <rect class="st4" x="2834.48" y="1372.66" width="9.25" height="9.25"/>
    <rect class="st4" x="2834.48" y="1391.41" width="9.25" height="9.25"/>
    <rect class="st4" x="2834.48" y="1410.16" width="9.25" height="9.25"/>
    <rect class="st4" x="2834.48" y="1428.91" width="9.25" height="9.25"/>
    <rect class="st4" x="2862.05" y="1353.91" width="9.25" height="9.25"/>
    <rect class="st4" x="2862.05" y="1372.66" width="9.25" height="9.25"/>
    <rect class="st4" x="2862.05" y="1391.41" width="9.25" height="9.25"/>
    <rect class="st4" x="2862.05" y="1410.16" width="9.25" height="9.25"/>
    <rect class="st4" x="2862.05" y="1428.91" width="9.25" height="9.25"/>
    <rect class="st4" x="2889.62" y="1353.91" width="9.25" height="9.25"/>
    <rect class="st4" x="2889.62" y="1372.66" width="9.25" height="9.25"/>
    <rect class="st4" x="2889.62" y="1391.41" width="9.25" height="9.25"/>
    <rect class="st4" x="2889.62" y="1410.16" width="9.25" height="9.25"/>
    <rect class="st4" x="2889.62" y="1428.91" width="9.25" height="9.25"/>
    <rect class="st4" x="2917.2" y="1353.91" width="9.25" height="9.25"/>
    <rect class="st4" x="2917.2" y="1372.66" width="9.25" height="9.25"/>
    <rect class="st4" x="2917.2" y="1391.41" width="9.25" height="9.25"/>
    <rect class="st4" x="2917.2" y="1410.16" width="9.25" height="9.25"/>
    <rect class="st4" x="2917.2" y="1428.91" width="9.25" height="9.25"/>
    <rect class="st4" x="2944.77" y="1353.91" width="9.25" height="9.25"/>
    <rect class="st4" x="2944.77" y="1372.66" width="9.25" height="9.25"/>
    <rect class="st4" x="2944.77" y="1391.41" width="9.25" height="9.25"/>
    <rect class="st4" x="2944.77" y="1410.16" width="9.25" height="9.25"/>
    <rect class="st4" x="2944.77" y="1428.91" width="9.25" height="9.25"/>
    <rect class="st4" x="2991.02" y="1353.91" width="9.25" height="9.25"/>
    <rect class="st4" x="2991.02" y="1372.66" width="9.25" height="9.25"/>
    <rect class="st4" x="2991.02" y="1391.41" width="9.25" height="9.25"/>
    <rect class="st4" x="2991.02" y="1410.16" width="9.25" height="9.25"/>
    <rect class="st4" x="2991.02" y="1428.91" width="9.25" height="9.25"/>
    <rect class="st4" x="3018.59" y="1353.91" width="9.25" height="9.25"/>
    <rect class="st4" x="3018.59" y="1372.66" width="9.25" height="9.25"/>
    <rect class="st4" x="3018.59" y="1391.41" width="9.25" height="9.25"/>
    <rect class="st4" x="3018.59" y="1410.16" width="9.25" height="9.25"/>
    <rect class="st4" x="3018.59" y="1428.91" width="9.25" height="9.25"/>
    <rect class="st4" x="3046.16" y="1353.91" width="9.25" height="9.25"/>
    <rect class="st4" x="3046.16" y="1372.66" width="9.25" height="9.25"/>
    <rect class="st4" x="3046.16" y="1391.41" width="9.25" height="9.25"/>
    <rect class="st4" x="3046.16" y="1410.16" width="9.25" height="9.25"/>
    <rect class="st4" x="3046.16" y="1428.91" width="9.25" height="9.25"/>
    <rect class="st4" x="3073.73" y="1353.91" width="9.25" height="9.25"/>
    <rect class="st4" x="3073.73" y="1372.66" width="9.25" height="9.25"/>
    <rect class="st4" x="3073.73" y="1391.41" width="9.25" height="9.25"/>
    <rect class="st4" x="3073.73" y="1410.16" width="9.25" height="9.25"/>
    <rect class="st4" x="3073.73" y="1428.91" width="9.25" height="9.25"/>
    <polyline class="st4" points="2776.77 1338.37 2776.77 1312.91 2791.23 1340.42"/>
    <polyline class="st4" points="2803.5 1341.76 2803.5 1312.91 2819.31 1342.98"/>
    <polyline class="st4" points="2830.24 1343.5 2830.24 1312.91 2846.47 1343.8"/>
    <polyline class="st4" points="2856.97 1343.68 2856.97 1312.91 2872.81 1343.05"/>
    <polyline class="st4" points="2883.7 1342.28 2883.7 1312.91 2898.36 1340.8"/>
    <polyline class="st4" points="2910.43 1339.19 2910.43 1312.91 2923.16 1337.13"/>
    <line class="st4" x1="2746.77" y1="1303.48" x2="2757.27" y2="1303.48"/>
    <line class="st4" x1="2767.27" y1="1303.48" x2="2777.77" y2="1303.48"/>
    <line class="st4" x1="2746.77" y1="1286.91" x2="2757.27" y2="1286.91"/>
    <line class="st4" x1="2767.27" y1="1286.91" x2="2777.77" y2="1286.91"/>
    <line class="st4" x1="2746.77" y1="1270.34" x2="2757.27" y2="1270.34"/>
    <line class="st4" x1="2767.27" y1="1270.34" x2="2777.77" y2="1270.34"/>
    <line class="st4" x1="2746.77" y1="1253.77" x2="2757.27" y2="1253.77"/>
    <line class="st4" x1="2767.27" y1="1253.77" x2="2777.77" y2="1253.77"/>
    <line class="st4" x1="2746.77" y1="1237.19" x2="2757.27" y2="1237.19"/>
    <line class="st4" x1="2767.27" y1="1237.19" x2="2777.77" y2="1237.19"/>
    <line class="st4" x1="2746.77" y1="1220.62" x2="2757.27" y2="1220.62"/>
    <line class="st4" x1="2767.27" y1="1220.62" x2="2777.77" y2="1220.62"/>
    <line class="st4" x1="2746.77" y1="1204.05" x2="2757.27" y2="1204.05"/>
    <line class="st4" x1="2767.27" y1="1204.05" x2="2777.77" y2="1204.05"/>
    <line class="st4" x1="2746.77" y1="1187.48" x2="2757.27" y2="1187.48"/>
    <line class="st4" x1="2767.27" y1="1187.48" x2="2777.77" y2="1187.48"/>
    <line class="st4" x1="2746.77" y1="1170.91" x2="2757.27" y2="1170.91"/>
    <line class="st4" x1="2767.27" y1="1170.91" x2="2777.77" y2="1170.91"/>
    <line class="st4" x1="2746.77" y1="1154.33" x2="2757.27" y2="1154.33"/>
    <line class="st4" x1="2767.27" y1="1154.33" x2="2777.77" y2="1154.33"/>
    <line class="st4" x1="2746.77" y1="1137.76" x2="2757.27" y2="1137.76"/>
    <line class="st4" x1="2767.27" y1="1137.76" x2="2777.77" y2="1137.76"/>
    <line class="st4" x1="2746.77" y1="1121.19" x2="2757.27" y2="1121.19"/>
    <line class="st4" x1="2767.27" y1="1121.19" x2="2777.77" y2="1121.19"/>
    <line class="st4" x1="2746.77" y1="1104.62" x2="2757.27" y2="1104.62"/>
    <line class="st4" x1="2767.27" y1="1104.62" x2="2777.77" y2="1104.62"/>
    <line class="st4" x1="2746.77" y1="1088.04" x2="2757.27" y2="1088.04"/>
    <line class="st4" x1="2767.27" y1="1088.04" x2="2777.77" y2="1088.04"/>
    <line class="st4" x1="2746.77" y1="1071.47" x2="2757.27" y2="1071.47"/>
    <line class="st4" x1="2767.27" y1="1071.47" x2="2777.77" y2="1071.47"/>
    <line class="st4" x1="2746.77" y1="1054.9" x2="2757.27" y2="1054.9"/>
    <line class="st4" x1="2767.27" y1="1054.9" x2="2777.77" y2="1054.9"/>
    <line class="st4" x1="2746.77" y1="1038.33" x2="2757.27" y2="1038.33"/>
    <line class="st4" x1="2767.27" y1="1038.33" x2="2777.77" y2="1038.33"/>
    <line class="st4" x1="2746.77" y1="1021.75" x2="2757.27" y2="1021.75"/>
    <line class="st4" x1="2767.27" y1="1021.75" x2="2777.77" y2="1021.75"/>
    <line class="st4" x1="2746.77" y1="1005.18" x2="2757.27" y2="1005.18"/>
    <line class="st4" x1="2767.27" y1="1005.18" x2="2777.77" y2="1005.18"/>
    <line class="st4" x1="2746.77" y1="988.61" x2="2757.27" y2="988.61"/>
    <line class="st4" x1="2767.27" y1="988.61" x2="2777.77" y2="988.61"/>
    <line class="st4" x1="2746.77" y1="972.04" x2="2757.27" y2="972.04"/>
    <line class="st4" x1="2767.27" y1="972.04" x2="2777.77" y2="972.04"/>
    <line class="st4" x1="2746.77" y1="955.47" x2="2757.27" y2="955.47"/>
    <line class="st4" x1="2767.27" y1="955.47" x2="2777.77" y2="955.47"/>
    <line class="st4" x1="2746.77" y1="938.89" x2="2757.27" y2="938.89"/>
    <line class="st4" x1="2767.27" y1="938.89" x2="2777.77" y2="938.89"/>
    <line class="st4" x1="2746.77" y1="922.32" x2="2757.27" y2="922.32"/>
    <line class="st4" x1="2767.27" y1="922.32" x2="2777.77" y2="922.32"/>
    <line class="st4" x1="2746.77" y1="905.75" x2="2757.27" y2="905.75"/>
    <line class="st4" x1="2767.27" y1="905.75" x2="2777.77" y2="905.75"/>
    <line class="st4" x1="2746.77" y1="889.18" x2="2757.27" y2="889.18"/>
    <line class="st4" x1="2767.27" y1="889.18" x2="2777.77" y2="889.18"/>
    <line class="st4" x1="2746.77" y1="872.6" x2="2757.27" y2="872.6"/>
    <line class="st4" x1="2767.27" y1="872.6" x2="2777.77" y2="872.6"/>
    <line class="st4" x1="2746.77" y1="856.03" x2="2757.27" y2="856.03"/>
    <line class="st4" x1="2767.27" y1="856.03" x2="2777.77" y2="856.03"/>
    <line class="st4" x1="2746.77" y1="839.46" x2="2757.27" y2="839.46"/>
    <line class="st4" x1="2767.27" y1="839.46" x2="2777.77" y2="839.46"/>
    <line class="st4" x1="2746.77" y1="822.89" x2="2757.27" y2="822.89"/>
    <line class="st4" x1="2767.27" y1="822.89" x2="2777.77" y2="822.89"/>
    <line class="st4" x1="2746.77" y1="806.31" x2="2757.27" y2="806.31"/>
    <line class="st4" x1="2767.27" y1="806.31" x2="2777.77" y2="806.31"/>
    <line class="st4" x1="2746.77" y1="789.74" x2="2757.27" y2="789.74"/>
    <line class="st4" x1="2767.27" y1="789.74" x2="2777.77" y2="789.74"/>
    <line class="st4" x1="2746.77" y1="773.17" x2="2757.27" y2="773.17"/>
    <line class="st4" x1="2767.27" y1="773.17" x2="2777.77" y2="773.17"/>
    <line class="st4" x1="2746.77" y1="756.6" x2="2757.27" y2="756.6"/>
    <line class="st4" x1="2767.27" y1="756.6" x2="2777.77" y2="756.6"/>
    <line class="st4" x1="2811.41" y1="1303.48" x2="2941.39" y2="1303.48"/>
    <line class="st4" x1="2811.41" y1="1286.91" x2="2938.08" y2="1286.91"/>
    <line class="st4" x1="2811.41" y1="1270.34" x2="2934.78" y2="1270.34"/>
    <line class="st4" x1="2811.41" y1="1253.77" x2="2931.48" y2="1253.77"/>
    <line class="st4" x1="2811.41" y1="1237.19" x2="2928.18" y2="1237.19"/>
    <line class="st4" x1="2811.41" y1="1220.62" x2="2924.87" y2="1220.62"/>
    <line class="st4" x1="2811.41" y1="1204.05" x2="2921.57" y2="1204.05"/>
    <line class="st4" x1="2811.41" y1="1187.48" x2="2918.27" y2="1187.48"/>
    <line class="st4" x1="2811.41" y1="1170.91" x2="2914.96" y2="1170.91"/>
    <line class="st4" x1="2811.41" y1="1154.33" x2="2911.66" y2="1154.33"/>
    <line class="st4" x1="2811.41" y1="1137.76" x2="2908.36" y2="1137.76"/>
    <line class="st4" x1="2811.41" y1="1121.19" x2="2905.05" y2="1121.19"/>
    <line class="st4" x1="2811.41" y1="1104.62" x2="2901.75" y2="1104.62"/>
    <line class="st4" x1="2811.41" y1="1088.04" x2="2898.45" y2="1088.04"/>
    <line class="st4" x1="2811.41" y1="1071.47" x2="2895.14" y2="1071.47"/>
    <line class="st4" x1="2811.41" y1="1054.9" x2="2891.84" y2="1054.9"/>
    <line class="st4" x1="2811.41" y1="1038.33" x2="2888.54" y2="1038.33"/>
    <line class="st4" x1="2811.41" y1="1021.75" x2="2885.23" y2="1021.75"/>
    <line class="st4" x1="2811.41" y1="1005.18" x2="2881.93" y2="1005.18"/>
    <line class="st4" x1="2811.41" y1="988.61" x2="2878.63" y2="988.61"/>
    <line class="st4" x1="2811.41" y1="972.04" x2="2875.32" y2="972.04"/>
    <line class="st4" x1="2811.41" y1="955.47" x2="2872.02" y2="955.47"/>
    <line class="st4" x1="2811.41" y1="938.89" x2="2868.72" y2="938.89"/>
    <line class="st4" x1="2811.41" y1="922.32" x2="2865.42" y2="922.32"/>
    <line class="st4" x1="2811.41" y1="905.75" x2="2862.11" y2="905.75"/>
    <line class="st4" x1="2811.41" y1="889.18" x2="2858.81" y2="889.18"/>
    <line class="st4" x1="2811.41" y1="872.6" x2="2855.51" y2="872.6"/>
    <line class="st4" x1="2811.41" y1="856.03" x2="2852.2" y2="856.03"/>
    <line class="st4" x1="2811.41" y1="839.46" x2="2848.9" y2="839.46"/>
    <line class="st4" x1="2811.41" y1="822.89" x2="2845.6" y2="822.89"/>
    <line class="st4" x1="2811.41" y1="806.31" x2="2842.29" y2="806.31"/>
    <line class="st4" x1="2811.41" y1="789.74" x2="2838.99" y2="789.74"/>
    <line class="st4" x1="2811.41" y1="773.17" x2="2835.69" y2="773.17"/>
    <line class="st4" x1="2811.41" y1="756.6" x2="2832.38" y2="756.6"/>
    <line class="st4" x1="2811.41" y1="740.03" x2="2829.08" y2="740.03"/>
    <path class="st2" d="M2934.27,1334.91v-22h9l-86.33-433.14h0s0-200.52,0-200.52l22.67-16.67h-76l22.67,16.67v24.67l-90-53v662h22.5v22h-22.5l-17,25,17,90h368l23-115h-193Z"/>
  </g>
  <g>
    <path class="st1" d="M2488.91,1377.91c-28-26.67-28.67-32.67-28.67-67.33v-209.22h0c34.48-13.06,59-46.39,59-85.44s-25.58-73.82-61.24-86.26h0s0-45.74,0-45.74h-8.09v-17h7.57v-26h-10.6v-22.33s-18.97,0-18.97,0h-18.97v22.33s-10.6,0-10.6,0v26h7.57v17h-8.09v45.74h0c-35.66,12.43-61.24,46.36-61.24,86.26s24.52,72.39,59,85.44h0v209.22c0,34.67-.67,40.67-28.67,67.33-28,26.67-84,72-84,72h290s-56-45.33-84-72Z"/>
    <path class="st4" d="M2427.91,924.58c-10.54,0-20.67,1.79-30.09,5.07"/>
    <line class="st4" x1="2358.01" y1="1011.58" x2="2336.58" y2="1011.58"/>
    <line class="st4" x1="2397.83" y1="1011.58" x2="2367.72" y2="1011.58"/>
    <line class="st4" x1="2427.91" y1="1011.58" x2="2408.21" y2="1011.58"/>
    <line class="st4" x1="2358.96" y1="1024.58" x2="2336.99" y2="1024.58"/>
    <line class="st4" x1="2398.34" y1="1024.58" x2="2368.7" y2="1024.58"/>
    <line class="st4" x1="2427.91" y1="1024.58" x2="2409.15" y2="1024.58"/>
    <line class="st4" x1="2427.91" y1="1072.58" x2="2356.28" y2="1072.58"/>
    <path class="st4" d="M2417.58,1072.58c-4.67-12-24-116.67,10.33-117.67"/>
    <path class="st4" d="M2408.94,1072.58c-4.69-10-14.36-42-10.03-83,2.58-24.42-1-33.33-9.33-33-8.33.33-24.1,16.74-21.67,59.67,2,35.33,19.54,56.33,19.54,56.33"/>
    <path class="st4" d="M2376.58,1072.58s-15.02-17.67-18-51.67c-2.46-27.99,2.72-40.55,6.33-51.67,2.75-8.45-5.33-17.33-18.37,5.14"/>
    <polyline class="st4" points="2405.91 883.91 2411.75 878.08 2427.91 878.08"/>
    <line class="st4" x1="2408.94" y1="840.91" x2="2427.91" y2="840.91"/>
    <line class="st4" x1="2427.91" y1="866.91" x2="2405.91" y2="866.91"/>
    <path class="st4" d="M2427.91,1089.24h-32.33v12.11"/>
    <path class="st4" d="M2427.91,924.58c10.54,0,20.67,1.79,30.09,5.07"/>
    <line class="st4" x1="2497.81" y1="1011.58" x2="2519.25" y2="1011.58"/>
    <line class="st4" x1="2458" y1="1011.58" x2="2488.11" y2="1011.58"/>
    <line class="st4" x1="2427.91" y1="1011.58" x2="2447.62" y2="1011.58"/>
    <line class="st4" x1="2496.87" y1="1024.58" x2="2518.84" y2="1024.58"/>
    <line class="st4" x1="2457.48" y1="1024.58" x2="2487.13" y2="1024.58"/>
    <line class="st4" x1="2427.91" y1="1024.58" x2="2446.68" y2="1024.58"/>
    <line class="st4" x1="2427.91" y1="1072.58" x2="2499.55" y2="1072.58"/>
    <path class="st4" d="M2438.25,1072.58c4.67-12,24-116.67-10.33-117.67"/>
    <path class="st4" d="M2446.89,1072.58c4.69-10,14.36-42,10.03-83-2.58-24.42,1-33.33,9.33-33,8.33.33,24.1,16.74,21.67,59.67-2,35.33-19.54,56.33-19.54,56.33"/>
    <path class="st4" d="M2479.25,1072.58s15.02-17.67,18-51.67c2.46-27.99-2.72-40.55-6.33-51.67-2.75-8.45,5.33-17.33,18.37,5.14"/>
    <polyline class="st4" points="2449.91 883.91 2444.08 878.08 2427.91 878.08"/>
    <line class="st4" x1="2446.89" y1="840.91" x2="2427.91" y2="840.91"/>
    <line class="st4" x1="2427.91" y1="866.91" x2="2449.91" y2="866.91"/>
    <path class="st2" d="M2488.91,1377.91c-28-26.67-28.67-32.67-28.67-67.33v-209.22h0c34.48-13.06,59-46.39,59-85.44s-25.58-73.82-61.24-86.26h0s0-45.74,0-45.74h-8.09v-17h7.57v-26h-10.6v-22.33s-18.97,0-18.97,0h-18.97v22.33s-10.6,0-10.6,0v26h7.57v17h-8.09v45.74h0c-35.66,12.43-61.24,46.36-61.24,86.26s24.52,72.39,59,85.44h0v209.22c0,34.67-.67,40.67-28.67,67.33-28,26.67-84,72-84,72h290s-56-45.33-84-72Z"/>
    <path class="st4" d="M2427.91,1089.24h32.33v12.11"/>
  </g>
  <g>
    <polygon class="st1" points="1206.9 1265.6 1196.31 1265.6 1184.83 1449.91 1201.6 1449.91 1218.37 1449.91 1206.9 1265.6"/>
    <path class="st1" d="M1207.88,1038.69c0,3.47-2.81,6.28-6.28,6.28s-6.28-2.81-6.28-6.28,2.81-6.28,6.28-6.28,6.28,2.81,6.28,6.28Z"/>
    <circle class="st1" cx="1201.6" cy="1256.68" r="10.38" transform="translate(-536.67 1217.74) rotate(-45)"/>
    <polyline class="st1" points="1214.71 1123.07 1227.82 1069.55 1207.43 1053.71 1201.6 1053.71 1195.78 1053.71 1175.39 1069.55 1188.5 1123.07"/>
    <path class="st2" d="M1184.86,1141.1c-.46-7.43,5.41-8.47,9.1-7.1,7.35,2.74,7.65,14.74,7.65,14.74v97.57"/>
    <polyline class="st2" points="1201.6 1053.71 1195.78 1053.71 1175.39 1069.55 1188.5 1123.07 1201.6 1123.07"/>
    <polyline class="st2" points="1201.6 1053.71 1207.43 1053.71 1227.82 1069.55 1214.71 1123.07 1201.6 1123.07"/>
    <path class="st2" d="M1218.35,1141.1c.46-7.43-5.41-8.47-9.1-7.1-7.35,2.74-7.65,14.74-7.65,14.74v97.57"/>
    <path class="st2" d="M1207.88,1038.69c0,3.47-2.81,6.28-6.28,6.28s-6.28-2.81-6.28-6.28,2.81-6.28,6.28-6.28,6.28,2.81,6.28,6.28Z"/>
    <line class="st2" x1="1201.6" y1="1032.41" x2="1201.6" y2="1021.76"/>
    <circle class="st2" cx="1201.6" cy="1256.68" r="10.38" transform="translate(-536.67 1217.74) rotate(-45)"/>
    <polyline class="st2" points="1196.31 1265.6 1184.83 1449.91 1201.6 1449.91"/>
    <polyline class="st2" points="1206.9 1265.6 1218.37 1449.91 1201.6 1449.91"/>
    <line class="st4" x1="1175.39" y1="1069.55" x2="1227.82" y2="1069.55"/>
    <polyline class="st4" points="1195.3 1123.07 1191.2 1069.55 1201.6 1053.71"/>
    <polyline class="st4" points="1207.91 1123.07 1212.01 1069.55 1201.6 1053.71"/>
    <line class="st4" x1="1212.8" y1="1360.45" x2="1190.41" y2="1360.45"/>
    <line class="st4" x1="1190.12" y1="1365" x2="1213.13" y2="1365"/>
    <line class="st4" x1="1201.6" y1="1351.34" x2="1201.6" y2="1311.66"/>
    <line class="st4" x1="1185.45" y1="1439.99" x2="1217.76" y2="1439.99"/>
    <line class="st4" x1="1197.44" y1="1377.19" x2="1194.89" y2="1430.16"/>
    <line class="st4" x1="1205.82" y1="1377.19" x2="1208.37" y2="1430.16"/>
  </g>
  <g>
    <path class="st1" d="M1687.42,1422.57v-10.66h-10.67v-8.33c-1.67-51-25.79-79.43-25.79-79.43h0c7.11-21.79,6.36-51.98,1.12-91.57-3.25-24.59-14.76-50.82-27.1-73.09l.44-.24c5.4-10.99,37.33-52.67,26.67-133.33-3.25-24.59-14.76-50.82-27.1-73.1l.44-.24c5.4-10.99,37.33-52.67,26.67-133.33-3.25-24.59-14.76-50.82-27.1-73.09l.44-.24c3.36-6.83,16.97-25.53,24.23-58.09l-.8-.18h-28.21v-.18s0-9.96,0-9.96h-11.2v-.18s0-9.96,0-9.96l11.2-10.04s-9.37-14-33.4-14-33.4,14-33.4,14l11.2,10.04v10.14h-11.2v10.14h-24.73c-5.53,20.82-8.68,48.03-4.15,82.26,3.25,24.59,14.76,50.82,27.1,73.09l-.44.24c-5.4,10.99-37.33,52.67-26.67,133.33,3.3,24.96,15.11,51.62,27.67,74.11l-1,.56c-5.4,10.99-37.33,52.67-26.67,133.33,3.31,25.07,15.21,51.84,27.83,74.39l-1.16.65c-3.57,7.27-18.76,27.98-25.54,64.52h0s-24.13,28.43-25.79,79.43v8.33h-10.67v10.66l-11.33,13.67v13.67h220.46v-13.67l-11.33-13.67Z"/>
    <path class="st4" d="M1568.96,1077.43c-5.15-7.78-10.82-16.86-16.34-26.75"/>
    <g>
      <path class="st4" d="M1568.96,1042.15c-16.87-25.47-39.26-64.92-44.01-100.86-.63-4.8-1.12-9.46-1.47-13.98"/>
      <path class="st4" d="M1568.96,1006.87c-16.19-24.44-37.46-61.76-43.35-96.49"/>
      <path class="st4" d="M1568.96,971.58c-13.54-20.44-30.63-49.89-39.31-79.29"/>
      <path class="st4" d="M1568.96,936.3c-10.86-16.39-24-38.57-33.25-61.88"/>
      <path class="st4" d="M1568.96,901.02c-7.99-12.07-17.22-27.27-25.23-43.75"/>
    </g>
    <g>
      <path class="st4" d="M1568.96,1250.69c-16.87-25.47-39.26-64.92-44.01-100.86-.65-4.9-1.14-9.65-1.49-14.26"/>
      <path class="st4" d="M1568.96,1215.41c-16.23-24.5-37.57-61.95-43.4-96.76"/>
      <path class="st4" d="M1568.96,1180.12c-13.58-20.5-30.73-50.06-39.39-79.55"/>
      <path class="st4" d="M1568.96,1144.84c-10.9-16.46-24.1-38.75-33.37-62.16"/>
      <path class="st4" d="M1568.96,1109.56c-8.04-12.13-17.33-27.44-25.37-44.03"/>
    </g>
    <g>
      <path class="st4" d="M1537.25,1324.1c-2.53-6.06-4.81-12.22-6.74-18.38"/>
      <path class="st4" d="M1554.94,1324.25c-6.43-11.19-12.79-23.55-18.05-36.31"/>
      <path class="st4" d="M1568.96,1311.62c-7.5-11.32-16.09-25.41-23.74-40.72"/>
    </g>
    <g>
      <path class="st4" d="M1568.96,830.99c-16.87-25.47-39.26-64.92-44.01-100.86-.53-3.98-.95-7.87-1.28-11.66"/>
      <path class="st4" d="M1568.96,795.71c-15.82-23.88-36.48-60.04-42.92-94.08"/>
      <path class="st4" d="M1568.96,760.42c-12.51-18.89-28.06-45.46-37.19-72.59"/>
      <path class="st4" d="M1568.96,725.14c-6.94-10.48-14.81-23.32-22.01-37.31"/>
    </g>
    <path class="st4" d="M1624.98,1159.49c-5.7-10.28-11.58-19.72-16.9-27.76"/>
    <path class="st4" d="M1568.96,870.76c-5.33-8.04-11.21-17.48-16.9-27.76"/>
    <path class="st4" d="M1624.98,952.82c-5.7-10.28-11.58-19.72-16.9-27.76"/>
    <path class="st4" d="M1624.98,746.15c-5.7-10.28-11.58-19.72-16.9-27.76"/>
    <path class="st4" d="M1568.96,1285.43c-5.1-7.7-10.71-16.69-16.18-26.47"/>
    <line class="st4" x1="1553.83" y1="687.65" x2="1620.64" y2="687.65"/>
    <rect class="st4" x="1568.96" y="687.65" width="39.11" height="636.5"/>
    <path class="st4" d="M1597.35,1324.25"/>
    <line class="st4" x1="1500.29" y1="1403.58" x2="1588.52" y2="1403.58"/>
    <line class="st4" x1="1588.52" y1="1411.91" x2="1500.29" y2="1411.91"/>
    <line class="st4" x1="1478.29" y1="1436.24" x2="1588.52" y2="1436.24"/>
    <line class="st4" x1="1650.96" y1="1324.15" x2="1526.08" y2="1324.15"/>
    <line class="st4" x1="1676.75" y1="1403.58" x2="1588.52" y2="1403.58"/>
    <line class="st4" x1="1588.52" y1="1411.91" x2="1676.75" y2="1411.91"/>
    <line class="st4" x1="1698.75" y1="1436.24" x2="1588.52" y2="1436.24"/>
    <line class="st4" x1="1527.07" y1="1335.53" x2="1539.1" y2="1335.53"/>
    <line class="st4" x1="1554.79" y1="1335.53" x2="1566.82" y2="1335.53"/>
    <line class="st4" x1="1582.5" y1="1335.53" x2="1594.54" y2="1335.53"/>
    <line class="st4" x1="1610.22" y1="1335.53" x2="1622.25" y2="1335.53"/>
    <line class="st4" x1="1637.94" y1="1335.53" x2="1649.97" y2="1335.53"/>
    <line class="st4" x1="1527.07" y1="1346.86" x2="1539.1" y2="1346.86"/>
    <line class="st4" x1="1554.79" y1="1346.86" x2="1566.82" y2="1346.86"/>
    <line class="st4" x1="1582.5" y1="1346.86" x2="1594.54" y2="1346.86"/>
    <line class="st4" x1="1610.22" y1="1346.86" x2="1622.25" y2="1346.86"/>
    <line class="st4" x1="1637.94" y1="1346.86" x2="1649.97" y2="1346.86"/>
    <line class="st4" x1="1508.42" y1="1358.2" x2="1511.39" y2="1358.2"/>
    <line class="st4" x1="1527.07" y1="1358.2" x2="1539.1" y2="1358.2"/>
    <line class="st4" x1="1554.79" y1="1358.2" x2="1566.82" y2="1358.2"/>
    <line class="st4" x1="1582.5" y1="1358.2" x2="1594.54" y2="1358.2"/>
    <line class="st4" x1="1610.22" y1="1358.2" x2="1622.25" y2="1358.2"/>
    <line class="st4" x1="1637.94" y1="1358.2" x2="1649.97" y2="1358.2"/>
    <line class="st4" x1="1665.65" y1="1358.2" x2="1668.61" y2="1358.2"/>
    <line class="st4" x1="1505.37" y1="1369.53" x2="1511.39" y2="1369.53"/>
    <line class="st4" x1="1527.07" y1="1369.53" x2="1539.1" y2="1369.53"/>
    <line class="st4" x1="1554.79" y1="1369.53" x2="1566.82" y2="1369.53"/>
    <line class="st4" x1="1582.5" y1="1369.53" x2="1594.54" y2="1369.53"/>
    <line class="st4" x1="1610.22" y1="1369.53" x2="1622.25" y2="1369.53"/>
    <line class="st4" x1="1637.94" y1="1369.53" x2="1649.97" y2="1369.53"/>
    <line class="st4" x1="1665.65" y1="1369.53" x2="1671.99" y2="1369.53"/>
    <line class="st4" x1="1502.62" y1="1380.86" x2="1511.39" y2="1380.86"/>
    <line class="st4" x1="1527.07" y1="1380.86" x2="1539.1" y2="1380.86"/>
    <line class="st4" x1="1554.79" y1="1380.86" x2="1566.82" y2="1380.86"/>
    <line class="st4" x1="1582.5" y1="1380.86" x2="1594.54" y2="1380.86"/>
    <line class="st4" x1="1610.22" y1="1380.86" x2="1622.25" y2="1380.86"/>
    <line class="st4" x1="1637.94" y1="1380.86" x2="1649.97" y2="1380.86"/>
    <line class="st4" x1="1665.65" y1="1380.86" x2="1674.42" y2="1380.86"/>
    <line class="st4" x1="1501.05" y1="1392.2" x2="1511.39" y2="1392.2"/>
    <line class="st4" x1="1527.07" y1="1392.2" x2="1539.1" y2="1392.2"/>
    <line class="st4" x1="1554.79" y1="1392.2" x2="1566.82" y2="1392.2"/>
    <line class="st4" x1="1582.5" y1="1392.2" x2="1594.54" y2="1392.2"/>
    <line class="st4" x1="1610.22" y1="1392.2" x2="1622.25" y2="1392.2"/>
    <line class="st4" x1="1637.94" y1="1392.2" x2="1649.97" y2="1392.2"/>
    <line class="st4" x1="1665.65" y1="1392.2" x2="1675.99" y2="1392.2"/>
    <line class="st4" x1="1505.05" y1="1422.57" x2="1505.05" y2="1436.24"/>
    <line class="st4" x1="1523.6" y1="1422.57" x2="1523.6" y2="1436.24"/>
    <line class="st4" x1="1542.15" y1="1422.57" x2="1542.15" y2="1436.24"/>
    <line class="st4" x1="1560.7" y1="1422.57" x2="1560.7" y2="1436.24"/>
    <line class="st4" x1="1579.24" y1="1422.57" x2="1579.24" y2="1436.24"/>
    <line class="st4" x1="1597.79" y1="1422.57" x2="1597.79" y2="1436.24"/>
    <line class="st4" x1="1616.34" y1="1422.57" x2="1616.34" y2="1436.24"/>
    <line class="st4" x1="1634.89" y1="1422.57" x2="1634.89" y2="1436.24"/>
    <line class="st4" x1="1653.44" y1="1422.57" x2="1653.44" y2="1436.24"/>
    <line class="st4" x1="1671.99" y1="1422.57" x2="1671.99" y2="1436.24"/>
    <line class="st4" x1="1565.03" y1="677.51" x2="1609.44" y2="677.51"/>
    <line class="st4" x1="1620.64" y1="687.47" x2="1553.83" y2="687.47"/>
    <line class="st4" x1="1565.03" y1="667.37" x2="1609.44" y2="667.37"/>
    <line class="st4" x1="1609.44" y1="677.33" x2="1565.03" y2="677.33"/>
    <line class="st4" x1="1574.95" y1="667.37" x2="1587.24" y2="650.83"/>
    <line class="st4" x1="1599.52" y1="667.37" x2="1587.24" y2="650.83"/>
    <line class="st4" x1="1587.24" y1="633.08" x2="1587.24" y2="567.83"/>
    <g>
      <path class="st4" d="M1608.08,960.34c16.87,25.47,39.26,64.92,44.01,100.86.63,4.8,1.12,9.45,1.47,13.98"/>
      <path class="st4" d="M1608.08,995.62c16.19,24.44,37.46,61.75,43.35,96.49"/>
      <path class="st4" d="M1608.08,1030.9c13.54,20.44,30.63,49.88,39.31,79.28"/>
      <path class="st4" d="M1608.08,1066.19c10.86,16.39,24,38.57,33.25,61.88"/>
      <path class="st4" d="M1608.08,1101.47c7.99,12.07,17.22,27.27,25.23,43.75"/>
    </g>
    <g>
      <path class="st4" d="M1608.08,751.16c16.87,25.47,39.26,64.92,44.01,100.86.74,5.6,1.28,11.01,1.63,16.24"/>
      <path class="st4" d="M1608.08,786.44c16.39,24.74,37.98,62.66,43.56,97.75"/>
      <path class="st4" d="M1608.08,821.72c13.73,20.72,31.1,50.7,39.66,80.51"/>
      <path class="st4" d="M1608.08,857.01c11.05,16.69,24.47,39.37,33.75,63.14"/>
      <path class="st4" d="M1608.08,892.29c8.21,12.39,17.71,28.08,25.87,45.07"/>
    </g>
    <g>
      <path class="st4" d="M1627.42,687.83c4.71,8.78,9.21,18.1,13.1,27.62"/>
      <path class="st4" d="M1608.08,690.87c7.76,11.72,16.69,26.39,24.53,42.32"/>
    </g>
    <g>
      <path class="st4" d="M1608.08,1162.39c16.87,25.47,39.26,64.92,44.01,100.86,2.56,19.39,2.67,36.52,1.27,51.52"/>
      <path class="st4" d="M1608.08,1197.68c16.87,25.47,39.26,64.92,44.01,100.86.63,4.8,1.12,9.46,1.47,13.98"/>
      <path class="st4" d="M1608.08,1232.96c15.37,23.2,35.32,58.01,42.34,91.19"/>
      <path class="st4" d="M1608.08,1268.24c9.93,14.98,21.76,34.81,30.79,55.9"/>
      <path class="st4" d="M1608.08,1303.52c4.07,6.14,8.46,13.1,12.84,20.62"/>
    </g>
    <rect class="st4" x="1579.69" y="687.65" width="17.66" height="636.5"/>
    <path class="st2" d="M1687.42,1422.57v-10.66h-10.67v-8.33c-1.67-51-25.79-79.43-25.79-79.43h0c7.11-21.79,6.36-51.98,1.12-91.57-3.25-24.59-14.76-50.82-27.1-73.09l.44-.24c5.4-10.99,37.33-52.67,26.67-133.33-3.25-24.59-14.76-50.82-27.1-73.1l.44-.24c5.4-10.99,37.33-52.67,26.67-133.33-3.25-24.59-14.76-50.82-27.1-73.09l.44-.24c3.36-6.83,16.97-25.53,24.23-58.09l-.8-.18h-28.21v-.18s0-9.96,0-9.96h-11.2v-.18s0-9.96,0-9.96l11.2-10.04s-9.37-14-33.4-14-33.4,14-33.4,14l11.2,10.04v10.14h-11.2v10.14h-24.73c-5.53,20.82-8.68,48.03-4.15,82.26,3.25,24.59,14.76,50.82,27.1,73.09l-.44.24c-5.4,10.99-37.33,52.67-26.67,133.33,3.3,24.96,15.11,51.62,27.67,74.11l-1,.56c-5.4,10.99-37.33,52.67-26.67,133.33,3.31,25.07,15.21,51.84,27.83,74.39l-1.16.65c-3.57,7.27-18.76,27.98-25.54,64.52h0s-24.13,28.43-25.79,79.43v8.33h-10.67v10.66l-11.33,13.67v13.67h220.46v-13.67l-11.33-13.67Z"/>
    <line class="st4" x1="1588.52" y1="1422.57" x2="1687.42" y2="1422.57"/>
    <line class="st4" x1="1588.52" y1="1422.57" x2="1489.62" y2="1422.57"/>
  </g>
  <g>
    <path class="st1" d="M3647.16,1218.65s-7.09,1.58-7.09,11.65c0-10.07-7.09-11.65-7.09-11.65,0,0-7.09,1.58-7.09,11.65,0-10.07-7.09-11.65-7.09-11.65,0,0-7.09,1.58-7.09,11.65,0-10.07-7.09-11.65-7.09-11.65,0,0-7.09,1.58-7.09,11.65,0-10.07-7.09-11.65-7.09-11.65,0,0-7.09,1.58-7.09,11.65,0-10.07-7.09-11.65-7.09-11.65,0,0-7.09,1.58-7.09,11.65,0-10.07-7.09-11.65-7.09-11.65,0,0-7.09,1.58-7.09,11.65,0-10.07-7.09-11.65-7.09-11.65,0,0-7.09,1.58-7.09,11.65,0-10.07-7.09-11.65-7.09-11.65,0,0-7.09,1.58-7.09,11.65,0-10.07-7.09-11.65-7.09-11.65h-.04s-7.09,1.58-7.09,11.65c0-10.07-7.09-11.65-7.09-11.65,0,0-7.09,1.58-7.09,11.65v24.25c0-10.07-7.09-11.65-7.09-11.65,0,0-7.09,1.58-7.09,11.65,0-10.07-7.09-11.65-7.09-11.65,0,0-7.09,1.58-7.09,11.65,0-10.07-7.09-11.65-7.09-11.65,0,0-7.09,1.58-7.09,11.65,0-10.07-7.09-11.65-7.09-11.65,0,0-7.09,1.58-7.09,11.65,0-10.07-7.09-11.65-7.09-11.65,0,0-7.09,1.58-7.09,11.65,0-10.07-7.09-11.65-7.09-11.65h-.04s-7.09,1.58-7.09,11.65c0-10.07-7.09-11.65-7.09-11.65,0,0-7.09,1.58-7.09,11.65v-24.63c0-9.74-6.86-11.27-6.86-11.27,0,0-6.86,1.52-6.86,11.27,0-9.74-6.86-11.27-6.86-11.27,0,0-6.86,1.52-6.86,11.27,0-9.74-6.86-11.27-6.86-11.27,0,0-6.86,1.52-6.86,11.27,0-9.74-6.86-11.27-6.86-11.27,0,0-6.86,1.52-6.86,11.27,0-9.74-6.86-11.27-6.86-11.27,0,0-6.86,1.52-6.86,11.27,0-9.74-6.86-11.27-6.86-11.27,0,0-6.86,1.52-6.86,11.27,0-9.74-6.86-11.27-6.86-11.27,0,0-6.86,1.52-6.86,11.27,0-9.74-6.86-11.27-6.86-11.27,0,0-6.86,1.52-6.86,11.27,0-9.74-6.86-11.27-6.86-11.27,0,0-6.86,1.52-6.86,11.27,0-9.74-6.86-11.27-6.86-11.27,0,0-6.86,1.52-6.86,11.27,0-9.74-6.86-11.27-6.86-11.27,0,0-6.86,1.52-6.86,11.27,0-9.74-6.86-11.27-6.86-11.27,0,0-6.86,1.52-6.86,11.27v24.63c0-10.07-7.09-11.65-7.09-11.65,0,0-7.09,1.58-7.09,11.65,0-10.07-7.09-11.65-7.09-11.65h-.04s-7.09,1.58-7.09,11.65c0-10.07-7.09-11.65-7.09-11.65,0,0-7.09,1.58-7.09,11.65,0-10.07-7.09-11.65-7.09-11.65,0,0-7.09,1.58-7.09,11.65,0-10.07-7.09-11.65-7.09-11.65,0,0-7.09,1.58-7.09,11.65,0-10.07-7.09-11.65-7.09-11.65,0,0-7.09,1.58-7.09,11.65,0-10.07-7.09-11.65-7.09-11.65,0,0-7.09,1.58-7.09,11.65v-24.25c0-10.07-7.09-11.65-7.09-11.65,0,0-7.09,1.58-7.09,11.65,0-10.07-7.09-11.65-7.09-11.65h-.04s-7.09,1.58-7.09,11.65c0-10.07-7.09-11.65-7.09-11.65,0,0-7.09,1.58-7.09,11.65,0-10.07-7.09-11.65-7.09-11.65,0,0-7.09,1.58-7.09,11.65,0-10.07-7.09-11.65-7.09-11.65,0,0-7.09,1.58-7.09,11.65,0-10.07-7.09-11.65-7.09-11.65,0,0-7.09,1.58-7.09,11.65,0-10.07-7.09-11.65-7.09-11.65,0,0-7.09,1.58-7.09,11.65,0-10.07-7.09-11.65-7.09-11.65,0,0-7.09,1.58-7.09,11.65,0-10.07-7.09-11.65-7.09-11.65,0,0-7.09,1.58-7.09,11.65,0-10.07-7.09-11.65-7.09-11.65,0,0-7.09,1.58-7.09,11.65,0-10.07-7.09-11.65-7.09-11.65,0,0-7.09,1.58-7.09,11.65v219.61h193.97v-81.28c0-43.63,30.71-50.45,30.71-50.45,0,0,30.71,6.83,30.71,50.45v81.28h37.29v-119.08c0-63.92,45-73.92,45-73.92,0,0,45,10,45,73.92v119.08h37.29v-81.28c0-43.63,30.71-50.45,30.71-50.45,0,0,30.71,6.83,30.71,50.45v81.28h193.97v-219.61c0-10.07-7.09-11.65-7.09-11.65Z"/>
    <line class="st4" x1="3234.27" y1="1424.91" x2="3271.56" y2="1424.91"/>
    <line class="st4" x1="3134.93" y1="1424.91" x2="3172.23" y2="1424.91"/>
    <line class="st4" x1="3234.27" y1="1432.91" x2="3271.56" y2="1432.91"/>
    <line class="st4" x1="3234.27" y1="1440.91" x2="3271.56" y2="1440.91"/>
    <line class="st4" x1="3234.27" y1="1376.58" x2="3271.56" y2="1376.58"/>
    <line class="st4" x1="3234.27" y1="1374.91" x2="3234.27" y2="1254.54"/>
    <line class="st4" x1="3134.93" y1="1433.91" x2="3172.23" y2="1433.91"/>
    <line class="st4" x1="3134.93" y1="1441.91" x2="3172.23" y2="1441.91"/>
    <line class="st4" x1="2993.05" y1="1424.91" x2="3120.75" y2="1424.91"/>
    <line class="st4" x1="2993.05" y1="1433.91" x2="3120.75" y2="1433.91"/>
    <line class="st4" x1="2993.05" y1="1441.91" x2="3120.75" y2="1441.91"/>
    <line class="st4" x1="3134.93" y1="1376.58" x2="3172.23" y2="1376.58"/>
    <line class="st4" x1="3134.93" y1="1292.24" x2="3234.27" y2="1292.24"/>
    <line class="st4" x1="3134.93" y1="1284.91" x2="3234.27" y2="1284.91"/>
    <line class="st4" x1="2993" y1="1292.24" x2="3120.75" y2="1292.24"/>
    <line class="st4" x1="2993" y1="1284.91" x2="3120.75" y2="1284.91"/>
    <line class="st4" x1="2993" y1="1330.83" x2="3120.75" y2="1330.83"/>
    <line class="st4" x1="2993" y1="1323.5" x2="3120.75" y2="1323.5"/>
    <line class="st4" x1="2993" y1="1369.42" x2="3120.75" y2="1369.42"/>
    <line class="st4" x1="2993" y1="1362.09" x2="3120.75" y2="1362.09"/>
    <line class="st4" x1="3146.23" y1="1275.58" x2="3152" y2="1275.58"/>
    <line class="st4" x1="3161.56" y1="1265.31" x2="3167.33" y2="1265.31"/>
    <line class="st4" x1="3174.03" y1="1275.58" x2="3179.8" y2="1275.58"/>
    <line class="st4" x1="3189.35" y1="1265.31" x2="3195.13" y2="1265.31"/>
    <line class="st4" x1="3201.82" y1="1275.58" x2="3207.6" y2="1275.58"/>
    <line class="st4" x1="3217.15" y1="1265.31" x2="3222.93" y2="1265.31"/>
    <line class="st4" x1="2998.42" y1="1313.01" x2="3004.19" y2="1313.01"/>
    <line class="st4" x1="3013.75" y1="1302.74" x2="3019.52" y2="1302.74"/>
    <line class="st4" x1="3026.22" y1="1313.01" x2="3031.99" y2="1313.01"/>
    <line class="st4" x1="3041.54" y1="1302.74" x2="3047.32" y2="1302.74"/>
    <line class="st4" x1="3054.01" y1="1313.01" x2="3059.79" y2="1313.01"/>
    <line class="st4" x1="3069.34" y1="1302.74" x2="3075.11" y2="1302.74"/>
    <line class="st4" x1="3054.01" y1="1313.01" x2="3059.79" y2="1313.01"/>
    <line class="st4" x1="3069.34" y1="1302.74" x2="3075.11" y2="1302.74"/>
    <line class="st4" x1="3081.81" y1="1313.01" x2="3087.58" y2="1313.01"/>
    <line class="st4" x1="3097.14" y1="1302.74" x2="3102.91" y2="1302.74"/>
    <line class="st4" x1="3109.61" y1="1313.01" x2="3115.38" y2="1313.01"/>
    <line class="st4" x1="2998.42" y1="1351.6" x2="3004.19" y2="1351.6"/>
    <line class="st4" x1="3013.75" y1="1341.33" x2="3019.52" y2="1341.33"/>
    <line class="st4" x1="3026.22" y1="1351.6" x2="3031.99" y2="1351.6"/>
    <line class="st4" x1="3041.54" y1="1341.33" x2="3047.32" y2="1341.33"/>
    <line class="st4" x1="3054.01" y1="1351.6" x2="3059.79" y2="1351.6"/>
    <line class="st4" x1="3069.34" y1="1341.33" x2="3075.11" y2="1341.33"/>
    <line class="st4" x1="3054.01" y1="1351.6" x2="3059.79" y2="1351.6"/>
    <line class="st4" x1="3069.34" y1="1341.33" x2="3075.11" y2="1341.33"/>
    <line class="st4" x1="3081.81" y1="1351.6" x2="3087.58" y2="1351.6"/>
    <line class="st4" x1="3097.14" y1="1341.33" x2="3102.91" y2="1341.33"/>
    <line class="st4" x1="3109.61" y1="1351.6" x2="3115.38" y2="1351.6"/>
    <line class="st4" x1="2998.42" y1="1393.39" x2="3004.19" y2="1393.39"/>
    <line class="st4" x1="3013.75" y1="1383.12" x2="3019.52" y2="1383.12"/>
    <line class="st4" x1="3026.22" y1="1393.39" x2="3031.99" y2="1393.39"/>
    <line class="st4" x1="3041.54" y1="1383.12" x2="3047.32" y2="1383.12"/>
    <line class="st4" x1="3054.01" y1="1393.39" x2="3059.79" y2="1393.39"/>
    <line class="st4" x1="3069.34" y1="1383.12" x2="3075.11" y2="1383.12"/>
    <line class="st4" x1="3054.01" y1="1393.39" x2="3059.79" y2="1393.39"/>
    <line class="st4" x1="3069.34" y1="1383.12" x2="3075.11" y2="1383.12"/>
    <line class="st4" x1="3081.81" y1="1393.39" x2="3087.58" y2="1393.39"/>
    <line class="st4" x1="3097.14" y1="1383.12" x2="3102.91" y2="1383.12"/>
    <line class="st4" x1="3109.61" y1="1393.39" x2="3115.38" y2="1393.39"/>
    <line class="st4" x1="2998.42" y1="1414.28" x2="3004.19" y2="1414.28"/>
    <line class="st4" x1="3013.75" y1="1404.01" x2="3019.52" y2="1404.01"/>
    <line class="st4" x1="3026.22" y1="1414.28" x2="3031.99" y2="1414.28"/>
    <line class="st4" x1="3041.54" y1="1404.01" x2="3047.32" y2="1404.01"/>
    <line class="st4" x1="3054.01" y1="1414.28" x2="3059.79" y2="1414.28"/>
    <line class="st4" x1="3069.34" y1="1404.01" x2="3075.11" y2="1404.01"/>
    <line class="st4" x1="3054.01" y1="1414.28" x2="3059.79" y2="1414.28"/>
    <line class="st4" x1="3069.34" y1="1404.01" x2="3075.11" y2="1404.01"/>
    <line class="st4" x1="3081.81" y1="1414.28" x2="3087.58" y2="1414.28"/>
    <line class="st4" x1="3097.14" y1="1404.01" x2="3102.91" y2="1404.01"/>
    <line class="st4" x1="3109.61" y1="1414.28" x2="3115.38" y2="1414.28"/>
    <path class="st4" d="M3020.32,1253.34c0-4.52,3.67-8.19,8.19-8.19s8.19,3.67,8.19,8.19v15.33h-16.38v-15.33Z"/>
    <path class="st4" d="M3077.05,1253.34c0-4.52,3.67-8.19,8.19-8.19s8.19,3.67,8.19,8.19v15.33h-16.38v-15.33Z"/>
    <line class="st4" x1="3134.93" y1="1449.91" x2="3134.93" y2="1254.54"/>
    <line class="st4" x1="3398.85" y1="1424.91" x2="3361.56" y2="1424.91"/>
    <line class="st4" x1="3498.18" y1="1424.91" x2="3460.89" y2="1424.91"/>
    <line class="st4" x1="3398.85" y1="1432.91" x2="3361.56" y2="1432.91"/>
    <line class="st4" x1="3398.85" y1="1440.91" x2="3361.56" y2="1440.91"/>
    <line class="st4" x1="3398.85" y1="1376.58" x2="3361.56" y2="1376.58"/>
    <line class="st4" x1="3398.85" y1="1374.91" x2="3398.85" y2="1254.54"/>
    <line class="st4" x1="3498.18" y1="1433.91" x2="3460.89" y2="1433.91"/>
    <line class="st4" x1="3498.18" y1="1441.91" x2="3460.89" y2="1441.91"/>
    <line class="st4" x1="3640.07" y1="1424.91" x2="3512.37" y2="1424.91"/>
    <line class="st4" x1="3640.07" y1="1433.91" x2="3512.37" y2="1433.91"/>
    <line class="st4" x1="3640.07" y1="1441.91" x2="3512.37" y2="1441.91"/>
    <line class="st4" x1="3498.18" y1="1376.58" x2="3460.89" y2="1376.58"/>
    <line class="st4" x1="3498.18" y1="1292.24" x2="3398.85" y2="1292.24"/>
    <line class="st4" x1="3498.18" y1="1284.91" x2="3398.85" y2="1284.91"/>
    <line class="st4" x1="3640.11" y1="1292.24" x2="3512.37" y2="1292.24"/>
    <line class="st4" x1="3640.11" y1="1284.91" x2="3512.37" y2="1284.91"/>
    <line class="st4" x1="3640.11" y1="1330.83" x2="3512.37" y2="1330.83"/>
    <line class="st4" x1="3640.11" y1="1323.5" x2="3512.37" y2="1323.5"/>
    <line class="st4" x1="3640.11" y1="1369.42" x2="3512.37" y2="1369.42"/>
    <line class="st4" x1="3640.11" y1="1362.09" x2="3512.37" y2="1362.09"/>
    <line class="st4" x1="3486.89" y1="1275.58" x2="3481.11" y2="1275.58"/>
    <line class="st4" x1="3471.56" y1="1265.31" x2="3465.78" y2="1265.31"/>
    <line class="st4" x1="3459.09" y1="1275.58" x2="3453.32" y2="1275.58"/>
    <line class="st4" x1="3443.76" y1="1265.31" x2="3437.99" y2="1265.31"/>
    <line class="st4" x1="3431.29" y1="1275.58" x2="3425.52" y2="1275.58"/>
    <line class="st4" x1="3415.97" y1="1265.31" x2="3410.19" y2="1265.31"/>
    <line class="st4" x1="3634.7" y1="1313.01" x2="3628.92" y2="1313.01"/>
    <line class="st4" x1="3619.37" y1="1302.74" x2="3613.6" y2="1302.74"/>
    <line class="st4" x1="3606.9" y1="1313.01" x2="3601.13" y2="1313.01"/>
    <line class="st4" x1="3591.57" y1="1302.74" x2="3585.8" y2="1302.74"/>
    <line class="st4" x1="3579.1" y1="1313.01" x2="3573.33" y2="1313.01"/>
    <line class="st4" x1="3563.78" y1="1302.74" x2="3558" y2="1302.74"/>
    <line class="st4" x1="3579.1" y1="1313.01" x2="3573.33" y2="1313.01"/>
    <line class="st4" x1="3563.78" y1="1302.74" x2="3558" y2="1302.74"/>
    <line class="st4" x1="3551.31" y1="1313.01" x2="3545.53" y2="1313.01"/>
    <line class="st4" x1="3535.98" y1="1302.74" x2="3530.21" y2="1302.74"/>
    <line class="st4" x1="3523.51" y1="1313.01" x2="3517.74" y2="1313.01"/>
    <line class="st4" x1="3634.7" y1="1351.6" x2="3628.92" y2="1351.6"/>
    <line class="st4" x1="3619.37" y1="1341.33" x2="3613.6" y2="1341.33"/>
    <line class="st4" x1="3606.9" y1="1351.6" x2="3601.13" y2="1351.6"/>
    <line class="st4" x1="3591.57" y1="1341.33" x2="3585.8" y2="1341.33"/>
    <line class="st4" x1="3579.1" y1="1351.6" x2="3573.33" y2="1351.6"/>
    <line class="st4" x1="3563.78" y1="1341.33" x2="3558" y2="1341.33"/>
    <line class="st4" x1="3579.1" y1="1351.6" x2="3573.33" y2="1351.6"/>
    <line class="st4" x1="3563.78" y1="1341.33" x2="3558" y2="1341.33"/>
    <line class="st4" x1="3551.31" y1="1351.6" x2="3545.53" y2="1351.6"/>
    <line class="st4" x1="3535.98" y1="1341.33" x2="3530.21" y2="1341.33"/>
    <line class="st4" x1="3523.51" y1="1351.6" x2="3517.74" y2="1351.6"/>
    <line class="st4" x1="3634.7" y1="1393.39" x2="3628.92" y2="1393.39"/>
    <line class="st4" x1="3619.37" y1="1383.12" x2="3613.6" y2="1383.12"/>
    <line class="st4" x1="3606.9" y1="1393.39" x2="3601.13" y2="1393.39"/>
    <line class="st4" x1="3591.57" y1="1383.12" x2="3585.8" y2="1383.12"/>
    <line class="st4" x1="3579.1" y1="1393.39" x2="3573.33" y2="1393.39"/>
    <line class="st4" x1="3563.78" y1="1383.12" x2="3558" y2="1383.12"/>
    <line class="st4" x1="3579.1" y1="1393.39" x2="3573.33" y2="1393.39"/>
    <line class="st4" x1="3563.78" y1="1383.12" x2="3558" y2="1383.12"/>
    <line class="st4" x1="3551.31" y1="1393.39" x2="3545.53" y2="1393.39"/>
    <line class="st4" x1="3535.98" y1="1383.12" x2="3530.21" y2="1383.12"/>
    <line class="st4" x1="3523.51" y1="1393.39" x2="3517.74" y2="1393.39"/>
    <line class="st4" x1="3634.7" y1="1414.28" x2="3628.92" y2="1414.28"/>
    <line class="st4" x1="3619.37" y1="1404.01" x2="3613.6" y2="1404.01"/>
    <line class="st4" x1="3606.9" y1="1414.28" x2="3601.13" y2="1414.28"/>
    <line class="st4" x1="3591.57" y1="1404.01" x2="3585.8" y2="1404.01"/>
    <line class="st4" x1="3579.1" y1="1414.28" x2="3573.33" y2="1414.28"/>
    <line class="st4" x1="3563.78" y1="1404.01" x2="3558" y2="1404.01"/>
    <line class="st4" x1="3579.1" y1="1414.28" x2="3573.33" y2="1414.28"/>
    <line class="st4" x1="3563.78" y1="1404.01" x2="3558" y2="1404.01"/>
    <line class="st4" x1="3551.31" y1="1414.28" x2="3545.53" y2="1414.28"/>
    <line class="st4" x1="3535.98" y1="1404.01" x2="3530.21" y2="1404.01"/>
    <line class="st4" x1="3523.51" y1="1414.28" x2="3517.74" y2="1414.28"/>
    <path class="st4" d="M3612.8,1253.34c0-4.52-3.67-8.19-8.19-8.19s-8.19,3.67-8.19,8.19v15.33h16.38v-15.33Z"/>
    <path class="st4" d="M3556.06,1253.34c0-4.52-3.67-8.19-8.19-8.19s-8.19,3.67-8.19,8.19v15.33h16.38v-15.33Z"/>
    <path class="st2" d="M3647.16,1218.65s-7.09,1.58-7.09,11.65c0-10.07-7.09-11.65-7.09-11.65,0,0-7.09,1.58-7.09,11.65,0-10.07-7.09-11.65-7.09-11.65,0,0-7.09,1.58-7.09,11.65,0-10.07-7.09-11.65-7.09-11.65,0,0-7.09,1.58-7.09,11.65,0-10.07-7.09-11.65-7.09-11.65,0,0-7.09,1.58-7.09,11.65,0-10.07-7.09-11.65-7.09-11.65,0,0-7.09,1.58-7.09,11.65,0-10.07-7.09-11.65-7.09-11.65,0,0-7.09,1.58-7.09,11.65,0-10.07-7.09-11.65-7.09-11.65,0,0-7.09,1.58-7.09,11.65,0-10.07-7.09-11.65-7.09-11.65,0,0-7.09,1.58-7.09,11.65,0-10.07-7.09-11.65-7.09-11.65h-.04s-7.09,1.58-7.09,11.65c0-10.07-7.09-11.65-7.09-11.65,0,0-7.09,1.58-7.09,11.65v24.25c0-10.07-7.09-11.65-7.09-11.65,0,0-7.09,1.58-7.09,11.65,0-10.07-7.09-11.65-7.09-11.65,0,0-7.09,1.58-7.09,11.65,0-10.07-7.09-11.65-7.09-11.65,0,0-7.09,1.58-7.09,11.65,0-10.07-7.09-11.65-7.09-11.65,0,0-7.09,1.58-7.09,11.65,0-10.07-7.09-11.65-7.09-11.65,0,0-7.09,1.58-7.09,11.65,0-10.07-7.09-11.65-7.09-11.65h-.04s-7.09,1.58-7.09,11.65c0-10.07-7.09-11.65-7.09-11.65,0,0-7.09,1.58-7.09,11.65v-24.63c0-9.74-6.86-11.27-6.86-11.27,0,0-6.86,1.52-6.86,11.27,0-9.74-6.86-11.27-6.86-11.27,0,0-6.86,1.52-6.86,11.27,0-9.74-6.86-11.27-6.86-11.27,0,0-6.86,1.52-6.86,11.27,0-9.74-6.86-11.27-6.86-11.27,0,0-6.86,1.52-6.86,11.27,0-9.74-6.86-11.27-6.86-11.27,0,0-6.86,1.52-6.86,11.27,0-9.74-6.86-11.27-6.86-11.27,0,0-6.86,1.52-6.86,11.27,0-9.74-6.86-11.27-6.86-11.27,0,0-6.86,1.52-6.86,11.27,0-9.74-6.86-11.27-6.86-11.27,0,0-6.86,1.52-6.86,11.27,0-9.74-6.86-11.27-6.86-11.27,0,0-6.86,1.52-6.86,11.27,0-9.74-6.86-11.27-6.86-11.27,0,0-6.86,1.52-6.86,11.27,0-9.74-6.86-11.27-6.86-11.27,0,0-6.86,1.52-6.86,11.27,0-9.74-6.86-11.27-6.86-11.27,0,0-6.86,1.52-6.86,11.27v24.63c0-10.07-7.09-11.65-7.09-11.65,0,0-7.09,1.58-7.09,11.65,0-10.07-7.09-11.65-7.09-11.65h-.04s-7.09,1.58-7.09,11.65c0-10.07-7.09-11.65-7.09-11.65,0,0-7.09,1.58-7.09,11.65,0-10.07-7.09-11.65-7.09-11.65,0,0-7.09,1.58-7.09,11.65,0-10.07-7.09-11.65-7.09-11.65,0,0-7.09,1.58-7.09,11.65,0-10.07-7.09-11.65-7.09-11.65,0,0-7.09,1.58-7.09,11.65,0-10.07-7.09-11.65-7.09-11.65,0,0-7.09,1.58-7.09,11.65v-24.25c0-10.07-7.09-11.65-7.09-11.65,0,0-7.09,1.58-7.09,11.65,0-10.07-7.09-11.65-7.09-11.65h-.04s-7.09,1.58-7.09,11.65c0-10.07-7.09-11.65-7.09-11.65,0,0-7.09,1.58-7.09,11.65,0-10.07-7.09-11.65-7.09-11.65,0,0-7.09,1.58-7.09,11.65,0-10.07-7.09-11.65-7.09-11.65,0,0-7.09,1.58-7.09,11.65,0-10.07-7.09-11.65-7.09-11.65,0,0-7.09,1.58-7.09,11.65,0-10.07-7.09-11.65-7.09-11.65,0,0-7.09,1.58-7.09,11.65,0-10.07-7.09-11.65-7.09-11.65,0,0-7.09,1.58-7.09,11.65,0-10.07-7.09-11.65-7.09-11.65,0,0-7.09,1.58-7.09,11.65,0-10.07-7.09-11.65-7.09-11.65,0,0-7.09,1.58-7.09,11.65,0-10.07-7.09-11.65-7.09-11.65,0,0-7.09,1.58-7.09,11.65v219.61h193.97v-81.28c0-43.63,30.71-50.45,30.71-50.45,0,0,30.71,6.83,30.71,50.45v81.28h37.29v-119.08c0-63.92,45-73.92,45-73.92,0,0,45,10,45,73.92v119.08h37.29v-81.28c0-43.63,30.71-50.45,30.71-50.45,0,0,30.71,6.83,30.71,50.45v81.28h193.97v-219.61c0-10.07-7.09-11.65-7.09-11.65Z"/>
    <line class="st4" x1="3498.18" y1="1449.91" x2="3498.18" y2="1254.54"/>
  </g>
  <g>
    <path class="st1" d="M2757.83,1437.57v-6.33s-17,0-17,0v-6.33h-34s-1.82-1.56-12.13-8.13l-43.54-876.87-9.33-13.5s0-157.5,0-157.5l-7.99,27.16-9.45-283.67-24.55,494.52h-22.67v12.66h10.67c3.92,0,7.9,1.07,11.49,3.24l-.3.48-39.4,793.49h0c-10.31,6.57-12.13,8.13-12.13,8.13h-34v6.33h-17v6.33h-17v12.34h295.33v-12.34h-17Z"/>
    <polyline class="st4" points="2633.84 396.07 2612.5 468.57 2612.5 1405.91 2622.45 1419.04 2627.17 1419.04"/>
    <polyline class="st4" points="2627.17 1419.04 2631.89 1419.04 2641.83 1405.91 2641.83 526.41"/>
    <line class="st4" x1="2547.5" y1="1424.91" x2="2627.17" y2="1424.91"/>
    <path class="st4" d="M2612.5,1405.91c-12,0-34-1-48.33,8-1.67,1.05-3.18,2-4.54,2.87"/>
    <path class="st4" d="M2564.17,1413.91c8.25-3.9,29-2.33,45.33,11"/>
    <line class="st4" x1="2627.17" y1="1431.24" x2="2513.5" y2="1431.24"/>
    <line class="st4" x1="2627.17" y1="1437.57" x2="2496.5" y2="1437.57"/>
    <line class="st4" x1="2706.83" y1="1424.91" x2="2627.17" y2="1424.91"/>
    <path class="st4" d="M2641.83,1405.91c12,0,34-1,48.33,8,1.67,1.05,3.18,2,4.53,2.87"/>
    <path class="st4" d="M2690.17,1413.91c-8.25-3.9-29-2.33-45.33,11"/>
    <line class="st4" x1="2627.17" y1="1431.24" x2="2740.83" y2="1431.24"/>
    <line class="st4" x1="2627.17" y1="1437.57" x2="2757.83" y2="1437.57"/>
    <line class="st4" x1="2587.83" y1="619.57" x2="2612.47" y2="619.57"/>
    <line class="st4" x1="2612.53" y1="606.91" x2="2599.84" y2="606.91"/>
    <path class="st4" d="M2599.32,622.81c6.82,4.12,12.23,12.2,13.18,24.43"/>
    <line class="st4" x1="2612.7" y1="1358.57" x2="2562.52" y2="1358.57"/>
    <line class="st4" x1="2612.7" y1="1348.91" x2="2563" y2="1348.91"/>
    <line class="st4" x1="2612.5" y1="1225.41" x2="2569.61" y2="1225.41"/>
    <line class="st4" x1="2612.5" y1="1215.75" x2="2569.61" y2="1215.75"/>
    <line class="st4" x1="2612.5" y1="1075.91" x2="2576.55" y2="1075.91"/>
    <line class="st4" x1="2612.5" y1="1066.24" x2="2577.03" y2="1066.24"/>
    <line class="st4" x1="2612.5" y1="927.41" x2="2583.93" y2="927.41"/>
    <line class="st4" x1="2612.5" y1="917.74" x2="2584.41" y2="917.74"/>
    <line class="st4" x1="2612.5" y1="787.32" x2="2591.36" y2="787.32"/>
    <line class="st4" x1="2612.5" y1="777.66" x2="2591.36" y2="777.66"/>
    <rect class="st4" x="2598.92" y="1318.75" width="13.58" height="19.16"/>
    <rect class="st4" x="2598.92" y="1291.97" width="13.58" height="19.16"/>
    <rect class="st4" x="2598.92" y="1265.19" width="13.58" height="19.16"/>
    <rect class="st4" x="2598.92" y="1238.41" width="13.58" height="19.16"/>
    <rect class="st4" x="2641.83" y="1291.97" width="13.58" height="19.16"/>
    <rect class="st4" x="2641.83" y="1265.19" width="13.58" height="19.16"/>
    <rect class="st4" x="2641.83" y="1238.41" width="13.58" height="19.16"/>
    <rect class="st4" x="2598.92" y="1188" width="13.58" height="19.16"/>
    <rect class="st4" x="2641.83" y="1188" width="13.58" height="19.16"/>
    <rect class="st4" x="2598.92" y="1161.22" width="13.58" height="19.16"/>
    <rect class="st4" x="2598.92" y="1134.44" width="13.58" height="19.16"/>
    <rect class="st4" x="2598.92" y="1107.66" width="13.58" height="19.16"/>
    <rect class="st4" x="2641.83" y="1144.02" width="13.58" height="19.16"/>
    <rect class="st4" x="2641.83" y="1117.24" width="13.58" height="19.16"/>
    <rect class="st4" x="2641.83" y="1090.46" width="13.58" height="19.16"/>
    <rect class="st4" x="2598.92" y="1047.08" width="13.58" height="19.16"/>
    <rect class="st4" x="2598.92" y="1020.3" width="13.58" height="19.16"/>
    <rect class="st4" x="2598.92" y="993.52" width="13.58" height="19.16"/>
    <rect class="st4" x="2641.83" y="1027.92" width="13.58" height="19.16"/>
    <rect class="st4" x="2641.83" y="1001.14" width="13.58" height="19.16"/>
    <rect class="st4" x="2641.83" y="974.36" width="13.58" height="19.16"/>
    <rect class="st4" x="2641.83" y="946.97" width="13.58" height="19.16"/>
    <rect class="st4" x="2603.71" y="971.07" width="8.79" height="12.4"/>
    <rect class="st4" x="2603.71" y="953.74" width="8.79" height="12.4"/>
    <rect class="st4" x="2603.71" y="936.41" width="8.79" height="12.4"/>
    <rect class="st4" x="2603.71" y="888.91" width="8.79" height="12.4"/>
    <rect class="st4" x="2603.71" y="871.58" width="8.79" height="12.4"/>
    <rect class="st4" x="2603.71" y="854.25" width="8.79" height="12.4"/>
    <rect class="st4" x="2603.71" y="836.92" width="8.79" height="12.4"/>
    <rect class="st4" x="2603.71" y="819.59" width="8.79" height="12.4"/>
    <rect class="st4" x="2641.83" y="888.91" width="8.79" height="12.4"/>
    <rect class="st4" x="2641.83" y="871.58" width="8.79" height="12.4"/>
    <rect class="st4" x="2641.83" y="854.25" width="8.79" height="12.4"/>
    <rect class="st4" x="2641.83" y="836.92" width="8.79" height="12.4"/>
    <rect class="st4" x="2641.83" y="819.59" width="8.79" height="12.4"/>
    <rect class="st4" x="2641.83" y="802.26" width="8.79" height="12.4"/>
    <rect class="st4" x="2641.83" y="740.66" width="8.79" height="12.4"/>
    <rect class="st4" x="2641.83" y="723.33" width="8.79" height="12.4"/>
    <rect class="st4" x="2641.83" y="706" width="8.79" height="12.4"/>
    <rect class="st4" x="2641.83" y="688.67" width="8.79" height="12.4"/>
    <rect class="st4" x="2603.71" y="753.41" width="8.79" height="12.4"/>
    <rect class="st4" x="2603.71" y="736.08" width="8.79" height="12.4"/>
    <rect class="st4" x="2603.71" y="718.75" width="8.79" height="12.4"/>
    <line class="st4" x1="2641.83" y1="1348.91" x2="2691.33" y2="1348.91"/>
    <line class="st4" x1="2641.83" y1="1358.57" x2="2691.81" y2="1358.57"/>
    <line class="st4" x1="2641.83" y1="1215.75" x2="2684.72" y2="1215.75"/>
    <line class="st4" x1="2641.83" y1="1225.41" x2="2685.2" y2="1225.41"/>
    <line class="st4" x1="2641.83" y1="1066.24" x2="2677.3" y2="1066.24"/>
    <line class="st4" x1="2641.83" y1="1075.91" x2="2677.3" y2="1075.91"/>
    <line class="st4" x1="2641.83" y1="917.74" x2="2669.93" y2="917.74"/>
    <line class="st4" x1="2641.83" y1="927.41" x2="2670.41" y2="927.41"/>
    <line class="st4" x1="2641.83" y1="777.66" x2="2662.97" y2="777.66"/>
    <line class="st4" x1="2641.83" y1="787.32" x2="2662.97" y2="787.32"/>
    <path class="st2" d="M2757.83,1437.57v-6.33s-17,0-17,0v-6.33h-34s-1.82-1.56-12.13-8.13l-43.54-876.87-9.33-13.5s0-157.5,0-157.5l-7.99,27.16-9.45-283.67-24.55,494.52h-22.67v12.66h10.67c3.92,0,7.9,1.07,11.49,3.24l-.3.48-39.4,793.49h0c-10.31,6.57-12.13,8.13-12.13,8.13h-34v6.33h-17v6.33h-17v12.34h295.33v-12.34h-17Z"/>
  </g>
  <g>
    <path class="st1" d="M1384.78,837.91h-21c-3-43,7.87-88,7.87-88,0,0-18.87-11-52.87-26-2.61,10.65-5.02,21.73-7.24,33.15l-31.76-6.15c-30,219-2,451,14.58,575.18h0c1.42,18.81,3.27,37.61,5.61,56.3h-206.53v67.51h359.33s-119-278-68-612Z"/>
    <path class="st4" d="M1299.98,1382.4c2.85,22.74,6.41,45.31,10.81,67.51"/>
    <path class="st4" d="M1363.78,837.91h-34s-53.84,244.32-35.42,488.18"/>
    <path class="st4" d="M1290.6,1204.51c-3.57-51.96-10.79-284.23,20.94-447.45"/>
    <rect class="st4" x="1328.45" y="1368.24" width="74.67" height="9.25"/>
    <rect class="st4" x="1334.32" y="1388.32" width="74.67" height="9.25"/>
    <rect class="st4" x="1340.19" y="1408.41" width="74.67" height="9.25"/>
    <rect class="st4" x="1346.07" y="1428.49" width="74.67" height="9.25"/>
    <line class="st4" x1="1422.05" y1="1359.38" x2="1297.35" y2="1359.38"/>
    <line class="st4" x1="1296.21" y1="1347.92" x2="1418.81" y2="1347.92"/>
    <line class="st4" x1="1295.24" y1="1337.01" x2="1425.84" y2="1337.01"/>
    <line class="st4" x1="1294.37" y1="1326.1" x2="1412.97" y2="1326.1"/>
    <line class="st4" x1="1293.59" y1="1315.18" x2="1420.21" y2="1315.18"/>
    <line class="st4" x1="1292.91" y1="1304.27" x2="1407.54" y2="1304.27"/>
    <line class="st4" x1="1292.31" y1="1293.36" x2="1414.99" y2="1293.36"/>
    <line class="st4" x1="1291.81" y1="1282.45" x2="1402.52" y2="1282.45"/>
    <line class="st4" x1="1291.39" y1="1271.54" x2="1410.17" y2="1271.54"/>
    <line class="st4" x1="1291.06" y1="1260.63" x2="1397.9" y2="1260.63"/>
    <line class="st4" x1="1290.81" y1="1249.72" x2="1405.73" y2="1249.72"/>
    <line class="st4" x1="1290.64" y1="1238.81" x2="1393.65" y2="1238.81"/>
    <line class="st4" x1="1290.54" y1="1227.9" x2="1401.68" y2="1227.9"/>
    <line class="st4" x1="1290.53" y1="1216.99" x2="1389.8" y2="1216.99"/>
    <line class="st4" x1="1290.53" y1="1206.08" x2="1398.01" y2="1206.08"/>
    <line class="st4" x1="1290.53" y1="1195.17" x2="1386.31" y2="1195.17"/>
    <line class="st4" x1="1290.91" y1="1184.26" x2="1394.72" y2="1184.26"/>
    <line class="st4" x1="1291.19" y1="1173.35" x2="1383.21" y2="1173.35"/>
    <line class="st4" x1="1291.53" y1="1162.43" x2="1391.81" y2="1162.43"/>
    <line class="st4" x1="1291.93" y1="1151.52" x2="1380.49" y2="1151.52"/>
    <line class="st4" x1="1292.41" y1="1140.61" x2="1389.27" y2="1140.61"/>
    <line class="st4" x1="1292.95" y1="1129.7" x2="1378.14" y2="1129.7"/>
    <line class="st4" x1="1293.55" y1="1118.79" x2="1387.11" y2="1118.79"/>
    <line class="st4" x1="1294.22" y1="1107.88" x2="1376.16" y2="1107.88"/>
    <line class="st4" x1="1294.94" y1="1096.97" x2="1385.34" y2="1096.97"/>
    <line class="st4" x1="1295.73" y1="1086.06" x2="1374.58" y2="1086.06"/>
    <line class="st4" x1="1296.58" y1="1075.15" x2="1383.94" y2="1075.15"/>
    <line class="st4" x1="1297.49" y1="1064.24" x2="1373.38" y2="1064.24"/>
    <line class="st4" x1="1298.46" y1="1053.33" x2="1382.93" y2="1053.33"/>
    <line class="st4" x1="1299.49" y1="1042.42" x2="1372.56" y2="1042.42"/>
    <line class="st4" x1="1300.58" y1="1031.51" x2="1382.31" y2="1031.51"/>
    <line class="st4" x1="1301.72" y1="1020.6" x2="1372.14" y2="1020.6"/>
    <line class="st4" x1="1302.92" y1="1009.68" x2="1382.09" y2="1009.68"/>
    <line class="st4" x1="1304.18" y1="998.77" x2="1372.12" y2="998.77"/>
    <line class="st4" x1="1305.49" y1="987.86" x2="1382.26" y2="987.86"/>
    <line class="st4" x1="1306.87" y1="976.95" x2="1372.49" y2="976.95"/>
    <line class="st4" x1="1308.3" y1="966.04" x2="1382.84" y2="966.04"/>
    <line class="st4" x1="1309.78" y1="955.13" x2="1373.28" y2="955.13"/>
    <line class="st4" x1="1311.33" y1="944.22" x2="1383.82" y2="944.22"/>
    <line class="st4" x1="1312.93" y1="933.31" x2="1374.48" y2="933.31"/>
    <line class="st4" x1="1314.59" y1="922.4" x2="1385.28" y2="922.4"/>
    <line class="st4" x1="1316.31" y1="911.49" x2="1376.1" y2="911.49"/>
    <line class="st4" x1="1318.1" y1="900.58" x2="1387.08" y2="900.58"/>
    <line class="st4" x1="1319.95" y1="889.67" x2="1378.15" y2="889.67"/>
    <line class="st4" x1="1321.86" y1="878.76" x2="1389.35" y2="878.76"/>
    <line class="st4" x1="1323.85" y1="867.85" x2="1380.64" y2="867.85"/>
    <line class="st4" x1="1325.92" y1="856.94" x2="1392.06" y2="856.94"/>
    <line class="st4" x1="1328.08" y1="846.02" x2="1383.58" y2="846.02"/>
    <rect class="st4" x="1107.28" y="1395.41" width="34.93" height="8"/>
    <rect class="st4" x="1107.28" y="1412.15" width="34.93" height="8"/>
    <rect class="st4" x="1107.28" y="1428.9" width="34.93" height="8"/>
    <rect class="st4" x="1156.72" y="1395.41" width="34.93" height="8"/>
    <rect class="st4" x="1156.72" y="1412.15" width="34.93" height="8"/>
    <rect class="st4" x="1156.72" y="1428.9" width="34.93" height="8"/>
    <rect class="st4" x="1206.16" y="1395.41" width="34.93" height="8"/>
    <rect class="st4" x="1206.16" y="1412.15" width="34.93" height="8"/>
    <rect class="st4" x="1206.16" y="1428.9" width="34.93" height="8"/>
    <rect class="st4" x="1255.59" y="1395.41" width="34.93" height="8"/>
    <rect class="st4" x="1255.59" y="1412.15" width="34.93" height="8"/>
    <rect class="st4" x="1255.59" y="1428.9" width="34.93" height="8"/>
    <path class="st2" d="M1384.78,837.91h-21c-3-43,7.87-88,7.87-88,0,0-18.87-11-52.87-26-2.61,10.65-5.02,21.73-7.24,33.15l-31.76-6.15c-30,219-2,451,14.58,575.18h0c1.42,18.81,3.27,37.61,5.61,56.3h-206.53v67.51h359.33s-119-278-68-612Z"/>
    <line class="st4" x1="1330.78" y1="760.91" x2="1343.88" y2="760.91"/>
    <line class="st4" x1="1328.89" y1="778.41" x2="1341.98" y2="778.41"/>
    <line class="st4" x1="1326.99" y1="795.91" x2="1340.09" y2="795.91"/>
    <line class="st4" x1="1325.1" y1="813.41" x2="1338.19" y2="813.41"/>
  </g>
  <g>
    <path class="st1" d="M2098.33,1201.99c.23.68.35,1.41.35,2.16,0,3.81-3.09,6.9-6.89,6.9s-6.9-3.09-6.9-6.9c0-.76.13-1.48.35-2.16-1.52,1.61-2.46,3.78-2.46,6.17,0,4.97,4.03,9,9,9s9-4.03,9-9c0-2.39-.94-4.55-2.46-6.17Z"/>
    <path class="st1" d="M2314.33,1286.58c-3.38,0-6.13,2.74-6.13,6.13,0-3.38-2.74-6.13-6.13-6.13s-6.13,2.74-6.13,6.13c0-3.38-2.74-6.13-6.13-6.13s-6.13,2.74-6.13,6.13c0-3.38-2.74-6.13-6.13-6.13s-6.13,2.74-6.13,6.13c0-3.38-2.74-6.13-6.13-6.13v-27.27l6.64-7.99v-12.17h-9.58v-92.83h2.92v-6.67h2.92v-6.67h2.92v-28.33h-10s0-25,0-25l4.17-7.83v-8.5h-4.83v-13.5c0-4.23-3.43-7.67-7.67-7.67s-7.67,3.43-7.67,7.67v13.5h-4.83v8.5l4.17,7.83v25h-10v28.33h2.92v6.67h2.92v6.67h2.92v92.83h-9.58v12.17l6.64,7.99v27.29c-3.12.28-5.57,2.9-5.57,6.1,0-3.38-2.74-6.13-6.13-6.13s-6.13,2.74-6.13,6.13c0-3.38-2.74-6.13-6.13-6.13s-6.13,2.74-6.13,6.13c0-3.38-2.74-6.13-6.13-6.13-36.76-52.92-92.77-58.92-112.27-58.92s-75.51,6-112.27,58.92c-3.38,0-6.13,2.74-6.13,6.13,0-3.38-2.74-6.13-6.13-6.13s-6.13,2.74-6.13,6.13c0-3.38-2.74-6.13-6.13-6.13s-6.13,2.74-6.13,6.13c0-3.2-2.45-5.82-5.57-6.1-.18-.02-.37-.02-.55-.02-3.38,0-6.13,2.74-6.13,6.13,0-3.38-2.74-6.13-6.13-6.13s-6.13,2.74-6.13,6.13c0-3.38-2.74-6.13-6.13-6.13s-6.13,2.74-6.13,6.13c0-3.38-2.74-6.13-6.13-6.13s-6.13,2.74-6.13,6.13c0-3.38-2.74-6.13-6.13-6.13s-6.13,2.74-6.13,6.13c0-3.38-2.74-6.13-6.13-6.13s-6.13,2.74-6.13,6.13c0-3.38-2.74-6.13-6.13-6.13s-6.13,2.74-6.13,6.13v157.2h37.09v-26.92h69.2v26.92h37.09v-26.92s85.29,0,85.29,0h85.29v26.92s37.09,0,37.09,0v-26.92h69.2v26.92h37.09v-157.2c0-3.38-2.74-6.13-6.13-6.13Z"/>
    <path class="st4" d="M2071.46,1294.99c0-11.23,9.1-20.33,20.33-20.33s20.33,9.1,20.33,20.33h-40.67Z"/>
    <polyline class="st4" points="2112.12 1294.99 2112.12 1398.66 2091.79 1398.66"/>
    <polyline class="st4" points="2106.79 1398.66 2106.79 1406.66 2091.79 1406.66"/>
    <polyline class="st4" points="2099.29 1406.66 2099.29 1414.66 2091.79 1414.66"/>
    <polyline class="st4" points="2112.12 1300.33 2133.46 1300.33 2133.46 1414.66"/>
    <line class="st4" x1="2112.12" y1="1398.66" x2="2112.12" y2="1414.66"/>
    <line class="st4" x1="2112.12" y1="1406.66" x2="2133.46" y2="1406.66"/>
    <path class="st4" d="M2112.12,1323.81c0-5.89,4.78-10.67,10.67-10.67s10.67,4.78,10.67,10.67"/>
    <path class="st4" d="M2228.59,1350.94c0-13.37,10.84-24.21,24.21-24.21s24.21,10.84,24.21,24.21"/>
    <line class="st4" x1="2112.12" y1="1390.66" x2="2133.46" y2="1390.66"/>
    <line class="st4" x1="2122.79" y1="1390.66" x2="2122.79" y2="1323.81"/>
    <line class="st4" x1="2252.79" y1="1407.8" x2="2252.79" y2="1346.83"/>
    <line class="st4" x1="2283.37" y1="1422.99" x2="2320.46" y2="1422.99"/>
    <line class="st4" x1="2177.08" y1="1422.99" x2="2214.17" y2="1422.99"/>
    <line class="st4" x1="2133.46" y1="1300.33" x2="2320.46" y2="1300.33"/>
    <polyline class="st4" points="2320.46 1315.33 2133.46 1315.33 2133.46 1300.33 2320.46 1300.33"/>
    <rect class="st4" x="2185.12" y="1315.33" width="21" height="92.47"/>
    <polyline class="st4" points="2320.46 1407.8 2299.46 1407.8 2299.46 1315.33 2320.46 1315.33"/>
    <rect class="st4" x="2228.59" y="1315.33" width="48.41" height="92.47"/>
    <line class="st4" x1="2228.59" y1="1414.66" x2="2228.59" y2="1407.8"/>
    <line class="st4" x1="2277" y1="1414.66" x2="2277" y2="1407.8"/>
    <path class="st4" d="M2217.35,1407.51c0,3.1,2.51,5.62,5.62,5.62s5.62-2.51,5.62-5.62"/>
    <path class="st4" d="M2206.12,1407.51c0,3.1,2.51,5.62,5.62,5.62s5.62-2.51,5.62-5.62"/>
    <path class="st4" d="M2172.2,1406.66c0,3.57,2.89,6.46,6.46,6.46s6.46-2.89,6.46-6.46"/>
    <path class="st4" d="M2159.28,1406.66c0,3.57,2.89,6.46,6.46,6.46s6.46-2.89,6.46-6.46"/>
    <path class="st4" d="M2146.36,1406.66c0,3.57,2.89,6.46,6.46,6.46s6.46-2.89,6.46-6.46"/>
    <path class="st4" d="M2133.44,1406.66c0,3.57,2.89,6.46,6.46,6.46s6.46-2.89,6.46-6.46"/>
    <path class="st4" d="M2288.23,1407.51c0,3.1,2.51,5.62,5.62,5.62s5.62-2.51,5.62-5.62"/>
    <path class="st4" d="M2277,1407.51c0,3.1,2.51,5.62,5.62,5.62s5.62-2.51,5.62-5.62"/>
    <line class="st4" x1="2146.36" y1="1398.66" x2="2146.36" y2="1326.73"/>
    <line class="st4" x1="2159.29" y1="1398.66" x2="2159.29" y2="1326.73"/>
    <line class="st4" x1="2172.22" y1="1398.66" x2="2172.22" y2="1326.73"/>
    <line class="st4" x1="2217.35" y1="1398.66" x2="2217.35" y2="1326.73"/>
    <line class="st4" x1="2288.23" y1="1398.66" x2="2288.23" y2="1326.73"/>
    <path class="st4" d="M2112.16,1292.71c0-3.38,2.74-6.13,6.13-6.13s6.13,2.74,6.13,6.13"/>
    <path class="st4" d="M2124.41,1292.71c0-3.38,2.74-6.13,6.13-6.13s6.13,2.74,6.13,6.13"/>
    <path class="st4" d="M2136.67,1292.71c0-3.38,2.74-6.13,6.13-6.13s6.13,2.74,6.13,6.13"/>
    <path class="st4" d="M2148.92,1292.71c0-3.38,2.74-6.13,6.13-6.13s6.13,2.74,6.13,6.13"/>
    <path class="st4" d="M2161.17,1292.71c0-3.38,2.74-6.13,6.13-6.13s6.13,2.74,6.13,6.13"/>
    <path class="st4" d="M2173.43,1292.71c0-3.38,2.74-6.13,6.13-6.13s6.13,2.74,6.13,6.13"/>
    <path class="st4" d="M2185.68,1292.71c0-3.38,2.74-6.13,6.13-6.13s6.13,2.74,6.13,6.13"/>
    <path class="st4" d="M2197.93,1292.71c0-3.38,2.74-6.13,6.13-6.13"/>
    <path class="st4" d="M2240.26,1286.61c.18-.02.37-.02.55-.02,3.38,0,6.13,2.74,6.13,6.13"/>
    <path class="st4" d="M2246.94,1292.71c0-3.38,2.74-6.13,6.13-6.13s6.13,2.74,6.13,6.13"/>
    <path class="st4" d="M2259.19,1292.71c0-3.38,2.74-6.13,6.13-6.13"/>
    <line class="st4" x1="2240.26" y1="1259.31" x2="2265.32" y2="1259.31"/>
    <line class="st4" x1="2233.62" y1="1251.33" x2="2252.79" y2="1251.33"/>
    <line class="st4" x1="2243.21" y1="1239.16" x2="2252.79" y2="1239.16"/>
    <line class="st4" x1="2244.46" y1="1132.99" x2="2252.79" y2="1132.99"/>
    <line class="st4" x1="2248" y1="1139.66" x2="2252.79" y2="1139.66"/>
    <line class="st4" x1="2244.46" y1="1104.66" x2="2252.79" y2="1104.66"/>
    <line class="st4" x1="2244.46" y1="1079.66" x2="2252.79" y2="1079.66"/>
    <line class="st4" x1="2245.12" y1="1063.33" x2="2252.79" y2="1063.33"/>
    <line class="st4" x1="2252.79" y1="1033.83" x2="2252.79" y2="1024.33"/>
    <line class="st4" x1="2271.96" y1="1251.33" x2="2252.79" y2="1251.33"/>
    <line class="st4" x1="2262.37" y1="1239.16" x2="2252.79" y2="1239.16"/>
    <line class="st4" x1="2261.12" y1="1132.99" x2="2252.79" y2="1132.99"/>
    <line class="st4" x1="2257.58" y1="1139.66" x2="2252.79" y2="1139.66"/>
    <line class="st4" x1="2261.12" y1="1104.66" x2="2252.79" y2="1104.66"/>
    <line class="st4" x1="2261.12" y1="1079.66" x2="2252.79" y2="1079.66"/>
    <line class="st4" x1="2260.46" y1="1063.33" x2="2252.79" y2="1063.33"/>
    <rect class="st4" x="2088.54" y="1259.91" width="6.5" height="6.5"/>
    <rect class="st4" x="2100.79" y="1259.91" width="6.5" height="6.5"/>
    <rect class="st4" x="2113.04" y="1259.91" width="6.5" height="6.5"/>
    <rect class="st4" x="2125.29" y="1259.91" width="6.5" height="6.5"/>
    <rect class="st4" x="2137.54" y="1259.91" width="6.5" height="6.5"/>
    <rect class="st4" x="2149.79" y="1259.91" width="6.5" height="6.5"/>
    <rect class="st4" x="2162.04" y="1259.91" width="6.5" height="6.5"/>
    <path class="st4" d="M2098.33,1201.99c.23.68.35,1.41.35,2.16,0,3.81-3.09,6.9-6.89,6.9s-6.9-3.09-6.9-6.9c0-.76.13-1.48.35-2.16-1.52,1.61-2.46,3.78-2.46,6.17,0,4.97,4.03,9,9,9s9-4.03,9-9c0-2.39-.94-4.55-2.46-6.17Z"/>
    <line class="st4" x1="2091.79" y1="1217.16" x2="2091.79" y2="1227.66"/>
    <line class="st4" x1="2243.21" y1="1146.33" x2="2252.79" y2="1146.33"/>
    <line class="st4" x1="2262.37" y1="1146.33" x2="2252.79" y2="1146.33"/>
    <line class="st4" x1="2234.46" y1="1126.33" x2="2252.79" y2="1126.33"/>
    <line class="st4" x1="2271.12" y1="1126.33" x2="2252.79" y2="1126.33"/>
    <polyline class="st4" points="2071.46 1294.99 2071.46 1398.66 2091.79 1398.66"/>
    <polyline class="st4" points="2076.79 1398.66 2076.79 1406.66 2091.79 1406.66"/>
    <polyline class="st4" points="2084.29 1406.66 2084.29 1414.66 2091.79 1414.66"/>
    <polyline class="st4" points="2071.46 1300.33 2050.12 1300.33 2050.12 1414.66"/>
    <line class="st4" x1="2071.46" y1="1398.66" x2="2071.46" y2="1414.66"/>
    <line class="st4" x1="2071.46" y1="1406.66" x2="2050.12" y2="1406.66"/>
    <path class="st4" d="M2071.46,1323.81c0-5.89-4.78-10.67-10.67-10.67s-10.67,4.78-10.67,10.67"/>
    <path class="st4" d="M1955,1350.94c0-13.37-10.84-24.21-24.21-24.21s-24.21,10.84-24.21,24.21"/>
    <line class="st4" x1="2071.46" y1="1390.66" x2="2050.12" y2="1390.66"/>
    <line class="st4" x1="2060.79" y1="1390.66" x2="2060.79" y2="1323.81"/>
    <line class="st4" x1="1930.79" y1="1407.8" x2="1930.79" y2="1346.83"/>
    <line class="st4" x1="1900.21" y1="1422.99" x2="1863.12" y2="1422.99"/>
    <line class="st4" x1="2006.5" y1="1422.99" x2="1969.41" y2="1422.99"/>
    <line class="st4" x1="2050.12" y1="1300.33" x2="1863.12" y2="1300.33"/>
    <polyline class="st4" points="1863.12 1315.33 2050.12 1315.33 2050.12 1300.33 1863.12 1300.33"/>
    <rect class="st4" x="1977.46" y="1315.33" width="21" height="92.47" transform="translate(3975.92 2723.12) rotate(180)"/>
    <polyline class="st4" points="1863.12 1407.8 1884.12 1407.8 1884.12 1315.33 1863.12 1315.33"/>
    <rect class="st4" x="1906.59" y="1315.33" width="48.41" height="92.47" transform="translate(3861.58 2723.12) rotate(180)"/>
    <line class="st4" x1="1955" y1="1414.66" x2="1955" y2="1407.8"/>
    <line class="st4" x1="1906.59" y1="1414.66" x2="1906.59" y2="1407.8"/>
    <path class="st4" d="M1966.23,1407.51c0,3.1-2.51,5.62-5.62,5.62s-5.62-2.51-5.62-5.62"/>
    <path class="st4" d="M1977.46,1407.51c0,3.1-2.51,5.62-5.62,5.62s-5.62-2.51-5.62-5.62"/>
    <path class="st4" d="M2011.38,1406.66c0,3.57-2.89,6.46-6.46,6.46s-6.46-2.89-6.46-6.46"/>
    <path class="st4" d="M2024.3,1406.66c0,3.57-2.89,6.46-6.46,6.46s-6.46-2.89-6.46-6.46"/>
    <path class="st4" d="M2037.22,1406.66c0,3.57-2.89,6.46-6.46,6.46s-6.46-2.89-6.46-6.46"/>
    <path class="st4" d="M2050.15,1406.66c0,3.57-2.89,6.46-6.46,6.46s-6.46-2.89-6.46-6.46"/>
    <path class="st4" d="M1895.35,1407.51c0,3.1-2.51,5.62-5.62,5.62s-5.62-2.51-5.62-5.62"/>
    <path class="st4" d="M1906.59,1407.51c0,3.1-2.51,5.62-5.62,5.62s-5.62-2.51-5.62-5.62"/>
    <line class="st4" x1="2037.22" y1="1398.66" x2="2037.22" y2="1326.73"/>
    <line class="st4" x1="2024.29" y1="1398.66" x2="2024.29" y2="1326.73"/>
    <line class="st4" x1="2011.36" y1="1398.66" x2="2011.36" y2="1326.73"/>
    <line class="st4" x1="1966.23" y1="1398.66" x2="1966.23" y2="1326.73"/>
    <line class="st4" x1="1895.35" y1="1398.66" x2="1895.35" y2="1326.73"/>
    <path class="st4" d="M2071.42,1292.71c0-3.38-2.74-6.13-6.13-6.13s-6.13,2.74-6.13,6.13"/>
    <path class="st4" d="M2059.17,1292.71c0-3.38-2.74-6.13-6.13-6.13s-6.13,2.74-6.13,6.13"/>
    <path class="st4" d="M2046.91,1292.71c0-3.38-2.74-6.13-6.13-6.13s-6.13,2.74-6.13,6.13"/>
    <path class="st4" d="M2034.66,1292.71c0-3.38-2.74-6.13-6.13-6.13s-6.13,2.74-6.13,6.13"/>
    <path class="st4" d="M2022.41,1292.71c0-3.38-2.74-6.13-6.13-6.13s-6.13,2.74-6.13,6.13"/>
    <path class="st4" d="M2010.16,1292.71c0-3.38-2.74-6.13-6.13-6.13s-6.13,2.74-6.13,6.13"/>
    <path class="st4" d="M1997.9,1292.71c0-3.38-2.74-6.13-6.13-6.13s-6.13,2.74-6.13,6.13"/>
    <path class="st4" d="M1985.65,1292.71c0-3.38-2.74-6.13-6.13-6.13"/>
    <rect class="st4" x="2076.29" y="1259.91" width="6.5" height="6.5" transform="translate(4159.08 2526.32) rotate(180)"/>
    <rect class="st4" x="2064.04" y="1259.91" width="6.5" height="6.5" transform="translate(4134.58 2526.32) rotate(180)"/>
    <rect class="st4" x="2051.79" y="1259.91" width="6.5" height="6.5" transform="translate(4110.08 2526.32) rotate(180)"/>
    <rect class="st4" x="2039.54" y="1259.91" width="6.5" height="6.5" transform="translate(4085.58 2526.32) rotate(180)"/>
    <rect class="st4" x="2027.29" y="1259.91" width="6.5" height="6.5" transform="translate(4061.08 2526.32) rotate(180)"/>
    <rect class="st4" x="2015.04" y="1259.91" width="6.5" height="6.5" transform="translate(4036.58 2526.32) rotate(180)"/>
    <line class="st4" x1="2091.79" y1="1217.16" x2="2091.79" y2="1227.66"/>
    <path class="st2" d="M2314.33,1286.58c-3.38,0-6.13,2.74-6.13,6.13,0-3.38-2.74-6.13-6.13-6.13s-6.13,2.74-6.13,6.13c0-3.38-2.74-6.13-6.13-6.13s-6.13,2.74-6.13,6.13c0-3.38-2.74-6.13-6.13-6.13s-6.13,2.74-6.13,6.13c0-3.38-2.74-6.13-6.13-6.13v-27.27l6.64-7.99v-12.17h-9.58v-92.83h2.92v-6.67h2.92v-6.67h2.92v-28.33h-10s0-25,0-25l4.17-7.83v-8.5h-4.83v-13.5c0-4.23-3.43-7.67-7.67-7.67s-7.67,3.43-7.67,7.67v13.5h-4.83v8.5l4.17,7.83v25h-10v28.33h2.92v6.67h2.92v6.67h2.92v92.83h-9.58v12.17l6.64,7.99v27.29c-3.12.28-5.57,2.9-5.57,6.1,0-3.38-2.74-6.13-6.13-6.13s-6.13,2.74-6.13,6.13c0-3.38-2.74-6.13-6.13-6.13s-6.13,2.74-6.13,6.13c0-3.38-2.74-6.13-6.13-6.13-36.76-52.92-92.77-58.92-112.27-58.92s-75.51,6-112.27,58.92c-3.38,0-6.13,2.74-6.13,6.13,0-3.38-2.74-6.13-6.13-6.13s-6.13,2.74-6.13,6.13c0-3.38-2.74-6.13-6.13-6.13s-6.13,2.74-6.13,6.13c0-3.2-2.45-5.82-5.57-6.1-.18-.02-.37-.02-.55-.02-3.38,0-6.13,2.74-6.13,6.13,0-3.38-2.74-6.13-6.13-6.13s-6.13,2.74-6.13,6.13c0-3.38-2.74-6.13-6.13-6.13s-6.13,2.74-6.13,6.13c0-3.38-2.74-6.13-6.13-6.13s-6.13,2.74-6.13,6.13c0-3.38-2.74-6.13-6.13-6.13s-6.13,2.74-6.13,6.13c0-3.38-2.74-6.13-6.13-6.13s-6.13,2.74-6.13,6.13c0-3.38-2.74-6.13-6.13-6.13s-6.13,2.74-6.13,6.13v157.2h37.09v-26.92h69.2v26.92h37.09v-26.92s85.29,0,85.29,0h85.29v26.92s37.09,0,37.09,0v-26.92h69.2v26.92h37.09v-157.2c0-3.38-2.74-6.13-6.13-6.13Z"/>
  </g>
  <g>
    <polygon class="st1" points="1873.13 1092.3 1873.13 1032.58 1757.22 1032.58 1757.02 1016.47 1753.86 1016.47 1753.7 1016.47 1747.54 1016.47 1742.27 1437.96 1717.84 1441.12 1717.84 1449.91 1753.7 1449.91 1753.86 1449.91 1786.72 1449.91 1786.72 1441.12 1762.29 1437.96 1757.97 1092.3 1758.07 1092.3 1873.13 1092.3"/>
    <line class="st4" x1="1742.27" y1="1437.96" x2="1753.7" y2="1437.96"/>
    <line class="st4" x1="1762.29" y1="1437.96" x2="1753.86" y2="1437.96"/>
    <polygon class="st2" points="1873.13 1092.3 1873.13 1032.58 1757.22 1032.58 1757.02 1016.47 1753.86 1016.47 1753.7 1016.47 1747.54 1016.47 1742.27 1437.96 1717.84 1441.12 1717.84 1449.91 1753.7 1449.91 1753.86 1449.91 1786.72 1449.91 1786.72 1441.12 1762.29 1437.96 1757.97 1092.3 1758.07 1092.3 1873.13 1092.3"/>
    <line class="st4" x1="1757.22" y1="1032.58" x2="1757.97" y2="1092.3"/>
  </g>
  <g>
    <path class="st1" d="M3626.72,1307.72c-15.21,0-27.53,12.33-27.53,27.53h55.07c0-15.21-12.33-27.53-27.53-27.53Z"/>
    <path class="st1" d="M3681.79,1307.72c-15.21,0-27.53,12.33-27.53,27.53h55.07c0-15.21-12.32-27.53-27.53-27.53Z"/>
    <path class="st1" d="M3622.54,1347.49c-6.17,11.35-1.96,25.55,9.39,31.71l22.32-41.11c-11.35-6.17-25.55-1.96-31.71,9.39Z"/>
    <path class="st1" d="M3685.96,1347.49c6.16,11.35,1.96,25.55-9.39,31.71l-22.32-41.11c11.35-6.17,25.55-1.96,31.71,9.39Z"/>
    <path class="st2" d="M3626.72,1307.72c-15.21,0-27.53,12.33-27.53,27.53h55.07c0-15.21-12.33-27.53-27.53-27.53Z"/>
    <path class="st2" d="M3681.79,1307.72c-15.21,0-27.53,12.33-27.53,27.53h55.07c0-15.21-12.32-27.53-27.53-27.53Z"/>
    <path class="st2" d="M3622.54,1347.49c-6.17,11.35-1.96,25.55,9.39,31.71l22.32-41.11c-11.35-6.17-25.55-1.96-31.71,9.39Z"/>
    <path class="st2" d="M3685.96,1347.49c6.16,11.35,1.96,25.55-9.39,31.71l-22.32-41.11c11.35-6.17,25.55-1.96,31.71,9.39Z"/>
    <line class="st4" x1="3654.25" y1="1449.91" x2="3654.25" y2="1336.62"/>
  </g>
  <g>
    <path class="st1" d="M1835.59,1140.21c-15.21,0-27.53,12.33-27.53,27.53h55.07c0-15.21-12.33-27.53-27.53-27.53Z"/>
    <path class="st1" d="M1890.66,1140.21c-15.21,0-27.53,12.33-27.53,27.53h55.07c0-15.21-12.32-27.53-27.53-27.53Z"/>
    <path class="st1" d="M1831.41,1179.98c-6.17,11.35-1.96,25.55,9.39,31.71l22.32-41.11c-11.35-6.17-25.55-1.96-31.71,9.39Z"/>
    <path class="st1" d="M1894.83,1179.98c6.16,11.35,1.96,25.55-9.39,31.71l-22.32-41.11c11.35-6.17,25.55-1.96,31.71,9.39Z"/>
    <path class="st2" d="M1835.59,1140.21c-15.21,0-27.53,12.33-27.53,27.53h55.07c0-15.21-12.33-27.53-27.53-27.53Z"/>
    <path class="st2" d="M1890.66,1140.21c-15.21,0-27.53,12.33-27.53,27.53h55.07c0-15.21-12.32-27.53-27.53-27.53Z"/>
    <path class="st2" d="M1831.41,1179.98c-6.17,11.35-1.96,25.55,9.39,31.71l22.32-41.11c-11.35-6.17-25.55-1.96-31.71,9.39Z"/>
    <path class="st2" d="M1894.83,1179.98c6.16,11.35,1.96,25.55-9.39,31.71l-22.32-41.11c11.35-6.17,25.55-1.96,31.71,9.39Z"/>
    <line class="st4" x1="1863.12" y1="1449.91" x2="1863.12" y2="1169.11"/>
  </g>
  <g>
    <path class="st1" d="M2432.71,1250.3c-15.21,0-27.53,12.33-27.53,27.53h55.07c0-15.21-12.33-27.53-27.53-27.53Z"/>
    <path class="st1" d="M2487.78,1250.3c-15.21,0-27.53,12.33-27.53,27.53h55.07c0-15.21-12.32-27.53-27.53-27.53Z"/>
    <path class="st1" d="M2428.54,1290.06c-6.17,11.35-1.96,25.55,9.39,31.71l22.32-41.11c-11.35-6.17-25.55-1.96-31.71,9.39Z"/>
    <path class="st1" d="M2491.96,1290.06c6.16,11.35,1.96,25.55-9.39,31.71l-22.32-41.11c11.35-6.17,25.55-1.96,31.71,9.39Z"/>
    <path class="st2" d="M2432.71,1250.3c-15.21,0-27.53,12.33-27.53,27.53h55.07c0-15.21-12.33-27.53-27.53-27.53Z"/>
    <path class="st2" d="M2487.78,1250.3c-15.21,0-27.53,12.33-27.53,27.53h55.07c0-15.21-12.32-27.53-27.53-27.53Z"/>
    <path class="st2" d="M2428.54,1290.06c-6.17,11.35-1.96,25.55,9.39,31.71l22.32-41.11c-11.35-6.17-25.55-1.96-31.71,9.39Z"/>
    <path class="st2" d="M2491.96,1290.06c6.16,11.35,1.96,25.55-9.39,31.71l-22.32-41.11c11.35-6.17,25.55-1.96,31.71,9.39Z"/>
    <line class="st4" x1="2460.25" y1="1449.91" x2="2460.25" y2="1279.2"/>
  </g>
  <g>
    <path class="st1" d="M1432.29,1060.62c-15.21,0-27.53,12.33-27.53,27.53h55.07c0-15.21-12.33-27.53-27.53-27.53Z"/>
    <path class="st1" d="M1487.35,1060.62c-15.21,0-27.53,12.33-27.53,27.53h55.07c0-15.21-12.32-27.53-27.53-27.53Z"/>
    <path class="st1" d="M1428.11,1100.39c-6.17,11.35-1.96,25.55,9.39,31.71l22.32-41.11c-11.35-6.17-25.55-1.96-31.71,9.39Z"/>
    <path class="st1" d="M1491.53,1100.39c6.16,11.35,1.96,25.55-9.39,31.71l-22.32-41.11c11.35-6.17,25.55-1.96,31.71,9.39Z"/>
    <path class="st2" d="M1432.29,1060.62c-15.21,0-27.53,12.33-27.53,27.53h55.07c0-15.21-12.33-27.53-27.53-27.53Z"/>
    <path class="st2" d="M1487.35,1060.62c-15.21,0-27.53,12.33-27.53,27.53h55.07c0-15.21-12.32-27.53-27.53-27.53Z"/>
    <path class="st2" d="M1428.11,1100.39c-6.17,11.35-1.96,25.55,9.39,31.71l22.32-41.11c-11.35-6.17-25.55-1.96-31.71,9.39Z"/>
    <path class="st2" d="M1491.53,1100.39c6.16,11.35,1.96,25.55-9.39,31.71l-22.32-41.11c11.35-6.17,25.55-1.96,31.71,9.39Z"/>
    <line class="st4" x1="1459.82" y1="1449.91" x2="1459.82" y2="1089.52"/>
  </g>
</svg>