<?xml version="1.0" encoding="UTF-8"?>
<svg xmlns="http://www.w3.org/2000/svg" xmlns:xlink="http://www.w3.org/1999/xlink" version="1.1" viewBox="0 0 784 650">
  <!-- Generator: Adobe Illustrator 29.8.2, SVG Export Plug-In . SVG Version: 2.1.1 Build 3)  -->
  <defs>
    <style>
      .st0 {
        mask: url(#mask);
      }

      .st1 {
        filter: url(#luminosity-noclip);
      }

      .st2 {
        fill: url(#linear-gradient3);
      }

      .st2, .st3, .st4, .st5, .st6, .st7, .st8, .st9, .st10, .st11, .st12, .st13 {
        mix-blend-mode: color-dodge;
      }

      .st2, .st3, .st4, .st5, .st6, .st8, .st9, .st10, .st11, .st12, .st13 {
        opacity: .5;
      }

      .st3 {
        fill: url(#linear-gradient9);
      }

      .st4 {
        fill: url(#linear-gradient1);
      }

      .st5 {
        fill: url(#linear-gradient5);
      }

      .st6 {
        fill: url(#linear-gradient7);
      }

      .st14 {
        filter: url(#luminosity-noclip12);
      }

      .st15 {
        filter: url(#luminosity-noclip14);
      }

      .st16 {
        filter: url(#luminosity-noclip16);
      }

      .st17 {
        filter: url(#luminosity-noclip18);
      }

      .st18 {
        filter: url(#luminosity-noclip10);
      }

      .st19 {
        filter: url(#luminosity-noclip20);
      }

      .st20 {
        fill: url(#linear-gradient23);
      }

      .st21 {
        fill: url(#linear-gradient22);
      }

      .st22 {
        fill: url(#linear-gradient24);
      }

      .st23 {
        fill: url(#linear-gradient25);
      }

      .st24 {
        fill: url(#linear-gradient27);
      }

      .st25 {
        fill: url(#linear-gradient26);
      }

      .st26 {
        filter: url(#luminosity-noclip6);
      }

      .st27 {
        filter: url(#luminosity-noclip2);
      }

      .st28 {
        filter: url(#luminosity-noclip4);
      }

      .st29 {
        filter: url(#luminosity-noclip8);
      }

      .st30 {
        fill: url(#linear-gradient20);
      }

      .st30, .st31, .st32, .st33, .st34, .st35, .st36, .st37, .st38, .st39, .st40 {
        mix-blend-mode: multiply;
      }

      .st31 {
        fill: url(#linear-gradient14);
      }

      .st32 {
        fill: url(#linear-gradient10);
      }

      .st33 {
        fill: url(#linear-gradient18);
      }

      .st34 {
        fill: url(#linear-gradient12);
      }

      .st35 {
        fill: url(#linear-gradient16);
      }

      .st41 {
        fill: #00edca;
      }

      .st42 {
        isolation: isolate;
      }

      .st43 {
        mask: url(#mask-2);
      }

      .st44 {
        mask: url(#mask-3);
      }

      .st45 {
        mask: url(#mask-4);
      }

      .st46 {
        mask: url(#mask-5);
      }

      .st47 {
        mask: url(#mask-7);
      }

      .st48 {
        mask: url(#mask-6);
      }

      .st49 {
        mask: url(#mask-1);
      }

      .st50 {
        mask: url(#mask-9);
      }

      .st51 {
        mask: url(#mask-8);
      }

      .st52 {
        fill: #0f2238;
      }

      .st36 {
        fill: url(#linear-gradient);
      }

      .st8 {
        fill: url(#linear-gradient21);
      }

      .st9 {
        fill: url(#linear-gradient19);
      }

      .st10 {
        fill: url(#linear-gradient17);
      }

      .st11 {
        fill: url(#linear-gradient13);
      }

      .st12 {
        fill: url(#linear-gradient11);
      }

      .st13 {
        fill: url(#linear-gradient15);
      }

      .st53 {
        fill: #00ecc9;
      }

      .st37 {
        fill: url(#linear-gradient2);
      }

      .st38 {
        fill: url(#linear-gradient6);
      }

      .st39 {
        fill: url(#linear-gradient8);
      }

      .st40 {
        fill: url(#linear-gradient4);
      }

      .st54 {
        mask: url(#mask-10);
      }

      .st55 {
        mask: url(#mask-14);
      }

      .st56 {
        mask: url(#mask-18);
      }

      .st57 {
        mask: url(#mask-11);
      }

      .st58 {
        mask: url(#mask-16);
      }

      .st59 {
        mask: url(#mask-13);
      }

      .st60 {
        mask: url(#mask-19);
      }

      .st61 {
        mask: url(#mask-12);
      }

      .st62 {
        mask: url(#mask-17);
      }

      .st63 {
        mask: url(#mask-15);
      }

      .st64 {
        mask: url(#mask-21);
      }

      .st65 {
        mask: url(#mask-20);
      }
    </style>
    <filter id="luminosity-noclip" x="572.72" y="201.66" width="102.28" height="392.43" color-interpolation-filters="sRGB" filterUnits="userSpaceOnUse">
      <feFlood flood-color="#fff" result="bg"/>
      <feBlend in="SourceGraphic" in2="bg"/>
    </filter>
    <filter id="luminosity-noclip1" x="572.72" y="-8517" width="102.28" height="32766" color-interpolation-filters="sRGB" filterUnits="userSpaceOnUse">
      <feFlood flood-color="#fff" result="bg"/>
      <feBlend in="SourceGraphic" in2="bg"/>
    </filter>
    <mask id="mask-1" x="572.72" y="-8517" width="102.28" height="32766" maskUnits="userSpaceOnUse"/>
    <linearGradient id="linear-gradient" x1="623.86" y1="637.46" x2="623.86" y2="236.35" gradientUnits="userSpaceOnUse">
      <stop offset="0" stop-color="#fff"/>
      <stop offset="1" stop-color="#000"/>
    </linearGradient>
    <mask id="mask" x="572.72" y="201.66" width="102.28" height="392.43" maskUnits="userSpaceOnUse">
      <g class="st1">
        <g class="st49">
          <rect class="st36" x="572.72" y="201.66" width="102.28" height="392.43"/>
        </g>
      </g>
    </mask>
    <linearGradient id="linear-gradient1" x1="623.86" y1="637.46" x2="623.86" y2="236.35" gradientUnits="userSpaceOnUse">
      <stop offset="0" stop-color="#00ecc9"/>
      <stop offset="1" stop-color="#231f20"/>
    </linearGradient>
    <filter id="luminosity-noclip2" x="487.9" y="201.66" width="102.28" height="392.43" color-interpolation-filters="sRGB" filterUnits="userSpaceOnUse">
      <feFlood flood-color="#fff" result="bg"/>
      <feBlend in="SourceGraphic" in2="bg"/>
    </filter>
    <filter id="luminosity-noclip3" x="487.9" y="-8517" width="102.28" height="32766" color-interpolation-filters="sRGB" filterUnits="userSpaceOnUse">
      <feFlood flood-color="#fff" result="bg"/>
      <feBlend in="SourceGraphic" in2="bg"/>
    </filter>
    <mask id="mask-3" x="487.9" y="-8517" width="102.28" height="32766" maskUnits="userSpaceOnUse"/>
    <linearGradient id="linear-gradient2" x1="539.04" x2="539.04" xlink:href="#linear-gradient"/>
    <mask id="mask-2" x="487.9" y="201.66" width="102.28" height="392.43" maskUnits="userSpaceOnUse">
      <g class="st27">
        <g class="st44">
          <rect class="st37" x="487.9" y="201.66" width="102.28" height="392.43"/>
        </g>
      </g>
    </mask>
    <linearGradient id="linear-gradient3" x1="539.04" x2="539.04" xlink:href="#linear-gradient1"/>
    <filter id="luminosity-noclip4" x="391.73" y="201.66" width="102.28" height="392.43" color-interpolation-filters="sRGB" filterUnits="userSpaceOnUse">
      <feFlood flood-color="#fff" result="bg"/>
      <feBlend in="SourceGraphic" in2="bg"/>
    </filter>
    <filter id="luminosity-noclip5" x="391.73" y="-8517" width="102.28" height="32766" color-interpolation-filters="sRGB" filterUnits="userSpaceOnUse">
      <feFlood flood-color="#fff" result="bg"/>
      <feBlend in="SourceGraphic" in2="bg"/>
    </filter>
    <mask id="mask-5" x="391.73" y="-8517" width="102.28" height="32766" maskUnits="userSpaceOnUse"/>
    <linearGradient id="linear-gradient4" x1="442.87" x2="442.87" xlink:href="#linear-gradient"/>
    <mask id="mask-4" x="391.73" y="201.66" width="102.28" height="392.43" maskUnits="userSpaceOnUse">
      <g class="st28">
        <g class="st46">
          <rect class="st40" x="391.73" y="201.66" width="102.28" height="392.43"/>
        </g>
      </g>
    </mask>
    <linearGradient id="linear-gradient5" x1="442.87" x2="442.87" xlink:href="#linear-gradient1"/>
    <filter id="luminosity-noclip6" x="60" y="201.66" width="102.28" height="392.43" color-interpolation-filters="sRGB" filterUnits="userSpaceOnUse">
      <feFlood flood-color="#fff" result="bg"/>
      <feBlend in="SourceGraphic" in2="bg"/>
    </filter>
    <filter id="luminosity-noclip7" x="60" y="-8517" width="102.28" height="32766" color-interpolation-filters="sRGB" filterUnits="userSpaceOnUse">
      <feFlood flood-color="#fff" result="bg"/>
      <feBlend in="SourceGraphic" in2="bg"/>
    </filter>
    <mask id="mask-7" x="60" y="-8517" width="102.28" height="32766" maskUnits="userSpaceOnUse"/>
    <linearGradient id="linear-gradient6" x1="111.14" x2="111.14" xlink:href="#linear-gradient"/>
    <mask id="mask-6" x="60" y="201.66" width="102.28" height="392.43" maskUnits="userSpaceOnUse">
      <g class="st26">
        <g class="st47">
          <rect class="st38" x="60" y="201.66" width="102.28" height="392.43"/>
        </g>
      </g>
    </mask>
    <linearGradient id="linear-gradient7" x1="111.14" x2="111.14" xlink:href="#linear-gradient1"/>
    <filter id="luminosity-noclip8" x="306.91" y="201.66" width="102.28" height="392.43" color-interpolation-filters="sRGB" filterUnits="userSpaceOnUse">
      <feFlood flood-color="#fff" result="bg"/>
      <feBlend in="SourceGraphic" in2="bg"/>
    </filter>
    <filter id="luminosity-noclip9" x="306.91" y="-8517" width="102.28" height="32766" color-interpolation-filters="sRGB" filterUnits="userSpaceOnUse">
      <feFlood flood-color="#fff" result="bg"/>
      <feBlend in="SourceGraphic" in2="bg"/>
    </filter>
    <mask id="mask-9" x="306.91" y="-8517" width="102.28" height="32766" maskUnits="userSpaceOnUse"/>
    <linearGradient id="linear-gradient8" x1="358.05" x2="358.05" xlink:href="#linear-gradient"/>
    <mask id="mask-8" x="306.91" y="201.66" width="102.28" height="392.43" maskUnits="userSpaceOnUse">
      <g class="st29">
        <g class="st50">
          <rect class="st39" x="306.91" y="201.66" width="102.28" height="392.43"/>
        </g>
      </g>
    </mask>
    <linearGradient id="linear-gradient9" x1="358.05" x2="358.05" xlink:href="#linear-gradient1"/>
    <filter id="luminosity-noclip10" x="278.4" y="201.66" width="44.28" height="392.43" color-interpolation-filters="sRGB" filterUnits="userSpaceOnUse">
      <feFlood flood-color="#fff" result="bg"/>
      <feBlend in="SourceGraphic" in2="bg"/>
    </filter>
    <filter id="luminosity-noclip11" x="278.4" y="-8517" width="44.28" height="32766" color-interpolation-filters="sRGB" filterUnits="userSpaceOnUse">
      <feFlood flood-color="#fff" result="bg"/>
      <feBlend in="SourceGraphic" in2="bg"/>
    </filter>
    <mask id="mask-11" x="278.4" y="-8517" width="44.28" height="32766" maskUnits="userSpaceOnUse"/>
    <linearGradient id="linear-gradient10" x1="300.53" x2="300.53" xlink:href="#linear-gradient"/>
    <mask id="mask-10" x="278.4" y="201.66" width="44.28" height="392.43" maskUnits="userSpaceOnUse">
      <g class="st18">
        <g class="st57">
          <rect class="st32" x="278.4" y="201.66" width="44.28" height="392.43"/>
        </g>
      </g>
    </mask>
    <linearGradient id="linear-gradient11" x1="300.53" x2="300.53" xlink:href="#linear-gradient1"/>
    <filter id="luminosity-noclip12" x="215.03" y="201.66" width="67.39" height="392.43" color-interpolation-filters="sRGB" filterUnits="userSpaceOnUse">
      <feFlood flood-color="#fff" result="bg"/>
      <feBlend in="SourceGraphic" in2="bg"/>
    </filter>
    <filter id="luminosity-noclip13" x="215.03" y="-8517" width="67.39" height="32766" color-interpolation-filters="sRGB" filterUnits="userSpaceOnUse">
      <feFlood flood-color="#fff" result="bg"/>
      <feBlend in="SourceGraphic" in2="bg"/>
    </filter>
    <mask id="mask-13" x="215.03" y="-8517" width="67.39" height="32766" maskUnits="userSpaceOnUse"/>
    <linearGradient id="linear-gradient12" x1="248.73" x2="248.73" xlink:href="#linear-gradient"/>
    <mask id="mask-12" x="215.03" y="201.66" width="67.39" height="392.43" maskUnits="userSpaceOnUse">
      <g class="st14">
        <g class="st59">
          <rect class="st34" x="215.03" y="201.66" width="67.39" height="392.43"/>
        </g>
      </g>
    </mask>
    <linearGradient id="linear-gradient13" x1="248.73" x2="248.73" xlink:href="#linear-gradient1"/>
    <filter id="luminosity-noclip14" x="141" y="201.66" width="85.53" height="392.43" color-interpolation-filters="sRGB" filterUnits="userSpaceOnUse">
      <feFlood flood-color="#fff" result="bg"/>
      <feBlend in="SourceGraphic" in2="bg"/>
    </filter>
    <filter id="luminosity-noclip15" x="141" y="-8517" width="85.53" height="32766" color-interpolation-filters="sRGB" filterUnits="userSpaceOnUse">
      <feFlood flood-color="#fff" result="bg"/>
      <feBlend in="SourceGraphic" in2="bg"/>
    </filter>
    <mask id="mask-15" x="141" y="-8517" width="85.53" height="32766" maskUnits="userSpaceOnUse"/>
    <linearGradient id="linear-gradient14" x1="183.77" x2="183.77" xlink:href="#linear-gradient"/>
    <mask id="mask-14" x="141" y="201.66" width="85.53" height="392.43" maskUnits="userSpaceOnUse">
      <g class="st15">
        <g class="st63">
          <rect class="st31" x="141" y="201.66" width="85.53" height="392.43"/>
        </g>
      </g>
    </mask>
    <linearGradient id="linear-gradient15" x1="183.77" x2="183.77" xlink:href="#linear-gradient1"/>
    <filter id="luminosity-noclip16" x="705.6" y="201.66" width="19.79" height="392.43" color-interpolation-filters="sRGB" filterUnits="userSpaceOnUse">
      <feFlood flood-color="#fff" result="bg"/>
      <feBlend in="SourceGraphic" in2="bg"/>
    </filter>
    <filter id="luminosity-noclip17" x="705.6" y="-8517" width="19.79" height="32766" color-interpolation-filters="sRGB" filterUnits="userSpaceOnUse">
      <feFlood flood-color="#fff" result="bg"/>
      <feBlend in="SourceGraphic" in2="bg"/>
    </filter>
    <mask id="mask-17" x="705.6" y="-8517" width="19.79" height="32766" maskUnits="userSpaceOnUse"/>
    <linearGradient id="linear-gradient16" x1="715.5" x2="715.5" xlink:href="#linear-gradient"/>
    <mask id="mask-16" x="705.6" y="201.66" width="19.79" height="392.43" maskUnits="userSpaceOnUse">
      <g class="st16">
        <g class="st62">
          <rect class="st35" x="705.6" y="201.66" width="19.79" height="392.43"/>
        </g>
      </g>
    </mask>
    <linearGradient id="linear-gradient17" x1="715.5" x2="715.5" xlink:href="#linear-gradient1"/>
    <filter id="luminosity-noclip18" x="651.07" y="201.66" width="58.68" height="392.43" color-interpolation-filters="sRGB" filterUnits="userSpaceOnUse">
      <feFlood flood-color="#fff" result="bg"/>
      <feBlend in="SourceGraphic" in2="bg"/>
    </filter>
    <filter id="luminosity-noclip19" x="651.07" y="-8517" width="58.68" height="32766" color-interpolation-filters="sRGB" filterUnits="userSpaceOnUse">
      <feFlood flood-color="#fff" result="bg"/>
      <feBlend in="SourceGraphic" in2="bg"/>
    </filter>
    <mask id="mask-19" x="651.07" y="-8517" width="58.68" height="32766" maskUnits="userSpaceOnUse"/>
    <linearGradient id="linear-gradient18" x1="680.41" x2="680.41" xlink:href="#linear-gradient"/>
    <mask id="mask-18" x="651.07" y="201.66" width="58.68" height="392.43" maskUnits="userSpaceOnUse">
      <g class="st17">
        <g class="st60">
          <rect class="st33" x="651.07" y="201.66" width="58.68" height="392.43"/>
        </g>
      </g>
    </mask>
    <linearGradient id="linear-gradient19" x1="680.41" x2="680.41" xlink:href="#linear-gradient1"/>
    <filter id="luminosity-noclip20" x="456.03" y="201.66" width="58.68" height="392.43" color-interpolation-filters="sRGB" filterUnits="userSpaceOnUse">
      <feFlood flood-color="#fff" result="bg"/>
      <feBlend in="SourceGraphic" in2="bg"/>
    </filter>
    <filter id="luminosity-noclip21" x="456.03" y="-8517" width="58.68" height="32766" color-interpolation-filters="sRGB" filterUnits="userSpaceOnUse">
      <feFlood flood-color="#fff" result="bg"/>
      <feBlend in="SourceGraphic" in2="bg"/>
    </filter>
    <mask id="mask-21" x="456.03" y="-8517" width="58.68" height="32766" maskUnits="userSpaceOnUse"/>
    <linearGradient id="linear-gradient20" x1="485.38" x2="485.38" xlink:href="#linear-gradient"/>
    <mask id="mask-20" x="456.03" y="201.66" width="58.68" height="392.43" maskUnits="userSpaceOnUse">
      <g class="st19">
        <g class="st64">
          <rect class="st30" x="456.03" y="201.66" width="58.68" height="392.43"/>
        </g>
      </g>
    </mask>
    <linearGradient id="linear-gradient21" x1="485.38" x2="485.38" xlink:href="#linear-gradient1"/>
    <linearGradient id="linear-gradient22" x1="298.99" y1="164" x2="298.99" y2="71.99" xlink:href="#linear-gradient1"/>
    <linearGradient id="linear-gradient23" x1="329.89" y1="164" x2="329.89" y2="71.99" xlink:href="#linear-gradient1"/>
    <linearGradient id="linear-gradient24" x1="361.55" y1="164" x2="361.55" y2="71.99" xlink:href="#linear-gradient1"/>
    <linearGradient id="linear-gradient25" x1="396.04" y1="164" x2="396.04" y2="71.99" xlink:href="#linear-gradient1"/>
    <linearGradient id="linear-gradient26" x1="442.28" y1="164" x2="442.28" y2="71.99" xlink:href="#linear-gradient1"/>
    <linearGradient id="linear-gradient27" x1="485.55" y1="164" x2="485.55" y2="71.99" xlink:href="#linear-gradient1"/>
  </defs>
  <g class="st42">
    <g id="Layer_1">
      <g>
        <rect class="st52" width="784" height="650"/>
        <g>
          <g class="st0">
            <rect class="st4" x="572.72" y="201.66" width="102.28" height="392.43"/>
          </g>
          <g class="st43">
            <rect class="st2" x="487.9" y="201.66" width="102.28" height="392.43"/>
          </g>
          <g class="st45">
            <rect class="st5" x="391.73" y="201.66" width="102.28" height="392.43"/>
          </g>
          <g class="st48">
            <rect class="st6" x="60" y="201.66" width="102.28" height="392.43"/>
          </g>
          <g class="st51">
            <rect class="st3" x="306.91" y="201.66" width="102.28" height="392.43"/>
          </g>
          <g class="st54">
            <rect class="st12" x="278.4" y="201.66" width="44.28" height="392.43"/>
          </g>
          <g class="st61">
            <rect class="st11" x="215.03" y="201.66" width="67.39" height="392.43"/>
          </g>
          <g class="st55">
            <rect class="st13" x="141" y="201.66" width="85.53" height="392.43"/>
          </g>
          <g class="st58">
            <rect class="st10" x="705.6" y="201.66" width="19.79" height="392.43"/>
          </g>
          <g class="st56">
            <rect class="st9" x="651.07" y="201.66" width="58.68" height="392.43"/>
          </g>
          <g class="st65">
            <rect class="st8" x="456.03" y="201.66" width="58.68" height="392.43"/>
          </g>
        </g>
        <path class="st53" d="M725.39,595.75H60c-.83,0-1.5-.67-1.5-1.5s.67-1.5,1.5-1.5h665.39c.83,0,1.5.67,1.5,1.5s-.67,1.5-1.5,1.5Z"/>
        <g>
          <path class="st41" d="M345.17,305.03c-1.09,0-1.97.88-1.97,1.97s.88,1.97,1.97,1.97,1.97-.88,1.97-1.97-.88-1.97-1.97-1.97Z"/>
          <path class="st41" d="M494.14,221.38c-.89,0-1.62.73-1.62,1.62s.73,1.62,1.62,1.62,1.62-.73,1.62-1.62-.73-1.62-1.62-1.62Z"/>
          <path class="st41" d="M246.88,329.43c.9,0,1.62-.73,1.62-1.62s-.73-1.62-1.62-1.62-1.62.73-1.62,1.62.73,1.62,1.62,1.62Z"/>
          <path class="st41" d="M180.96,243.62c.9,0,1.62-.73,1.62-1.62s-.73-1.62-1.62-1.62-1.62.73-1.62,1.62.73,1.62,1.62,1.62Z"/>
          <path class="st41" d="M670.24,224.91c.99,0,1.79-.8,1.79-1.79s-.8-1.79-1.79-1.79-1.79.8-1.79,1.79.8,1.79,1.79,1.79Z"/>
          <path class="st41" d="M504.89,417.36c1.31,0,2.38-1.07,2.38-2.38s-1.07-2.38-2.38-2.38-2.38,1.07-2.38,2.38,1.07,2.38,2.38,2.38ZM504.89,414.36c.34,0,.62.28.62.62s-.28.62-.62.62-.62-.28-.62-.62.28-.62.62-.62Z"/>
          <path class="st41" d="M653.88,288.16c.55.46,1.36.46,1.91,0l8.73-7.21,8.73,7.21c.55.46,1.36.46,1.91,0l8.74-7.21,8.74,7.21c.28.23.62.34.95.34.43,0,.86-.19,1.16-.54.53-.64.44-1.58-.2-2.11l-9.69-8c-.55-.46-1.36-.46-1.91,0l-8.74,7.21-8.73-7.21c-.55-.46-1.36-.46-1.91,0l-8.73,7.21-8.73-7.21c-.64-.53-1.58-.44-2.11.2-.53.64-.44,1.58.2,2.11l9.68,8Z"/>
          <path class="st41" d="M111.25,312.16c.55.46,1.36.46,1.91,0l8.73-7.21,8.73,7.21c.55.46,1.36.46,1.91,0l8.74-7.21,8.74,7.21c.28.23.62.34.95.34.43,0,.86-.19,1.16-.54.53-.64.44-1.58-.2-2.11l-9.69-8c-.55-.46-1.36-.46-1.91,0l-8.74,7.21-8.73-7.21c-.55-.46-1.36-.46-1.91,0l-8.73,7.21-8.73-7.21c-.64-.53-1.58-.44-2.11.2-.53.64-.44,1.58.2,2.11l9.68,8Z"/>
          <path class="st41" d="M196.89,403.8h11.04c.83,0,1.5-.67,1.5-1.5s-.67-1.5-1.5-1.5h-11.04c-.83,0-1.5.67-1.5,1.5s.67,1.5,1.5,1.5Z"/>
          <path class="st41" d="M207.93,407.33h-5.52c-.83,0-1.5.67-1.5,1.5s.67,1.5,1.5,1.5h5.52c.83,0,1.5-.67,1.5-1.5s-.67-1.5-1.5-1.5Z"/>
          <path class="st41" d="M216.46,391.8h2.07c.83,0,1.5-.67,1.5-1.5s-.67-1.5-1.5-1.5h-2.07c-.83,0-1.5.67-1.5,1.5s.67,1.5,1.5,1.5Z"/>
          <path class="st41" d="M209.29,397.58h3.26c-1.1,1.4-1.76,3.17-1.76,5.08,0,4.56,3.71,8.28,8.28,8.28h21.03c4.56,0,8.28-3.71,8.28-8.28,0-4.08-2.89-7.43-6.77-8.13-1.02-5.06-5.44-8.74-10.73-8.74s-9.66,3.69-10.71,8.68c-.36-.05-.73-.08-1.1-.08-.61,0-1.19.07-1.76.19h-8.02c-.83,0-1.5.67-1.5,1.5s.67,1.5,1.5,1.5ZM220.92,397.73c.45.17.95.11,1.35-.15.4-.27.65-.71.67-1.19.19-4.26,3.67-7.6,7.94-7.6s7.55,3.12,7.92,7.25c.07.76.69,1.35,1.45,1.37,2.87.08,5.13,2.39,5.13,5.27s-2.37,5.28-5.28,5.28h-21.03c-2.91,0-5.28-2.37-5.28-5.28s2.37-5.28,5.28-5.28c.62,0,1.25.11,1.85.34Z"/>
          <path class="st41" d="M397.94,252.25c-1.01,0-2.01.16-2.97.46-.91-4.48-4.91-7.87-9.69-7.87-3.74,0-7.08,2.05-8.77,5.29-1.19.08-2.32.35-3.38.77h-10.76c-.83,0-1.5.67-1.5,1.5s.67,1.5,1.5,1.5h6.54c-1.66,1.91-2.67,4.38-2.67,7.08,0,1.79.44,3.47,1.22,4.96h-5.09c-.83,0-1.5.67-1.5,1.5s.67,1.5,1.5,1.5h5.52c.51,0,.96-.26,1.23-.64,2.01,2.18,4.89,3.56,8.09,3.56h20.72c5.45,0,9.88-4.4,9.88-9.8s-4.43-9.8-9.88-9.8ZM397.94,268.86h-20.72c-4.39,0-7.96-3.53-7.96-7.88s3.57-7.87,8-7.87h.18c.6.03,1.2-.35,1.44-.94,1.04-2.63,3.56-4.33,6.41-4.33,3.8,0,6.88,3.05,6.88,6.88v.15c-.03.55.25,1.07.72,1.35.47.28,1.06.28,1.53,0,1.07-.63,2.29-.97,3.52-.97,3.79,0,6.88,3.05,6.88,6.8s-3.09,6.8-6.88,6.8Z"/>
          <path class="st41" d="M352.21,259.85h11.04c.83,0,1.5-.67,1.5-1.5s-.67-1.5-1.5-1.5h-11.04c-.83,0-1.5.67-1.5,1.5s.67,1.5,1.5,1.5Z"/>
          <path class="st41" d="M355.61,265.95c-.83,0-1.5.67-1.5,1.5s.67,1.5,1.5,1.5h1.16c.83,0,1.5-.67,1.5-1.5s-.67-1.5-1.5-1.5h-1.16Z"/>
          <path class="st41" d="M372.83,247.84h1.16c.83,0,1.5-.67,1.5-1.5s-.67-1.5-1.5-1.5h-1.16c-.83,0-1.5.67-1.5,1.5s.67,1.5,1.5,1.5Z"/>
          <path class="st41" d="M629,382.08c.83,0,1.5-.67,1.5-1.5s-.67-1.5-1.5-1.5h-1.42v-1.42c0-.83-.67-1.5-1.5-1.5s-1.5.67-1.5,1.5v1.42h-1.42c-.83,0-1.5.67-1.5,1.5s.67,1.5,1.5,1.5h1.42v1.42c0,.83.67,1.5,1.5,1.5s1.5-.67,1.5-1.5v-1.42h1.42Z"/>
          <path class="st41" d="M345.81,512h-1.42v-1.42c0-.83-.67-1.5-1.5-1.5s-1.5.67-1.5,1.5v1.42h-1.42c-.83,0-1.5.67-1.5,1.5s.67,1.5,1.5,1.5h1.42v1.42c0,.83.67,1.5,1.5,1.5s1.5-.67,1.5-1.5v-1.42h1.42c.83,0,1.5-.67,1.5-1.5s-.67-1.5-1.5-1.5Z"/>
          <path class="st41" d="M78.69,498.15h1.42v1.42c0,.83.67,1.5,1.5,1.5s1.5-.67,1.5-1.5v-1.42h1.42c.83,0,1.5-.67,1.5-1.5s-.67-1.5-1.5-1.5h-1.42v-1.42c0-.83-.67-1.5-1.5-1.5s-1.5.67-1.5,1.5v1.42h-1.42c-.83,0-1.5.67-1.5,1.5s.67,1.5,1.5,1.5Z"/>
          <path class="st41" d="M607.9,468.39h.3v.3c0,.83.67,1.5,1.5,1.5s1.5-.67,1.5-1.5v-.3h.3c.83,0,1.5-.67,1.5-1.5s-.67-1.5-1.5-1.5h-.3v-.3c0-.83-.67-1.5-1.5-1.5s-1.5.67-1.5,1.5v.3h-.3c-.83,0-1.5.67-1.5,1.5s.67,1.5,1.5,1.5Z"/>
          <path class="st41" d="M288.7,424.46h.3v.3c0,.83.67,1.5,1.5,1.5s1.5-.67,1.5-1.5v-.3h.3c.83,0,1.5-.67,1.5-1.5s-.67-1.5-1.5-1.5h-.3v-.3c0-.83-.67-1.5-1.5-1.5s-1.5.67-1.5,1.5v.3h-.3c-.83,0-1.5.67-1.5,1.5s.67,1.5,1.5,1.5Z"/>
          <path class="st41" d="M133.34,387.84c-.83,0-1.5.67-1.5,1.5v.3h-.3c-.83,0-1.5.67-1.5,1.5s.67,1.5,1.5,1.5h.3v.3c0,.83.67,1.5,1.5,1.5s1.5-.67,1.5-1.5v-.3h.3c.83,0,1.5-.67,1.5-1.5s-.67-1.5-1.5-1.5h-.3v-.3c0-.83-.67-1.5-1.5-1.5Z"/>
          <path class="st41" d="M692.09,419.78v.3c0,.83.67,1.5,1.5,1.5s1.5-.67,1.5-1.5v-.3h.3c.83,0,1.5-.67,1.5-1.5s-.67-1.5-1.5-1.5h-.3v-.3c0-.83-.67-1.5-1.5-1.5s-1.5.67-1.5,1.5v.3h-.3c-.83,0-1.5.67-1.5,1.5s.67,1.5,1.5,1.5h.3Z"/>
          <path class="st41" d="M591.63,314.77h0c-4.96,0-9.66,1.13-13.86,3.14v-58.32c1.93-.64,3.34-2.44,3.34-4.58,0-2.67-2.17-4.84-4.84-4.84s-4.84,2.17-4.84,4.84c0,2.14,1.41,3.95,3.34,4.58v59.96c-8.92,5.5-14.96,15.22-15.34,26.35-.02.09-.03.18-.03.28v.18h-3.32v-.18c0-.09-.01-.19-.03-.28-.38-11.13-6.42-20.85-15.34-26.35v-59.96c1.93-.64,3.34-2.44,3.34-4.58,0-2.67-2.17-4.84-4.84-4.84s-4.84,2.17-4.84,4.84c0,2.14,1.41,3.95,3.34,4.58v58.32c-4.2-2.01-8.9-3.14-13.86-3.14h0c-.83,0-1.5.67-1.5,1.5,0,0,0,0,0,0v277.96c0,.83.67,1.5,1.5,1.5h30.73c.83,0,1.5-.67,1.5-1.5v-6.82h3.32v6.82c0,.83.67,1.5,1.5,1.5h30.73c.83,0,1.5-.67,1.5-1.5v-277.96s0,0,0,0c0-.83-.67-1.5-1.5-1.5ZM576.27,253.17c1.02,0,1.84.83,1.84,1.84s-.83,1.84-1.84,1.84-1.84-.83-1.84-1.84.83-1.84,1.84-1.84ZM539.21,253.17c1.02,0,1.84.83,1.84,1.84s-.83,1.84-1.84,1.84-1.84-.83-1.84-1.84.83-1.84,1.84-1.84ZM556.08,544.75v-6.92h3.32v6.92h-3.32ZM559.4,547.75v6.92h-3.32v-6.92h3.32ZM556.08,534.83v-6.92h3.32v6.92h-3.32ZM556.08,524.91v-6.92h3.32v6.92h-3.32ZM556.08,514.99v-6.92h3.32v6.92h-3.32ZM556.08,505.07v-6.92h3.32v6.92h-3.32ZM556.08,495.15v-6.92h3.32v6.92h-3.32ZM556.08,485.23v-6.92h3.32v6.92h-3.32ZM556.08,475.31v-6.92h3.32v6.92h-3.32ZM556.08,465.39v-6.92h3.32v6.92h-3.32ZM556.08,455.47v-6.92h3.32v6.92h-3.32ZM556.08,445.55v-6.92h3.32v6.92h-3.32ZM556.08,435.63v-6.92h3.32v6.92h-3.32ZM556.08,425.71v-6.92h3.32v6.92h-3.32ZM556.08,415.79v-6.92h3.32v6.92h-3.32ZM556.08,405.88v-6.92h3.32v6.92h-3.32ZM556.08,395.96v-6.92h3.32v6.92h-3.32ZM556.08,386.04v-6.92h3.32v6.92h-3.32ZM556.08,376.12v-6.92h3.32v6.92h-3.32ZM556.08,366.2v-6.92h3.32v6.92h-3.32ZM556.08,557.67h3.32v6.92h-3.32v-6.92ZM559.4,356.28h-3.32v-6.92h3.32v6.92ZM556.08,567.59h3.32v6.92h-3.32v-6.92ZM553.08,592.75h-3.1v-29.28c0-.83-.67-1.5-1.5-1.5s-1.5.67-1.5,1.5v29.28h-5.04v-13.89c0-.83-.67-1.5-1.5-1.5s-1.5.67-1.5,1.5v13.89h-5.39v-21.04c0-.83-.67-1.5-1.5-1.5s-1.5.67-1.5,1.5v21.04h-5.21v-274.93c15.42.78,27.73,13.58,27.73,29.19v245.74ZM556.08,584.43v-6.92h3.32v6.92h-3.32ZM585.98,592.75v-39.31c0-.83-.67-1.5-1.5-1.5s-1.5.67-1.5,1.5v39.31h-5.04v-13.89c0-.83-.67-1.5-1.5-1.5s-1.5.67-1.5,1.5v13.89h-5.39v-16.74c0-.83-.67-1.5-1.5-1.5s-1.5.67-1.5,1.5v16.74h-4.15v-245.74c0-15.62,12.31-28.41,27.73-29.19v274.93h-4.15Z"/>
          <path class="st41" d="M540.44,501.22c-.83,0-1.5.67-1.5,1.5v15.39c0,.83.67,1.5,1.5,1.5s1.5-.67,1.5-1.5v-15.39c0-.83-.67-1.5-1.5-1.5Z"/>
          <path class="st41" d="M540.44,541.05c-.83,0-1.5.67-1.5,1.5v14.9c0,.83.67,1.5,1.5,1.5s1.5-.67,1.5-1.5v-14.9c0-.83-.67-1.5-1.5-1.5Z"/>
          <path class="st41" d="M540.44,426.64c-.83,0-1.5.67-1.5,1.5v5.65c0,.83.67,1.5,1.5,1.5s1.5-.67,1.5-1.5v-5.65c0-.83-.67-1.5-1.5-1.5Z"/>
          <path class="st41" d="M548.48,536.53c-.83,0-1.5.67-1.5,1.5v3.17c0,.83.67,1.5,1.5,1.5s1.5-.67,1.5-1.5v-3.17c0-.83-.67-1.5-1.5-1.5Z"/>
          <path class="st41" d="M548.48,374.53c-.83,0-1.5.67-1.5,1.5v3.17c0,.83.67,1.5,1.5,1.5s1.5-.67,1.5-1.5v-3.17c0-.83-.67-1.5-1.5-1.5Z"/>
          <path class="st41" d="M532.06,553.81c-.83,0-1.5.67-1.5,1.5v4.8c0,.83.67,1.5,1.5,1.5s1.5-.67,1.5-1.5v-4.8c0-.83-.67-1.5-1.5-1.5Z"/>
          <path class="st41" d="M532.06,460.62c-.83,0-1.5.67-1.5,1.5v11.47c0,.83.67,1.5,1.5,1.5s1.5-.67,1.5-1.5v-11.47c0-.83-.67-1.5-1.5-1.5Z"/>
          <path class="st41" d="M584.48,501.22c-.83,0-1.5.67-1.5,1.5v15.39c0,.83.67,1.5,1.5,1.5s1.5-.67,1.5-1.5v-15.39c0-.83-.67-1.5-1.5-1.5Z"/>
          <path class="st41" d="M576.44,541.05c-.83,0-1.5.67-1.5,1.5v7.45c0,.83.67,1.5,1.5,1.5s1.5-.67,1.5-1.5v-7.45c0-.83-.67-1.5-1.5-1.5Z"/>
          <path class="st41" d="M576.44,426.64c-.83,0-1.5.67-1.5,1.5v5.65c0,.83.67,1.5,1.5,1.5s1.5-.67,1.5-1.5v-5.65c0-.83-.67-1.5-1.5-1.5Z"/>
          <path class="st41" d="M568.05,507.33c-.83,0-1.5.67-1.5,1.5v3.16c0,.83.67,1.5,1.5,1.5s1.5-.67,1.5-1.5v-3.16c0-.83-.67-1.5-1.5-1.5Z"/>
          <path class="st41" d="M568.05,390.48c-.83,0-1.5.67-1.5,1.5v3.17c0,.83.67,1.5,1.5,1.5s1.5-.67,1.5-1.5v-3.17c0-.83-.67-1.5-1.5-1.5Z"/>
          <path class="st41" d="M568.05,555.32c-.83,0-1.5.67-1.5,1.5v10.6c0,.83.67,1.5,1.5,1.5s1.5-.67,1.5-1.5v-10.6c0-.83-.67-1.5-1.5-1.5Z"/>
          <path class="st41" d="M576.27,484.04c.83,0,1.5-.67,1.5-1.5v-11.47c0-.83-.67-1.5-1.5-1.5s-1.5.67-1.5,1.5v11.47c0,.83.67,1.5,1.5,1.5Z"/>
          <path class="st41" d="M483.85,320.5h-72.75c-.83,0-1.5.67-1.5,1.5v272.25c0,.83.67,1.5,1.5,1.5h72.75c.83,0,1.5-.67,1.5-1.5v-272.25c0-.83-.67-1.5-1.5-1.5ZM452.54,592.75l29.81-22.9v10.52l-16.12,12.38h-13.69ZM447.48,592.75h-13.56l48.43-37.2v10.52l-34.74,26.68h-.14ZM415.3,592.75l67.05-51.5v10.52l-53.36,40.98h-13.69ZM447.48,323.5h31.3c-.26,2.58-.59,5.52-1,8.71-10.62-5.44-19.69-5.9-30.3-5.9s-19.68.46-30.3,5.9c-.41-3.19-.74-6.12-1-8.71h31.3ZM447.48,412.29c-16.04,0-25.86-47.32-29.88-76.9,10.44-5.6,19.37-6.08,29.88-6.08s19.43.47,29.88,6.08c-4.02,29.59-13.84,76.9-29.88,76.9ZM414.52,334.66s0,.07.01.1c1.18,8.83,3.11,21.19,5.89,33.46,7.07,31.23,16.18,47.06,27.06,47.06s19.99-15.83,27.06-47.06c2.78-12.28,4.7-24.64,5.89-33.46,0-.04.01-.07.01-.1.7-5.22,1.14-9.19,1.35-11.16h.55c-.03,4.98-.21,9.86-.53,14.62-.03.14-.04.28-.03.43-.35,5.08-.84,10.02-1.47,14.82-.1.24-.13.5-.1.76-.72,5.37-1.59,10.54-2.6,15.49-.17.29-.24.62-.2.95-1.23,5.9-2.63,11.47-4.17,16.66-.19.27-.29.59-.27.91-2.13,7.08-4.49,13.43-6.93,18.92-.11.16-.19.34-.23.53-6.43,14.29-13.42,22.65-18.34,22.65-1.7,0-3.64-1-5.73-2.9-.06-.06-.12-.12-.18-.17-2.1-1.95-4.34-4.81-6.61-8.47,0,0,0,0,0,0-1.74-2.81-3.49-6.09-5.22-9.8-.04-.18-.12-.36-.24-.52-1.42-3.09-2.81-6.48-4.16-10.13-.02-.28-.12-.55-.29-.79-1.19-3.3-2.34-6.8-3.43-10.5.01-.31-.07-.63-.26-.91-1-3.48-1.95-7.12-2.82-10.91.04-.33-.04-.66-.22-.96-3.37-14.93-5.59-32.12-5.71-50.69h.55c.21,1.96.65,5.94,1.35,11.16ZM418.42,386.35l-5.81,4.46v-10.52l3.51-2.7c.75,3.14,1.53,6.06,2.3,8.75ZM447.48,433.24c1.7,0,3.46-.6,5.27-1.76l-40.14,30.83v-10.52l27.98-21.49c2.37,1.92,4.69,2.94,6.89,2.94ZM482.35,508.86l-69.75,53.57v-10.52l69.75-53.57v10.52ZM482.35,494.56l-69.75,53.57v-10.52l69.75-53.57v10.52ZM482.35,480.25l-69.75,53.57v-10.52l69.75-53.57v10.52ZM482.35,465.95l-69.75,53.57v-10.52l69.75-53.57v10.52ZM482.35,451.65l-69.75,53.57v-10.52l69.75-53.57v10.52ZM482.35,437.35l-69.75,53.57v-10.52l69.75-53.57v10.52ZM482.35,423.05l-69.75,53.57v-10.52l69.75-53.57v10.52ZM482.35,360v5.84l-1.18.91c.41-2.18.81-4.42,1.18-6.74ZM480.28,371.22l2.08-1.59v10.52l-5.19,3.98c1.06-3.89,2.12-8.21,3.11-12.91ZM475.78,388.98l6.58-5.05v10.52l-11.51,8.84c.48-1.21.95-2.45,1.42-3.72,1.05-2.87,2.26-6.43,3.51-10.59ZM468.51,408.86l13.84-10.63v10.52l-27.2,20.89c4.45-3.97,9.05-11.09,13.36-20.78ZM412.61,448.01v-10.52l20.64-15.85c1.7,2.62,3.42,4.83,5.11,6.59l-25.75,19.78ZM412.61,433.71v-10.52l15.1-11.6c1.3,2.73,2.62,5.23,3.95,7.49l-19.05,14.63ZM412.61,419.41v-10.52l10.55-8.1c1.06,2.83,2.16,5.51,3.27,8.01l-13.82,10.61ZM412.61,405.11v-10.52l6.72-5.16c.96,3.17,1.89,5.99,2.75,8.41l-9.47,7.27ZM412.61,566.21l69.75-53.57v10.52l-69.75,53.57v-10.52ZM415.37,374.38l-2.76,2.12v-16.5c.82,5.16,1.77,9.95,2.76,14.38ZM412.61,580.51l69.75-53.57v10.52l-69.75,53.57v-10.52ZM471.16,592.75l11.19-8.6v8.6h-11.19Z"/>
          <path class="st41" d="M680.74,544.5s0-.03,0-.05c0-.06,0-.12-.02-.19,0-.03,0-.05-.01-.08-.32-3.95-.66-8.06-1.02-12.31,0-.03,0-.05,0-.08,0-.12-.02-.23-.04-.34-1.07-12.75-2.31-26.72-3.71-41.18,0-.01,0-.03,0-.04,0-.02,0-.04,0-.07,0-.02,0-.04,0-.06,0-.06,0-.11-.02-.16,0-.05-.01-.09-.03-.13,0-.01,0-.03,0-.04-.3-3.13-.61-6.28-.93-9.45,0-.03,0-.06,0-.08,0-.13-.02-.26-.06-.38-1-9.96-2.06-20.07-3.19-30.11,0-.02,0-.05,0-.07s0-.05,0-.07c0-.05,0-.1-.01-.14,0-.05-.02-.1-.03-.15,0-.02,0-.04-.01-.06-.27-2.38-.54-4.76-.82-7.13,0-.02,0-.04,0-.06,0-.14-.02-.27-.06-.39-.49-4.19-.99-8.36-1.5-12.48,0-.01,0-.03,0-.04,0-.13-.02-.26-.06-.39-.64-5.18-1.3-10.3-1.98-15.31-.04-.43-.09-.85-.17-1.26-.58-4.27-1.17-8.47-1.77-12.58,0-.1-.02-.2-.04-.3-.29-1.97-.58-3.92-.88-5.85,0-.08-.02-.17-.04-.25-.31-1.99-.61-3.95-.93-5.89,0-.07-.02-.14-.03-.21-.32-2.02-.65-4-.98-5.95,0-.05-.01-.09-.02-.14-.35-2.04-.7-4.05-1.05-6.01,0-.03,0-.05-.01-.08-1.12-6.21-2.26-12.02-3.44-17.32v-18.61c0-.83-.67-1.5-1.5-1.5s-1.5.67-1.5,1.5v18.61c-1.18,5.29-2.32,11.09-3.44,17.3,0,.04-.01.08-.02.11-.35,1.96-.7,3.96-1.05,5.99,0,.04-.01.08-.02.11-.33,1.96-.66,3.95-.99,5.97-.01.06-.02.12-.03.19-.31,1.94-.62,3.91-.93,5.9-.02.09-.04.18-.04.27-.29,1.92-.59,3.86-.87,5.83-.03.11-.04.21-.05.33-.6,4.1-1.19,8.29-1.77,12.56-.08.41-.13.83-.17,1.26-.67,5.02-1.33,10.13-1.98,15.31-.03.13-.06.25-.06.39,0,.01,0,.03,0,.04-.51,4.12-1.01,8.29-1.5,12.48-.03.13-.06.26-.06.39,0,.02,0,.04,0,.06-.28,2.37-.55,4.75-.82,7.13,0,.02,0,.05-.02.07,0,.04-.01.08-.02.11,0,.06-.02.12-.02.18,0,.02,0,.03,0,.05,0,.02,0,.04,0,.06h0c-1.13,10.05-2.19,20.16-3.19,30.12-.03.12-.06.25-.06.38,0,.03,0,.06,0,.08-.32,3.17-.63,6.32-.93,9.45,0,.01,0,.03,0,.04-.01.04-.02.09-.03.13,0,.05-.01.11-.02.16,0,.02,0,.04,0,.06,0,.02,0,.04,0,.07,0,.01,0,.03,0,.04-1.39,14.47-2.63,28.44-3.71,41.19-.02.11-.04.22-.04.34,0,.02,0,.05,0,.07-.36,4.25-.7,8.36-1.01,12.31,0,.03,0,.06-.01.1,0,.05-.01.11-.02.16,0,.02,0,.04,0,.06s0,.04,0,.06c-2.34,28.94-3.63,49.02-3.67,49.59-.03.41.12.82.4,1.12.28.3.68.47,1.09.47h53c.41,0,.81-.17,1.09-.47.28-.3.43-.71.4-1.12-.04-.57-1.33-20.65-3.67-49.6,0-.02,0-.04,0-.05ZM636.02,533.29h14.8l-15.51,8.54c.23-2.77.46-5.62.71-8.54ZM640.72,481.73h9.85l-10.42,5.73c.19-1.91.37-3.82.56-5.73ZM644.81,443.55h5.77l-6.16,3.39c.13-1.13.26-2.26.39-3.39ZM646.35,430.64h20.12c.4,3.28.8,6.59,1.19,9.91h-22.51c.39-3.32.79-6.63,1.19-9.91ZM648.66,412.69c.76-3.58,3.94-6.28,7.75-6.28s6.99,2.7,7.75,6.28c.05.35.1.7.14,1.05.01.19.03.39.03.58,0,4.37-3.55,7.92-7.92,7.92s-7.92-3.55-7.92-7.92c0-.2.02-.39.03-.58.05-.35.1-.7.14-1.06ZM660.2,385.96h-7.57c.17-1.04.34-2.08.51-3.1h6.55c.17,1.02.34,2.06.51,3.1ZM660.68,388.96c.16,1.03.33,2.06.49,3.1h-9.52c.16-1.04.33-2.08.49-3.1h8.54ZM661.63,395.07c.16,1.03.31,2.06.47,3.1h-11.38c.16-1.04.31-2.07.47-3.1h10.44ZM659.17,379.86h-5.53c.18-1.04.36-2.08.54-3.1h4.44c.18,1.02.36,2.06.54,3.1ZM650.28,401.17h12.26c.22,1.53.45,3.08.66,4.63-1.87-1.49-4.23-2.39-6.79-2.39s-4.93.9-6.79,2.39c.22-1.56.44-3.1.66-4.63ZM656.41,425.25c3.62,0,6.83-1.78,8.81-4.5.3,2.28.59,4.58.88,6.89h-19.38c.29-2.31.58-4.61.88-6.89,1.99,2.72,5.19,4.5,8.81,4.5ZM662.25,443.55h5.77c.13,1.13.26,2.26.39,3.39l-6.16-3.39ZM664.41,448.17h-15.99l8-4.4,8,4.4ZM643.94,451.17h24.94c1.03,9.19,2,18.43,2.92,27.56h-30.78c.92-9.13,1.89-18.37,2.92-27.56ZM662.25,481.73h9.85c.19,1.92.38,3.83.56,5.73l-10.42-5.73ZM668.62,488.67h-24.42l12.21-6.72,12.21,6.72ZM639.75,491.67h33.32c1.3,13.53,2.46,26.6,3.48,38.63h-40.28c1.02-12.03,2.18-25.1,3.48-38.63ZM677.5,541.83l-15.51-8.54h14.81c.24,2.92.48,5.76.71,8.54ZM656.41,533.64l17,9.36h-34l17-9.36ZM656.41,365c.57,2.8,1.13,5.73,1.68,8.76h-3.36c.55-3.02,1.11-5.95,1.68-8.76ZM631.51,592.75c.35-5.24,1.54-22.87,3.46-46.75h42.87c1.92,23.87,3.12,41.51,3.46,46.75h-49.8Z"/>
          <path class="st41" d="M377.33,451.17h-12.64c-.83,0-1.5.67-1.5,1.5v141.58c0,.83.67,1.5,1.5,1.5h12.64c.83,0,1.5-.67,1.5-1.5v-141.58c0-.83-.67-1.5-1.5-1.5ZM375.83,592.75h-9.64v-138.58h9.64v138.58Z"/>
          <path class="st41" d="M384.18,446.55h-26.33c-.83,0-1.5.67-1.5,1.5s.67,1.5,1.5,1.5h26.33c.83,0,1.5-.67,1.5-1.5s-.67-1.5-1.5-1.5Z"/>
          <path class="st41" d="M380.76,409.88v-4.38c0-.83-.67-1.5-1.5-1.5s-1.5.67-1.5,1.5v3.5h-1.12v-3.5c0-.83-.67-1.5-1.5-1.5s-1.5.67-1.5,1.5v3.5h-1.12v-61.12c0-.83-.67-1.5-1.5-1.5s-1.5.67-1.5,1.5v61.12h-1.12v-3.5c0-.83-.67-1.5-1.5-1.5s-1.5.67-1.5,1.5v3.5h-1.12v-3.5c0-.83-.67-1.5-1.5-1.5s-1.5.67-1.5,1.5v4.38l-8.88,8.88c-.28.28-.44.66-.44,1.06s.16.78.44,1.06l8.88,8.88v13.66c0,.83.67,1.5,1.5,1.5h16.5c.83,0,1.5-.67,1.5-1.5v-13.66l8.88-8.88c.28-.28.44-.66.44-1.06s-.16-.78-.44-1.06l-8.88-8.88ZM378.64,427.64h-15.26l-6.32-6.32h27.9l-6.32,6.32ZM357.06,418.32l6.32-6.32h15.26l6.32,6.32h-27.9ZM377.76,441.92h-13.5v-11.28h13.5v11.28Z"/>
          <path class="st41" d="M371.01,587.17c.83,0,1.5-.67,1.5-1.5v-127.33c0-.83-.67-1.5-1.5-1.5s-1.5.67-1.5,1.5v127.33c0,.83.67,1.5,1.5,1.5Z"/>
          <path class="st41" d="M359.78,560.58c-.83,0-1.5.67-1.5,1.5v32.16c0,.83.67,1.5,1.5,1.5s1.5-.67,1.5-1.5v-32.16c0-.83-.67-1.5-1.5-1.5Z"/>
          <path class="st41" d="M354.94,567.25c-.83,0-1.5.67-1.5,1.5v25.5c0,.83.67,1.5,1.5,1.5s1.5-.67,1.5-1.5v-25.5c0-.83-.67-1.5-1.5-1.5Z"/>
          <path class="st41" d="M350.36,576.66c-.83,0-1.5.67-1.5,1.5v16.08c0,.83.67,1.5,1.5,1.5s1.5-.67,1.5-1.5v-16.08c0-.83-.67-1.5-1.5-1.5Z"/>
          <path class="st41" d="M382.2,560.58c-.83,0-1.5.67-1.5,1.5v32.16c0,.83.67,1.5,1.5,1.5s1.5-.67,1.5-1.5v-32.16c0-.83-.67-1.5-1.5-1.5Z"/>
          <path class="st41" d="M387.03,567.25c-.83,0-1.5.67-1.5,1.5v25.5c0,.83.67,1.5,1.5,1.5s1.5-.67,1.5-1.5v-25.5c0-.83-.67-1.5-1.5-1.5Z"/>
          <path class="st41" d="M391.61,576.66c-.83,0-1.5.67-1.5,1.5v16.08c0,.83.67,1.5,1.5,1.5s1.5-.67,1.5-1.5v-16.08c0-.83-.67-1.5-1.5-1.5Z"/>
          <path class="st41" d="M322.28,550.99c.44-.43.57-1.07.34-1.64-.23-.56-.78-.93-1.39-.93h-11.83c0-.21-.01-.42-.09-.63-.23-.56-.78-.93-1.39-.93h-11.74c.01-.22,0-.44-.09-.65-.23-.56-.78-.93-1.39-.93h-11.92c0-.2-.02-.4-.1-.59-.23-.56-.78-.93-1.39-.93H121.54c-.61,0-1.16.37-1.39.93-.08.19-.1.39-.1.59h-11.92c-.61,0-1.16.37-1.39.93-.09.21-.11.43-.09.65h-11.74c-.61,0-1.16.37-1.39.93-.08.2-.1.42-.09.63h-11.83c-.61,0-1.16.37-1.39.93-.23.56-.1,1.21.34,1.64l36.55,35.81v7.44c0,.83.67,1.5,1.5,1.5h165.62c.83,0,1.5-.67,1.5-1.5v-7.44l36.55-35.81ZM283.62,584.67h-10.62l33.94-33.25h10.62l-33.94,33.25ZM159.16,580l-6.12-6h96.77l-6.12,6h-84.53ZM262.18,561.88h-121.53l-6.25-6.12h134.03l-6.25,6.12ZM259.12,564.88l-6.25,6.12h-102.9l-6.25-6.12h115.4ZM245.79,584.52h10.23s0,.06,0,.09v8.13h-10.22v-8.22ZM259.01,586.11h10.32s0,.04,0,.06v6.57h-10.32v-6.63ZM270.3,583.11h-10.55l33.94-33.25h10.55l-33.94,33.25ZM257.08,581.52h-10.67l8.12-7.95s.02-.02.02-.02l25.8-25.27h10.67l-33.94,33.25ZM277.62,546.75l-6.12,6h-140.15l-6.12-6h152.4ZM122.49,548.27l33.94,33.25h-10.67l-33.94-33.25h10.67ZM109.15,549.86l33.94,33.25h-10.55l-33.94-33.25h10.55ZM95.91,551.42l33.94,33.25h-10.62l-33.94-33.25h10.62ZM120.11,587.67h10.4v5.07h-10.4v-5.07ZM133.51,586.11h10.32v6.63h-10.32v-6.57s0-.04,0-.06ZM146.82,584.52h10.23v8.22h-10.22v-8.13s0-.06,0-.09ZM160.04,583h82.75v9.75h-82.75v-9.75ZM272.33,592.75v-5.07h10.4v5.07h-10.4Z"/>
          <path class="st41" d="M129.23,538.62c0,.83.67,1.5,1.5,1.5h141.38c.83,0,1.5-.67,1.5-1.5s-.67-1.5-1.5-1.5h-141.38c-.83,0-1.5.67-1.5,1.5Z"/>
          <path class="st41" d="M162.27,531.36s-.04.09-.06.13c-.02.05-.03.09-.04.14-.01.04-.02.09-.03.14,0,.05-.01.11-.02.16,0,.02,0,.05,0,.07,0,.02,0,.04,0,.07,0,.05,0,.1.02.16,0,.05.02.09.03.14.01.05.03.09.04.14.02.05.03.09.05.14.02.04.04.08.07.12.03.04.05.09.08.13.03.04.06.07.09.11.04.04.07.08.12.12.02.01.03.03.04.04.02.01.04.02.06.04.04.03.09.06.13.09.04.02.08.05.12.07.04.02.09.04.13.05.05.02.1.03.15.05.04,0,.08.02.13.03.06,0,.11.01.17.02.02,0,.04,0,.06,0h75.61c.16,0,.31-.03.45-.08.02,0,.05-.01.07-.02.15-.06.28-.13.4-.23.01,0,.02,0,.03-.02.02-.01.03-.03.04-.04.04-.04.08-.08.12-.12.03-.04.06-.07.09-.11.03-.04.06-.08.08-.13.02-.04.05-.08.07-.12.02-.04.04-.09.05-.14.02-.05.03-.09.04-.14.01-.05.02-.09.03-.14,0-.05.01-.1.02-.16,0-.02,0-.04,0-.07,0-.02,0-.05,0-.07,0-.05,0-.11-.02-.16,0-.05-.02-.09-.03-.14-.01-.05-.03-.1-.04-.14-.02-.05-.03-.09-.06-.13-.02-.04-.04-.08-.07-.13-.03-.05-.06-.09-.09-.13-.01-.02-.02-.04-.04-.06-8.24-9.91-19.78-16.2-32.36-17.85-.51-3.19-3.27-5.63-6.6-5.63s-6.09,2.45-6.6,5.63c-12.58,1.64-24.12,7.93-32.36,17.85-.02.02-.03.04-.04.06-.03.04-.06.08-.09.13-.02.04-.05.08-.07.13ZM201.42,510.56c1.55,0,2.87.96,3.42,2.31-1.13-.08-2.27-.13-3.42-.13s-2.28.05-3.42.13c.55-1.35,1.87-2.31,3.42-2.31ZM201.42,515.75c13.1,0,25.47,5.34,34.44,14.75h-68.88c8.97-9.41,21.34-14.75,34.44-14.75Z"/>
          <path class="st41" d="M183.39,529.56c2.17,0,3.94-1.77,3.94-3.94s-1.77-3.94-3.94-3.94-3.94,1.77-3.94,3.94,1.77,3.94,3.94,3.94ZM183.39,524.69c.52,0,.94.42.94.94s-.42.94-.94.94-.94-.42-.94-.94.42-.94.94-.94Z"/>
          <path class="st41" d="M192.41,529.56c2.17,0,3.94-1.77,3.94-3.94s-1.77-3.94-3.94-3.94-3.94,1.77-3.94,3.94,1.77,3.94,3.94,3.94ZM192.41,524.69c.52,0,.94.42.94.94s-.42.94-.94.94-.94-.42-.94-.94.42-.94.94-.94Z"/>
          <path class="st41" d="M201.42,529.56c2.17,0,3.94-1.77,3.94-3.94s-1.77-3.94-3.94-3.94-3.94,1.77-3.94,3.94,1.77,3.94,3.94,3.94ZM201.42,524.69c.52,0,.94.42.94.94s-.42.94-.94.94-.94-.42-.94-.94.42-.94.94-.94Z"/>
          <path class="st41" d="M210.43,529.56c2.17,0,3.94-1.77,3.94-3.94s-1.77-3.94-3.94-3.94-3.94,1.77-3.94,3.94,1.77,3.94,3.94,3.94ZM210.43,524.69c.52,0,.94.42.94.94s-.42.94-.94.94-.94-.42-.94-.94.42-.94.94-.94Z"/>
          <path class="st41" d="M219.45,529.56c2.17,0,3.94-1.77,3.94-3.94s-1.77-3.94-3.94-3.94-3.94,1.77-3.94,3.94,1.77,3.94,3.94,3.94ZM219.45,524.69c.52,0,.94.42.94.94s-.42.94-.94.94-.94-.42-.94-.94.42-.94.94-.94Z"/>
          <path class="st41" d="M618.04,539.62c-2.7,0-5.08,1.34-6.54,3.38-1.46-2.04-3.84-3.38-6.54-3.38-4.43,0-8.04,3.61-8.04,8.04,0,.83.67,1.5,1.5,1.5h11.58v43.73c0,.83.67,1.5,1.5,1.5s1.5-.67,1.5-1.5v-43.73h11.58c.83,0,1.5-.67,1.5-1.5,0-4.43-3.61-8.04-8.04-8.04ZM600.15,546.16c.64-2.05,2.56-3.54,4.81-3.54s4.17,1.49,4.81,3.54h-9.63ZM613.23,546.16c.64-2.05,2.56-3.54,4.81-3.54s4.17,1.49,4.81,3.54h-9.62Z"/>
          <path class="st41" d="M712.14,560.7c-2.7,0-5.08,1.34-6.54,3.38-1.46-2.04-3.84-3.38-6.54-3.38-4.43,0-8.04,3.61-8.04,8.04,0,.83.67,1.5,1.5,1.5h11.58v22.64c0,.83.67,1.5,1.5,1.5s1.5-.67,1.5-1.5v-22.64h11.58c.83,0,1.5-.67,1.5-1.5,0-4.43-3.61-8.04-8.04-8.04ZM694.25,567.24c.64-2.05,2.56-3.54,4.81-3.54s4.17,1.49,4.81,3.54h-9.63ZM707.33,567.24c.64-2.05,2.56-3.54,4.81-3.54s4.17,1.49,4.81,3.54h-9.62Z"/>
          <path class="st41" d="M84.64,565.7c-2.7,0-5.08,1.34-6.54,3.38-1.46-2.04-3.84-3.38-6.54-3.38-4.43,0-8.04,3.61-8.04,8.04,0,.83.67,1.5,1.5,1.5h11.58v17.64c0,.83.67,1.5,1.5,1.5s1.5-.67,1.5-1.5v-17.64h11.58c.83,0,1.5-.67,1.5-1.5,0-4.43-3.61-8.04-8.04-8.04ZM66.75,572.24c.64-2.05,2.56-3.54,4.81-3.54s4.17,1.49,4.81,3.54h-9.63ZM79.83,572.24c.64-2.05,2.56-3.54,4.81-3.54s4.17,1.49,4.81,3.54h-9.62Z"/>
          <path class="st41" d="M337.13,560.7c-2.7,0-5.08,1.34-6.54,3.38-1.46-2.04-3.84-3.38-6.54-3.38-4.43,0-8.04,3.61-8.04,8.04,0,.83.67,1.5,1.5,1.5h11.58v22.64c0,.83.67,1.5,1.5,1.5s1.5-.67,1.5-1.5v-22.64h11.58c.83,0,1.5-.67,1.5-1.5,0-4.43-3.61-8.04-8.04-8.04ZM319.23,567.24c.64-2.05,2.56-3.54,4.81-3.54s4.17,1.49,4.81,3.54h-9.63ZM332.31,567.24c.64-2.05,2.56-3.54,4.81-3.54s4.17,1.49,4.81,3.54h-9.62Z"/>
        </g>
        <g class="st7">
          <path class="st21" d="M284.45,161.44h-1.47c-.83,0-1.5-.67-1.5-1.5v-39.27c0-.83.67-1.5,1.5-1.5h19.25c1.7,0,3.37.35,4.96,1.03,1.56.67,2.96,1.59,4.15,2.72,1.19,1.13,2.16,2.47,2.87,3.97.73,1.54,1.1,3.19,1.1,4.91,0,1.26-.26,2.56-.76,3.87-.5,1.3-1.24,2.52-2.2,3.64-.95,1.11-2.16,2.12-3.6,3-.89.54-1.86,1-2.91,1.37l10.25,15.18c.25.27.39.62.39,1.01,0,.83-.67,1.5-1.5,1.5,0,0-.01,0-.02,0h-2.01c-.5,0-.96-.25-1.24-.66l-11.03-16.21h-14.75v15.41c0,.83-.67,1.5-1.5,1.5ZM285.95,140.15h15.17c1.34,0,2.62-.23,3.8-.69,1.18-.46,2.22-1.07,3.07-1.84.84-.75,1.51-1.64,2-2.65.48-1,.71-2.04.71-3.16s-.23-2.15-.68-3.14c-.46-1.01-1.09-1.9-1.87-2.65-.8-.76-1.74-1.37-2.79-1.82-1.03-.44-2.13-.67-3.26-.67h-16.15v16.61Z"/>
          <path class="st20" d="M332.93,161.39h-6.03c-.83,0-1.5-.67-1.5-1.5v-1.37c0-.83.67-1.5,1.5-1.5h.8v-33.47h-.85c-.83,0-1.5-.67-1.5-1.5v-1.37c0-.83.67-1.5,1.5-1.5h6.08c.83,0,1.5.67,1.5,1.5v1.37c0,.83-.67,1.5-1.5,1.5h-.76v33.47h.76c.83,0,1.5.67,1.5,1.5v1.37c0,.83-.67,1.5-1.5,1.5Z"/>
          <path class="st22" d="M362.28,161.39h-1.47c-.83,0-1.5-.67-1.5-1.5v-16.57l-16.13-21.76c-.34-.46-.39-1.06-.13-1.57.25-.51.77-.83,1.34-.83h1.81c.48,0,.92.23,1.21.61l14.14,19.1,14.04-19.1c.28-.38.73-.61,1.21-.61h1.91c.57,0,1.08.32,1.34.83.25.51.2,1.11-.13,1.57l-16.13,21.76v16.57c0,.83-.67,1.5-1.5,1.5Z"/>
          <path class="st23" d="M414.71,161.39s-.01,0-.02,0h-1.62c-.59,0-1.12-.34-1.36-.87l-5.04-10.99h-21.21l-5.04,10.99c-.24.53-.78.87-1.36.87h-1.67c-.51,0-.99-.26-1.26-.69-.28-.43-.31-.97-.1-1.43l17.89-39.22c.24-.53.78-.88,1.36-.88h1.47c.59,0,1.12.34,1.36.88l17.85,39.01c.16.24.25.52.25.83,0,.83-.67,1.5-1.5,1.5ZM387.45,145.15h17.2l-8.64-18.86-8.56,18.86Z"/>
          <path class="st25" d="M439.32,161.39h-13.97c-.83,0-1.5-.67-1.5-1.5v-39.22c0-.83.67-1.5,1.5-1.5h14.02c2.94,0,5.73.56,8.31,1.66,2.56,1.1,4.84,2.61,6.76,4.5,1.93,1.89,3.47,4.14,4.59,6.69,1.12,2.57,1.7,5.33,1.7,8.2s-.57,5.68-1.7,8.25c-1.12,2.55-2.66,4.81-4.58,6.71-1.92,1.91-4.21,3.43-6.79,4.53-2.59,1.1-5.4,1.66-8.33,1.66ZM428.32,157.02h11.25c2.29,0,4.46-.46,6.44-1.36,2.01-.91,3.79-2.15,5.29-3.68,1.49-1.52,2.68-3.32,3.54-5.34.85-2.01,1.28-4.16,1.28-6.4s-.44-4.34-1.3-6.35c-.87-2.03-2.06-3.83-3.55-5.36-1.48-1.52-3.25-2.75-5.27-3.65-2-.89-4.16-1.34-6.42-1.34h-11.25v33.47Z"/>
          <path class="st24" d="M501.02,161.39h-1.47c-.83,0-1.5-.67-1.5-1.5v-17.08h-24.99v17.08c0,.83-.67,1.5-1.5,1.5h-1.47c-.83,0-1.5-.67-1.5-1.5v-39.22c0-.83.67-1.5,1.5-1.5h1.47c.83,0,1.5.67,1.5,1.5v17.77h24.99v-17.77c0-.83.67-1.5,1.5-1.5h1.47c.83,0,1.5.67,1.5,1.5v39.22c0,.83-.67,1.5-1.5,1.5Z"/>
        </g>
      </g>
    </g>
  </g>
</svg>